<?xml version="1.0" encoding="utf-8" standalone="no"?>
<!DOCTYPE svg PUBLIC "-//W3C//DTD SVG 1.1//EN"
  "http://www.w3.org/Graphics/SVG/1.1/DTD/svg11.dtd">
<svg xmlns:xlink="http://www.w3.org/1999/xlink" width="288pt" height="216pt" viewBox="0 0 288 216" xmlns="http://www.w3.org/2000/svg" version="1.1">
 <metadata>
  <rdf:RDF xmlns:dc="http://purl.org/dc/elements/1.1/" xmlns:cc="http://creativecommons.org/ns#" xmlns:rdf="http://www.w3.org/1999/02/22-rdf-syntax-ns#">
   <cc:Work>
    <dc:type rdf:resource="http://purl.org/dc/dcmitype/StillImage"/>
    <dc:date>2025-11-23T14:28:29.527724</dc:date>
    <dc:format>image/svg+xml</dc:format>
    <dc:creator>
     <cc:Agent>
      <dc:title>Matplotlib v3.10.7, https://matplotlib.org/</dc:title>
     </cc:Agent>
    </dc:creator>
   </cc:Work>
  </rdf:RDF>
 </metadata>
 <defs>
  <style type="text/css">*{stroke-linejoin: round; stroke-linecap: butt}</style>
 </defs>
 <g id="figure_1">
  <g id="patch_1">
   <path d="M 0 216 
L 288 216 
L 288 0 
L 0 0 
z
" style="fill: #ffffff"/>
  </g>
  <g id="axes_1">
   <g id="patch_2">
    <path d="M 56.09 174.04 
L 277.2 174.04 
L 277.2 26.88 
L 56.09 26.88 
z
" style="fill: #ffffff"/>
   </g>
   <g id="matplotlib.axis_1">
    <g id="xtick_1">
     <g id="line2d_1">
      <path d="M 75.277231 174.04 
L 75.277231 26.88 
" clip-path="url(#p9e57fe14eb)" style="fill: none; stroke: #b0b0b0; stroke-opacity: 0.5; stroke-width: 0.4; stroke-linecap: square"/>
     </g>
     <g id="line2d_2">
      <defs>
       <path id="mc81aae7788" d="M 0 0 
L 0 3.5 
" style="stroke: #000000; stroke-width: 0.8"/>
      </defs>
      <g>
       <use xlink:href="#mc81aae7788" x="75.277231" y="174.04" style="stroke: #000000; stroke-width: 0.8"/>
      </g>
     </g>
     <g id="text_1">
      <!-- −2 -->
      <g transform="translate(67.906138 188.638438) scale(0.1 -0.1)">
       <defs>
        <path id="DejaVuSans-2212" d="M 678 2272 
L 4684 2272 
L 4684 1741 
L 678 1741 
L 678 2272 
z
" transform="scale(0.015625)"/>
        <path id="DejaVuSans-32" d="M 1228 531 
L 3431 531 
L 3431 0 
L 469 0 
L 469 531 
Q 828 903 1448 1529 
Q 2069 2156 2228 2338 
Q 2531 2678 2651 2914 
Q 2772 3150 2772 3378 
Q 2772 3750 2511 3984 
Q 2250 4219 1831 4219 
Q 1534 4219 1204 4116 
Q 875 4013 500 3803 
L 500 4441 
Q 881 4594 1212 4672 
Q 1544 4750 1819 4750 
Q 2544 4750 2975 4387 
Q 3406 4025 3406 3419 
Q 3406 3131 3298 2873 
Q 3191 2616 2906 2266 
Q 2828 2175 2409 1742 
Q 1991 1309 1228 531 
z
" transform="scale(0.015625)"/>
       </defs>
       <use xlink:href="#DejaVuSans-2212"/>
       <use xlink:href="#DejaVuSans-32" transform="translate(83.789062 0)"/>
      </g>
     </g>
    </g>
    <g id="xtick_2">
     <g id="line2d_3">
      <path d="M 120.961116 174.04 
L 120.961116 26.88 
" clip-path="url(#p9e57fe14eb)" style="fill: none; stroke: #b0b0b0; stroke-opacity: 0.5; stroke-width: 0.4; stroke-linecap: square"/>
     </g>
     <g id="line2d_4">
      <g>
       <use xlink:href="#mc81aae7788" x="120.961116" y="174.04" style="stroke: #000000; stroke-width: 0.8"/>
      </g>
     </g>
     <g id="text_2">
      <!-- −1 -->
      <g transform="translate(113.590022 188.638438) scale(0.1 -0.1)">
       <defs>
        <path id="DejaVuSans-31" d="M 794 531 
L 1825 531 
L 1825 4091 
L 703 3866 
L 703 4441 
L 1819 4666 
L 2450 4666 
L 2450 531 
L 3481 531 
L 3481 0 
L 794 0 
L 794 531 
z
" transform="scale(0.015625)"/>
       </defs>
       <use xlink:href="#DejaVuSans-2212"/>
       <use xlink:href="#DejaVuSans-31" transform="translate(83.789062 0)"/>
      </g>
     </g>
    </g>
    <g id="xtick_3">
     <g id="line2d_5">
      <path d="M 166.645 174.04 
L 166.645 26.88 
" clip-path="url(#p9e57fe14eb)" style="fill: none; stroke: #b0b0b0; stroke-opacity: 0.5; stroke-width: 0.4; stroke-linecap: square"/>
     </g>
     <g id="line2d_6">
      <g>
       <use xlink:href="#mc81aae7788" x="166.645" y="174.04" style="stroke: #000000; stroke-width: 0.8"/>
      </g>
     </g>
     <g id="text_3">
      <!-- 0 -->
      <g transform="translate(163.46375 188.638438) scale(0.1 -0.1)">
       <defs>
        <path id="DejaVuSans-30" d="M 2034 4250 
Q 1547 4250 1301 3770 
Q 1056 3291 1056 2328 
Q 1056 1369 1301 889 
Q 1547 409 2034 409 
Q 2525 409 2770 889 
Q 3016 1369 3016 2328 
Q 3016 3291 2770 3770 
Q 2525 4250 2034 4250 
z
M 2034 4750 
Q 2819 4750 3233 4129 
Q 3647 3509 3647 2328 
Q 3647 1150 3233 529 
Q 2819 -91 2034 -91 
Q 1250 -91 836 529 
Q 422 1150 422 2328 
Q 422 3509 836 4129 
Q 1250 4750 2034 4750 
z
" transform="scale(0.015625)"/>
       </defs>
       <use xlink:href="#DejaVuSans-30"/>
      </g>
     </g>
    </g>
    <g id="xtick_4">
     <g id="line2d_7">
      <path d="M 212.328884 174.04 
L 212.328884 26.88 
" clip-path="url(#p9e57fe14eb)" style="fill: none; stroke: #b0b0b0; stroke-opacity: 0.5; stroke-width: 0.4; stroke-linecap: square"/>
     </g>
     <g id="line2d_8">
      <g>
       <use xlink:href="#mc81aae7788" x="212.328884" y="174.04" style="stroke: #000000; stroke-width: 0.8"/>
      </g>
     </g>
     <g id="text_4">
      <!-- 1 -->
      <g transform="translate(209.147634 188.638438) scale(0.1 -0.1)">
       <use xlink:href="#DejaVuSans-31"/>
      </g>
     </g>
    </g>
    <g id="xtick_5">
     <g id="line2d_9">
      <path d="M 258.012769 174.04 
L 258.012769 26.88 
" clip-path="url(#p9e57fe14eb)" style="fill: none; stroke: #b0b0b0; stroke-opacity: 0.5; stroke-width: 0.4; stroke-linecap: square"/>
     </g>
     <g id="line2d_10">
      <g>
       <use xlink:href="#mc81aae7788" x="258.012769" y="174.04" style="stroke: #000000; stroke-width: 0.8"/>
      </g>
     </g>
     <g id="text_5">
      <!-- 2 -->
      <g transform="translate(254.831519 188.638438) scale(0.1 -0.1)">
       <use xlink:href="#DejaVuSans-32"/>
      </g>
     </g>
    </g>
    <g id="text_6">
     <!-- input -->
     <g transform="translate(153.784062 202.316563) scale(0.1 -0.1)">
      <defs>
       <path id="DejaVuSans-69" d="M 603 3500 
L 1178 3500 
L 1178 0 
L 603 0 
L 603 3500 
z
M 603 4863 
L 1178 4863 
L 1178 4134 
L 603 4134 
L 603 4863 
z
" transform="scale(0.015625)"/>
       <path id="DejaVuSans-6e" d="M 3513 2113 
L 3513 0 
L 2938 0 
L 2938 2094 
Q 2938 2591 2744 2837 
Q 2550 3084 2163 3084 
Q 1697 3084 1428 2787 
Q 1159 2491 1159 1978 
L 1159 0 
L 581 0 
L 581 3500 
L 1159 3500 
L 1159 2956 
Q 1366 3272 1645 3428 
Q 1925 3584 2291 3584 
Q 2894 3584 3203 3211 
Q 3513 2838 3513 2113 
z
" transform="scale(0.015625)"/>
       <path id="DejaVuSans-70" d="M 1159 525 
L 1159 -1331 
L 581 -1331 
L 581 3500 
L 1159 3500 
L 1159 2969 
Q 1341 3281 1617 3432 
Q 1894 3584 2278 3584 
Q 2916 3584 3314 3078 
Q 3713 2572 3713 1747 
Q 3713 922 3314 415 
Q 2916 -91 2278 -91 
Q 1894 -91 1617 61 
Q 1341 213 1159 525 
z
M 3116 1747 
Q 3116 2381 2855 2742 
Q 2594 3103 2138 3103 
Q 1681 3103 1420 2742 
Q 1159 2381 1159 1747 
Q 1159 1113 1420 752 
Q 1681 391 2138 391 
Q 2594 391 2855 752 
Q 3116 1113 3116 1747 
z
" transform="scale(0.015625)"/>
       <path id="DejaVuSans-75" d="M 544 1381 
L 544 3500 
L 1119 3500 
L 1119 1403 
Q 1119 906 1312 657 
Q 1506 409 1894 409 
Q 2359 409 2629 706 
Q 2900 1003 2900 1516 
L 2900 3500 
L 3475 3500 
L 3475 0 
L 2900 0 
L 2900 538 
Q 2691 219 2414 64 
Q 2138 -91 1772 -91 
Q 1169 -91 856 284 
Q 544 659 544 1381 
z
M 1991 3584 
L 1991 3584 
z
" transform="scale(0.015625)"/>
       <path id="DejaVuSans-74" d="M 1172 4494 
L 1172 3500 
L 2356 3500 
L 2356 3053 
L 1172 3053 
L 1172 1153 
Q 1172 725 1289 603 
Q 1406 481 1766 481 
L 2356 481 
L 2356 0 
L 1766 0 
Q 1100 0 847 248 
Q 594 497 594 1153 
L 594 3053 
L 172 3053 
L 172 3500 
L 594 3500 
L 594 4494 
L 1172 4494 
z
" transform="scale(0.015625)"/>
      </defs>
      <use xlink:href="#DejaVuSans-69"/>
      <use xlink:href="#DejaVuSans-6e" transform="translate(27.783203 0)"/>
      <use xlink:href="#DejaVuSans-70" transform="translate(91.162109 0)"/>
      <use xlink:href="#DejaVuSans-75" transform="translate(154.638672 0)"/>
      <use xlink:href="#DejaVuSans-74" transform="translate(218.017578 0)"/>
     </g>
    </g>
   </g>
   <g id="matplotlib.axis_2">
    <g id="ytick_1">
     <g id="line2d_11">
      <path d="M 56.09 151.558402 
L 277.2 151.558402 
" clip-path="url(#p9e57fe14eb)" style="fill: none; stroke: #b0b0b0; stroke-opacity: 0.5; stroke-width: 0.4; stroke-linecap: square"/>
     </g>
     <g id="line2d_12">
      <defs>
       <path id="mb7a58b0a8a" d="M 0 0 
L -3.5 0 
" style="stroke: #000000; stroke-width: 0.8"/>
      </defs>
      <g>
       <use xlink:href="#mb7a58b0a8a" x="56.09" y="151.558402" style="stroke: #000000; stroke-width: 0.8"/>
      </g>
     </g>
     <g id="text_7">
      <!-- −1.0 -->
      <g transform="translate(24.807187 155.357621) scale(0.1 -0.1)">
       <defs>
        <path id="DejaVuSans-2e" d="M 684 794 
L 1344 794 
L 1344 0 
L 684 0 
L 684 794 
z
" transform="scale(0.015625)"/>
       </defs>
       <use xlink:href="#DejaVuSans-2212"/>
       <use xlink:href="#DejaVuSans-31" transform="translate(83.789062 0)"/>
       <use xlink:href="#DejaVuSans-2e" transform="translate(147.412109 0)"/>
       <use xlink:href="#DejaVuSans-30" transform="translate(179.199219 0)"/>
      </g>
     </g>
    </g>
    <g id="ytick_2">
     <g id="line2d_13">
      <path d="M 56.09 126.906946 
L 277.2 126.906946 
" clip-path="url(#p9e57fe14eb)" style="fill: none; stroke: #b0b0b0; stroke-opacity: 0.5; stroke-width: 0.4; stroke-linecap: square"/>
     </g>
     <g id="line2d_14">
      <g>
       <use xlink:href="#mb7a58b0a8a" x="56.09" y="126.906946" style="stroke: #000000; stroke-width: 0.8"/>
      </g>
     </g>
     <g id="text_8">
      <!-- −0.5 -->
      <g transform="translate(24.807187 130.706165) scale(0.1 -0.1)">
       <defs>
        <path id="DejaVuSans-35" d="M 691 4666 
L 3169 4666 
L 3169 4134 
L 1269 4134 
L 1269 2991 
Q 1406 3038 1543 3061 
Q 1681 3084 1819 3084 
Q 2600 3084 3056 2656 
Q 3513 2228 3513 1497 
Q 3513 744 3044 326 
Q 2575 -91 1722 -91 
Q 1428 -91 1123 -41 
Q 819 9 494 109 
L 494 744 
Q 775 591 1075 516 
Q 1375 441 1709 441 
Q 2250 441 2565 725 
Q 2881 1009 2881 1497 
Q 2881 1984 2565 2268 
Q 2250 2553 1709 2553 
Q 1456 2553 1204 2497 
Q 953 2441 691 2322 
L 691 4666 
z
" transform="scale(0.015625)"/>
       </defs>
       <use xlink:href="#DejaVuSans-2212"/>
       <use xlink:href="#DejaVuSans-30" transform="translate(83.789062 0)"/>
       <use xlink:href="#DejaVuSans-2e" transform="translate(147.412109 0)"/>
       <use xlink:href="#DejaVuSans-35" transform="translate(179.199219 0)"/>
      </g>
     </g>
    </g>
    <g id="ytick_3">
     <g id="line2d_15">
      <path d="M 56.09 102.25549 
L 277.2 102.25549 
" clip-path="url(#p9e57fe14eb)" style="fill: none; stroke: #b0b0b0; stroke-opacity: 0.5; stroke-width: 0.4; stroke-linecap: square"/>
     </g>
     <g id="line2d_16">
      <g>
       <use xlink:href="#mb7a58b0a8a" x="56.09" y="102.25549" style="stroke: #000000; stroke-width: 0.8"/>
      </g>
     </g>
     <g id="text_9">
      <!-- 0.0 -->
      <g transform="translate(33.186875 106.054708) scale(0.1 -0.1)">
       <use xlink:href="#DejaVuSans-30"/>
       <use xlink:href="#DejaVuSans-2e" transform="translate(63.623047 0)"/>
       <use xlink:href="#DejaVuSans-30" transform="translate(95.410156 0)"/>
      </g>
     </g>
    </g>
    <g id="ytick_4">
     <g id="line2d_17">
      <path d="M 56.09 77.604033 
L 277.2 77.604033 
" clip-path="url(#p9e57fe14eb)" style="fill: none; stroke: #b0b0b0; stroke-opacity: 0.5; stroke-width: 0.4; stroke-linecap: square"/>
     </g>
     <g id="line2d_18">
      <g>
       <use xlink:href="#mb7a58b0a8a" x="56.09" y="77.604033" style="stroke: #000000; stroke-width: 0.8"/>
      </g>
     </g>
     <g id="text_10">
      <!-- 0.5 -->
      <g transform="translate(33.186875 81.403252) scale(0.1 -0.1)">
       <use xlink:href="#DejaVuSans-30"/>
       <use xlink:href="#DejaVuSans-2e" transform="translate(63.623047 0)"/>
       <use xlink:href="#DejaVuSans-35" transform="translate(95.410156 0)"/>
      </g>
     </g>
    </g>
    <g id="ytick_5">
     <g id="line2d_19">
      <path d="M 56.09 52.952577 
L 277.2 52.952577 
" clip-path="url(#p9e57fe14eb)" style="fill: none; stroke: #b0b0b0; stroke-opacity: 0.5; stroke-width: 0.4; stroke-linecap: square"/>
     </g>
     <g id="line2d_20">
      <g>
       <use xlink:href="#mb7a58b0a8a" x="56.09" y="52.952577" style="stroke: #000000; stroke-width: 0.8"/>
      </g>
     </g>
     <g id="text_11">
      <!-- 1.0 -->
      <g transform="translate(33.186875 56.751796) scale(0.1 -0.1)">
       <use xlink:href="#DejaVuSans-31"/>
       <use xlink:href="#DejaVuSans-2e" transform="translate(63.623047 0)"/>
       <use xlink:href="#DejaVuSans-30" transform="translate(95.410156 0)"/>
      </g>
     </g>
    </g>
    <g id="ytick_6">
     <g id="line2d_21">
      <path d="M 56.09 28.301121 
L 277.2 28.301121 
" clip-path="url(#p9e57fe14eb)" style="fill: none; stroke: #b0b0b0; stroke-opacity: 0.5; stroke-width: 0.4; stroke-linecap: square"/>
     </g>
     <g id="line2d_22">
      <g>
       <use xlink:href="#mb7a58b0a8a" x="56.09" y="28.301121" style="stroke: #000000; stroke-width: 0.8"/>
      </g>
     </g>
     <g id="text_12">
      <!-- 1.5 -->
      <g transform="translate(33.186875 32.10034) scale(0.1 -0.1)">
       <use xlink:href="#DejaVuSans-31"/>
       <use xlink:href="#DejaVuSans-2e" transform="translate(63.623047 0)"/>
       <use xlink:href="#DejaVuSans-35" transform="translate(95.410156 0)"/>
      </g>
     </g>
    </g>
    <g id="text_13">
     <!-- output -->
     <g transform="translate(18.7275 116.951406) rotate(-90) scale(0.1 -0.1)">
      <defs>
       <path id="DejaVuSans-6f" d="M 1959 3097 
Q 1497 3097 1228 2736 
Q 959 2375 959 1747 
Q 959 1119 1226 758 
Q 1494 397 1959 397 
Q 2419 397 2687 759 
Q 2956 1122 2956 1747 
Q 2956 2369 2687 2733 
Q 2419 3097 1959 3097 
z
M 1959 3584 
Q 2709 3584 3137 3096 
Q 3566 2609 3566 1747 
Q 3566 888 3137 398 
Q 2709 -91 1959 -91 
Q 1206 -91 779 398 
Q 353 888 353 1747 
Q 353 2609 779 3096 
Q 1206 3584 1959 3584 
z
" transform="scale(0.015625)"/>
      </defs>
      <use xlink:href="#DejaVuSans-6f"/>
      <use xlink:href="#DejaVuSans-75" transform="translate(61.181641 0)"/>
      <use xlink:href="#DejaVuSans-74" transform="translate(124.560547 0)"/>
      <use xlink:href="#DejaVuSans-70" transform="translate(163.769531 0)"/>
      <use xlink:href="#DejaVuSans-75" transform="translate(227.246094 0)"/>
      <use xlink:href="#DejaVuSans-74" transform="translate(290.625 0)"/>
     </g>
    </g>
   </g>
   <g id="line2d_23">
    <path d="M 66.140455 33.569091 
L 66.475749 34.820565 
L 66.643396 36.452131 
L 66.811044 36.316067 
L 66.978691 36.97752 
L 67.313986 39.10094 
L 67.481633 39.376263 
L 67.64928 40.224595 
L 67.816927 52.952577 
L 67.984575 41.490453 
L 68.152222 42.49965 
L 68.319869 42.282242 
L 68.990458 45.986204 
L 69.158106 46.351211 
L 69.325753 47.187857 
L 69.4934 47.082972 
L 69.661047 47.579313 
L 69.828695 49.182124 
L 70.163989 50.347671 
L 70.331637 50.17573 
L 70.834578 52.917903 
L 71.169873 53.634206 
L 71.505168 55.116666 
L 71.672815 55.767935 
L 71.840462 58.721576 
L 72.008109 56.644824 
L 72.175757 66.732147 
L 72.343404 57.917534 
L 72.511051 59.004008 
L 72.678699 58.945456 
L 73.013993 60.609923 
L 73.18164 61.304054 
L 73.349288 61.291563 
L 73.516935 53.388486 
L 73.684582 62.973869 
L 73.85223 62.996564 
L 74.019877 63.773154 
L 74.187524 63.879121 
L 74.690466 66.277604 
L 74.858113 66.40347 
L 75.193408 67.852944 
L 75.528702 68.475998 
L 75.69635 69.284526 
L 75.863997 69.509737 
L 76.031644 70.768112 
L 76.199291 70.864882 
L 78.881648 79.15788 
L 79.049295 70.866728 
L 79.216943 79.988234 
L 79.38459 80.322876 
L 79.719884 81.188118 
L 79.887532 94.033419 
L 80.055179 82.530407 
L 80.558121 84.155597 
L 80.725768 84.372842 
L 81.061063 85.719849 
L 81.396357 86.078676 
L 81.731652 87.403442 
L 81.899299 87.537638 
L 82.066946 88.187746 
L 82.234594 88.391458 
L 82.569888 89.615355 
L 82.905183 90.43018 
L 83.240477 91.324492 
L 83.408125 87.74423 
L 83.575772 92.204012 
L 83.743419 92.197538 
L 84.078714 93.567756 
L 84.246361 93.434262 
L 84.414008 94.087936 
L 84.581656 94.164615 
L 84.749303 94.565108 
L 84.91695 95.585359 
L 85.084597 95.516816 
L 85.252245 95.806131 
L 85.755187 97.495464 
L 85.922834 109.637314 
L 86.090481 97.987764 
L 86.258128 98.793082 
L 86.425776 98.72854 
L 86.593423 99.316295 
L 86.76107 99.44742 
L 87.096365 100.338923 
L 87.264012 100.88344 
L 87.431659 100.906817 
L 87.599307 101.651599 
L 87.766954 101.702602 
L 88.772838 104.270735 
L 88.940485 104.029267 
L 89.108132 104.885447 
L 89.275779 104.811643 
L 89.443427 105.509681 
L 89.611074 105.636257 
L 89.778721 106.309789 
L 89.946369 106.451462 
L 90.114016 106.438699 
L 90.281663 105.209707 
L 90.44931 107.215606 
L 90.616958 107.461879 
L 90.784605 107.991493 
L 90.952252 108.108894 
L 92.628725 111.549323 
L 92.96402 111.807457 
L 93.131667 112.532152 
L 93.299314 112.425019 
L 93.466961 113.102656 
L 93.634609 113.009436 
L 94.472845 114.819305 
L 94.640492 114.68206 
L 94.975787 115.293623 
L 95.143434 115.640001 
L 95.311082 103.398838 
L 95.478729 116.21422 
L 95.981671 116.913147 
L 96.149318 117.488461 
L 96.316965 117.398592 
L 96.819907 118.22306 
L 97.658144 119.473824 
L 97.825791 108.76313 
L 97.993438 119.793548 
L 98.328733 120.615431 
L 98.49638 120.576603 
L 98.831675 121.075596 
L 98.999322 121.515135 
L 99.166969 121.624949 
L 99.334616 121.938931 
L 99.502264 121.894901 
L 99.837558 122.362589 
L 100.005205 122.511062 
L 100.172853 122.885128 
L 100.3405 122.917628 
L 100.508147 123.325668 
L 100.843442 123.495968 
L 101.011089 123.673132 
L 101.514031 124.548188 
L 101.681678 124.565429 
L 102.016973 125.044447 
L 102.855209 125.981384 
L 103.022857 126.046605 
L 103.190504 126.390302 
L 103.358151 126.361524 
L 103.693446 126.90463 
L 104.02874 127.139593 
L 104.196388 127.111897 
L 104.531682 127.700294 
L 104.699329 127.715266 
L 105.87286 128.830006 
L 106.040508 128.819067 
L 106.543449 129.310926 
L 107.046391 129.807861 
L 107.549333 130.228604 
L 107.71698 130.270308 
L 108.052275 130.589725 
L 108.219922 130.61865 
L 108.555217 130.946058 
L 108.722864 130.92181 
L 108.890511 131.110139 
L 109.058159 131.108803 
L 109.393453 131.507446 
L 109.561101 131.477184 
L 109.728748 131.721244 
L 109.896395 131.644765 
L 110.064042 131.757159 
L 110.23169 140.140848 
L 110.399337 131.966635 
L 110.566984 132.208262 
L 110.734632 132.147415 
L 111.069926 132.427866 
L 111.405221 132.546914 
L 111.572868 143.506519 
L 111.740515 132.753622 
L 113.081693 133.445026 
L 113.249341 133.425307 
L 113.91993 133.749123 
L 114.255224 133.840844 
L 115.596403 134.29273 
L 118.446406 134.923085 
L 118.614054 125.099528 
L 118.781701 134.962349 
L 119.787585 135.054417 
L 119.955232 138.729102 
L 120.122879 135.080066 
L 121.464058 135.123991 
L 123.811119 134.999039 
L 125.65524 134.701118 
L 125.822887 133.132977 
L 125.990534 134.644894 
L 126.661123 134.521291 
L 127.331712 134.347774 
L 127.49936 136.914626 
L 127.667007 134.217823 
L 128.505243 133.969605 
L 129.846422 133.575115 
L 130.517011 133.27746 
L 131.019953 133.054001 
L 131.522894 132.935822 
L 131.690542 132.75207 
L 132.025836 132.650948 
L 132.528778 132.487179 
L 132.696425 133.811091 
L 132.864073 132.231365 
L 133.03172 132.250939 
L 133.702309 131.816539 
L 133.869956 131.836708 
L 135.546429 130.83865 
L 135.714077 130.836884 
L 135.881724 119.273697 
L 136.049371 130.620459 
L 136.71996 130.115721 
L 137.390549 129.818644 
L 138.061138 129.434056 
L 138.228786 131.902215 
L 138.396433 129.145337 
L 139.569964 128.287913 
L 139.737611 128.325065 
L 139.905259 128.046973 
L 140.240553 127.925896 
L 140.575848 127.662243 
L 141.414084 127.050316 
L 141.581731 136.433596 
L 141.749379 126.744799 
L 141.917026 126.742879 
L 142.25232 126.328402 
L 142.587615 126.159792 
L 142.755262 133.495159 
L 142.92291 125.881342 
L 143.090557 125.882669 
L 143.258204 125.606978 
L 143.425851 125.611506 
L 143.761146 125.192843 
L 144.096441 125.088558 
L 144.264088 124.738692 
L 144.431735 124.815776 
L 144.599382 124.501892 
L 144.76703 124.530961 
L 144.934677 124.40788 
L 145.269972 123.933213 
L 147.784681 121.838182 
L 147.952328 115.541999 
L 148.119975 121.676898 
L 148.45527 121.253632 
L 148.622917 121.142427 
L 148.790564 119.182189 
L 148.958212 120.885393 
L 149.293506 120.560957 
L 150.131743 119.782136 
L 150.29939 119.648446 
L 150.467037 119.292896 
L 150.634685 119.302197 
L 150.802332 119.006425 
L 151.137626 118.880151 
L 151.472921 118.417376 
L 151.640568 118.396903 
L 152.14351 117.751386 
L 152.311157 121.135631 
L 152.478805 117.483164 
L 152.981747 116.986421 
L 153.149394 116.958911 
L 153.652336 116.195398 
L 153.98763 115.979301 
L 155.328808 114.607679 
L 158.34646 111.590125 
L 158.514107 121.124278 
L 158.681754 111.305227 
L 158.849401 110.909324 
L 159.352343 110.520738 
L 159.519991 110.284994 
L 159.687638 110.317254 
L 159.855285 109.860916 
L 160.525874 109.278093 
L 160.861169 109.076845 
L 161.028816 108.599272 
L 161.196463 108.679725 
L 161.699405 107.908532 
L 161.867052 107.994639 
L 162.202347 107.445747 
L 162.369994 107.276741 
L 162.537642 107.302635 
L 162.705289 106.902456 
L 163.208231 106.526065 
L 163.87882 105.707177 
L 164.717056 104.755801 
L 164.884704 104.675503 
L 165.052351 104.316894 
L 165.555293 103.93408 
L 165.72294 103.7028 
L 165.890587 103.699427 
L 166.225882 103.192485 
L 166.561176 102.726935 
L 166.728824 102.716884 
L 167.064118 102.37676 
L 167.399413 102.032579 
L 167.902355 101.3431 
L 168.070002 101.313036 
L 168.572944 100.677107 
L 168.740591 100.614639 
L 169.075886 100.124925 
L 169.746475 99.519015 
L 169.914122 99.194002 
L 170.249417 98.989825 
L 170.584711 98.405758 
L 170.752358 98.378795 
L 171.087653 98.045076 
L 171.2553 110.403015 
L 171.422948 97.507934 
L 172.261184 96.749757 
L 172.596479 96.258965 
L 172.764126 96.277707 
L 172.931773 96.109382 
L 173.267068 95.478626 
L 173.434715 95.498883 
L 173.937657 94.791588 
L 174.105304 94.807204 
L 174.775893 94.169122 
L 174.94354 93.719503 
L 175.111188 93.741526 
L 175.278835 93.613915 
L 175.61413 93.061191 
L 176.117071 92.672627 
L 176.452366 92.227337 
L 176.620013 92.262218 
L 176.955308 91.689135 
L 177.122955 91.690433 
L 178.128839 90.567354 
L 178.296486 90.527568 
L 178.799428 89.817196 
L 179.134722 89.686808 
L 179.30237 89.30178 
L 179.470017 89.339334 
L 180.308253 88.241801 
L 180.475901 91.140752 
L 180.643548 87.97279 
L 180.811195 88.022967 
L 181.314137 87.510679 
L 181.817079 86.968309 
L 182.152374 86.519354 
L 182.487668 86.389071 
L 182.655315 86.096204 
L 182.822963 86.05011 
L 182.99061 85.884529 
L 183.158257 85.492601 
L 183.325905 85.554079 
L 183.493552 85.270842 
L 183.661199 85.253631 
L 184.331788 84.438216 
L 184.499436 84.502032 
L 184.83473 83.951278 
L 185.002377 83.930386 
L 185.170025 83.674659 
L 185.337672 83.694321 
L 185.840614 83.244856 
L 188.187676 81.185552 
L 188.355323 81.071781 
L 188.52297 80.712705 
L 188.690618 80.701218 
L 189.193559 80.378034 
L 189.361207 80.001183 
L 189.528854 80.035745 
L 189.864149 79.761735 
L 190.199443 79.380778 
L 190.36709 79.402756 
L 190.702385 79.10884 
L 190.870032 88.271986 
L 191.03768 78.719671 
L 191.205327 78.673401 
L 191.875916 78.075488 
L 192.378858 77.758086 
L 192.546505 77.532103 
L 192.8818 77.482236 
L 193.049447 77.198555 
L 193.217094 77.197731 
L 193.552389 76.7904 
L 193.887683 76.687829 
L 194.558272 76.217662 
L 195.228862 75.772582 
L 195.396509 75.582347 
L 195.564156 75.593157 
L 196.905334 74.591545 
L 197.072982 74.629073 
L 197.911218 73.981944 
L 198.078865 73.952148 
L 198.246513 73.783246 
L 198.41416 64.803609 
L 198.581807 73.660077 
L 198.749454 73.614688 
L 199.084749 73.36804 
L 199.252396 73.20701 
L 199.587691 73.117599 
L 200.090633 72.822336 
L 200.25828 72.684357 
L 200.425927 72.703336 
L 200.593575 68.966148 
L 200.761222 72.498526 
L 200.928869 72.379323 
L 201.096516 82.941011 
L 201.264164 72.258148 
L 201.431811 72.196441 
L 201.599458 72.505525 
L 201.767106 72.073725 
L 202.940637 71.535878 
L 204.281815 70.990708 
L 204.617109 70.902582 
L 204.952404 70.713698 
L 205.455346 70.569759 
L 206.125935 70.348232 
L 206.628877 70.261736 
L 206.796524 80.242901 
L 206.964171 70.166411 
L 209.981822 69.560728 
L 214.340652 69.440434 
L 216.017124 69.640799 
L 217.693597 70.01631 
L 217.861245 80.087053 
L 218.028892 70.087949 
L 218.364186 70.180315 
L 219.873012 70.64647 
L 220.208307 70.752605 
L 220.878896 71.008559 
L 221.046543 68.935901 
L 221.21419 71.133947 
L 223.393605 72.265121 
L 223.728899 72.447315 
L 225.57302 73.64455 
L 225.740667 73.644868 
L 226.075961 74.079149 
L 226.243609 74.021979 
L 226.411256 74.324364 
L 226.578903 74.309106 
L 226.914198 74.493702 
L 228.590671 76.034763 
L 228.758318 76.23286 
L 228.925965 76.185741 
L 229.428907 76.721954 
L 230.267143 77.457171 
L 230.434791 77.765593 
L 230.770085 77.914019 
L 231.10538 78.496847 
L 231.440674 78.594931 
L 231.775969 79.102419 
L 231.943616 79.187192 
L 232.446558 79.85465 
L 232.781853 80.207407 
L 233.452442 80.994749 
L 236.470093 84.992148 
L 236.805387 85.615641 
L 236.973035 85.704579 
L 237.140682 78.650606 
L 237.308329 86.172758 
L 237.475977 86.554597 
L 237.643624 86.492375 
L 237.978918 87.376706 
L 238.146566 87.502013 
L 238.314213 89.027609 
L 238.48186 87.82942 
L 238.649508 88.205516 
L 238.817155 88.294171 
L 239.655391 89.573209 
L 239.823039 96.742119 
L 239.990686 90.440089 
L 240.493628 91.011229 
L 240.828922 91.632589 
L 240.996569 91.841023 
L 241.331864 92.677929 
L 241.499511 92.888466 
L 242.002453 94.012686 
L 242.505395 94.664525 
L 242.673042 95.205937 
L 242.84069 95.270036 
L 243.511279 96.460562 
L 243.846573 97.657831 
L 244.014221 97.562339 
L 244.349515 98.099391 
L 244.517162 85.901933 
L 244.68481 99.301862 
L 244.852457 99.542272 
L 245.020104 100.037913 
L 245.187752 100.172518 
L 246.52893 102.893545 
L 246.696577 103.078117 
L 246.864224 103.983832 
L 247.031872 104.115957 
L 248.540697 107.567203 
L 249.043639 108.827717 
L 249.378934 109.208331 
L 249.546581 110.243173 
L 249.714228 110.40063 
L 249.881875 111.051479 
L 250.049523 110.881579 
L 250.21717 111.305089 
L 250.552465 112.572419 
L 250.720112 113.095501 
L 250.887759 112.920221 
L 251.223054 114.203017 
L 251.558348 114.945242 
L 252.06129 116.327278 
L 252.228937 116.954791 
L 252.396585 117.090723 
L 252.564232 117.952786 
L 252.731879 118.151589 
L 253.570116 120.56573 
L 253.737763 120.773946 
L 253.90541 121.657221 
L 254.073057 121.537463 
L 254.911294 124.295743 
L 255.078941 124.426075 
L 256.587767 129.551208 
L 256.755414 129.427905 
L 256.923061 129.969812 
L 257.090709 131.007397 
L 257.258356 131.085444 
L 258.599534 135.769166 
L 258.767181 135.765753 
L 259.102476 136.808916 
L 259.605418 138.952843 
L 259.940712 139.553324 
L 260.443654 141.596433 
L 260.611301 142.01879 
L 261.281891 144.865919 
L 261.449538 148.634075 
L 261.617185 145.690942 
L 261.784832 146.764741 
L 261.95248 146.943739 
L 262.455422 148.809966 
L 262.623069 149.126107 
L 262.790716 150.240256 
L 262.958363 150.402702 
L 263.461305 152.764354 
L 263.628953 153.339181 
L 263.7966 153.442964 
L 264.299542 156.02861 
L 264.634836 156.887146 
L 264.802484 157.284905 
L 265.305425 159.972927 
L 265.473073 151.558402 
L 265.64072 160.471377 
L 265.808367 151.084405 
L 265.976014 161.986769 
L 266.143662 163.37809 
L 266.311309 163.531856 
L 266.478956 164.719226 
L 266.646604 164.638991 
L 266.981898 165.809294 
L 267.149545 167.350909 
L 267.149545 167.350909 
" clip-path="url(#p9e57fe14eb)" style="fill: none; stroke: #ff5c8d; stroke-width: 1.5; stroke-linecap: square"/>
   </g>
   <g id="line2d_24">
    <path d="M 56.09 102.25549 
L 277.2 102.25549 
" clip-path="url(#p9e57fe14eb)" style="fill: none; stroke: #888888; stroke-width: 0.6; stroke-linecap: square"/>
   </g>
   <g id="line2d_25">
    <path d="M 166.645 174.04 
L 166.645 26.88 
" clip-path="url(#p9e57fe14eb)" style="fill: none; stroke: #888888; stroke-width: 0.6; stroke-linecap: square"/>
   </g>
   <g id="patch_3">
    <path d="M 56.09 174.04 
L 56.09 26.88 
" style="fill: none; stroke: #000000; stroke-width: 0.8; stroke-linejoin: miter; stroke-linecap: square"/>
   </g>
   <g id="patch_4">
    <path d="M 277.2 174.04 
L 277.2 26.88 
" style="fill: none; stroke: #000000; stroke-width: 0.8; stroke-linejoin: miter; stroke-linecap: square"/>
   </g>
   <g id="patch_5">
    <path d="M 56.09 174.04 
L 277.2 174.04 
" style="fill: none; stroke: #000000; stroke-width: 0.8; stroke-linejoin: miter; stroke-linecap: square"/>
   </g>
   <g id="patch_6">
    <path d="M 56.09 26.88 
L 277.2 26.88 
" style="fill: none; stroke: #000000; stroke-width: 0.8; stroke-linejoin: miter; stroke-linecap: square"/>
   </g>
   <g id="text_14">
    <!-- cubic curve — chaos 6.0 -->
    <g transform="translate(93.2125 20.88) scale(0.12 -0.12)">
     <defs>
      <path id="DejaVuSans-63" d="M 3122 3366 
L 3122 2828 
Q 2878 2963 2633 3030 
Q 2388 3097 2138 3097 
Q 1578 3097 1268 2742 
Q 959 2388 959 1747 
Q 959 1106 1268 751 
Q 1578 397 2138 397 
Q 2388 397 2633 464 
Q 2878 531 3122 666 
L 3122 134 
Q 2881 22 2623 -34 
Q 2366 -91 2075 -91 
Q 1284 -91 818 406 
Q 353 903 353 1747 
Q 353 2603 823 3093 
Q 1294 3584 2113 3584 
Q 2378 3584 2631 3529 
Q 2884 3475 3122 3366 
z
" transform="scale(0.015625)"/>
      <path id="DejaVuSans-62" d="M 3116 1747 
Q 3116 2381 2855 2742 
Q 2594 3103 2138 3103 
Q 1681 3103 1420 2742 
Q 1159 2381 1159 1747 
Q 1159 1113 1420 752 
Q 1681 391 2138 391 
Q 2594 391 2855 752 
Q 3116 1113 3116 1747 
z
M 1159 2969 
Q 1341 3281 1617 3432 
Q 1894 3584 2278 3584 
Q 2916 3584 3314 3078 
Q 3713 2572 3713 1747 
Q 3713 922 3314 415 
Q 2916 -91 2278 -91 
Q 1894 -91 1617 61 
Q 1341 213 1159 525 
L 1159 0 
L 581 0 
L 581 4863 
L 1159 4863 
L 1159 2969 
z
" transform="scale(0.015625)"/>
      <path id="DejaVuSans-20" transform="scale(0.015625)"/>
      <path id="DejaVuSans-72" d="M 2631 2963 
Q 2534 3019 2420 3045 
Q 2306 3072 2169 3072 
Q 1681 3072 1420 2755 
Q 1159 2438 1159 1844 
L 1159 0 
L 581 0 
L 581 3500 
L 1159 3500 
L 1159 2956 
Q 1341 3275 1631 3429 
Q 1922 3584 2338 3584 
Q 2397 3584 2469 3576 
Q 2541 3569 2628 3553 
L 2631 2963 
z
" transform="scale(0.015625)"/>
      <path id="DejaVuSans-76" d="M 191 3500 
L 800 3500 
L 1894 563 
L 2988 3500 
L 3597 3500 
L 2284 0 
L 1503 0 
L 191 3500 
z
" transform="scale(0.015625)"/>
      <path id="DejaVuSans-65" d="M 3597 1894 
L 3597 1613 
L 953 1613 
Q 991 1019 1311 708 
Q 1631 397 2203 397 
Q 2534 397 2845 478 
Q 3156 559 3463 722 
L 3463 178 
Q 3153 47 2828 -22 
Q 2503 -91 2169 -91 
Q 1331 -91 842 396 
Q 353 884 353 1716 
Q 353 2575 817 3079 
Q 1281 3584 2069 3584 
Q 2775 3584 3186 3129 
Q 3597 2675 3597 1894 
z
M 3022 2063 
Q 3016 2534 2758 2815 
Q 2500 3097 2075 3097 
Q 1594 3097 1305 2825 
Q 1016 2553 972 2059 
L 3022 2063 
z
" transform="scale(0.015625)"/>
      <path id="DejaVuSans-2014" d="M 313 1978 
L 6088 1978 
L 6088 1528 
L 313 1528 
L 313 1978 
z
" transform="scale(0.015625)"/>
      <path id="DejaVuSans-68" d="M 3513 2113 
L 3513 0 
L 2938 0 
L 2938 2094 
Q 2938 2591 2744 2837 
Q 2550 3084 2163 3084 
Q 1697 3084 1428 2787 
Q 1159 2491 1159 1978 
L 1159 0 
L 581 0 
L 581 4863 
L 1159 4863 
L 1159 2956 
Q 1366 3272 1645 3428 
Q 1925 3584 2291 3584 
Q 2894 3584 3203 3211 
Q 3513 2838 3513 2113 
z
" transform="scale(0.015625)"/>
      <path id="DejaVuSans-61" d="M 2194 1759 
Q 1497 1759 1228 1600 
Q 959 1441 959 1056 
Q 959 750 1161 570 
Q 1363 391 1709 391 
Q 2188 391 2477 730 
Q 2766 1069 2766 1631 
L 2766 1759 
L 2194 1759 
z
M 3341 1997 
L 3341 0 
L 2766 0 
L 2766 531 
Q 2569 213 2275 61 
Q 1981 -91 1556 -91 
Q 1019 -91 701 211 
Q 384 513 384 1019 
Q 384 1609 779 1909 
Q 1175 2209 1959 2209 
L 2766 2209 
L 2766 2266 
Q 2766 2663 2505 2880 
Q 2244 3097 1772 3097 
Q 1472 3097 1187 3025 
Q 903 2953 641 2809 
L 641 3341 
Q 956 3463 1253 3523 
Q 1550 3584 1831 3584 
Q 2591 3584 2966 3190 
Q 3341 2797 3341 1997 
z
" transform="scale(0.015625)"/>
      <path id="DejaVuSans-73" d="M 2834 3397 
L 2834 2853 
Q 2591 2978 2328 3040 
Q 2066 3103 1784 3103 
Q 1356 3103 1142 2972 
Q 928 2841 928 2578 
Q 928 2378 1081 2264 
Q 1234 2150 1697 2047 
L 1894 2003 
Q 2506 1872 2764 1633 
Q 3022 1394 3022 966 
Q 3022 478 2636 193 
Q 2250 -91 1575 -91 
Q 1294 -91 989 -36 
Q 684 19 347 128 
L 347 722 
Q 666 556 975 473 
Q 1284 391 1588 391 
Q 1994 391 2212 530 
Q 2431 669 2431 922 
Q 2431 1156 2273 1281 
Q 2116 1406 1581 1522 
L 1381 1569 
Q 847 1681 609 1914 
Q 372 2147 372 2553 
Q 372 3047 722 3315 
Q 1072 3584 1716 3584 
Q 2034 3584 2315 3537 
Q 2597 3491 2834 3397 
z
" transform="scale(0.015625)"/>
      <path id="DejaVuSans-36" d="M 2113 2584 
Q 1688 2584 1439 2293 
Q 1191 2003 1191 1497 
Q 1191 994 1439 701 
Q 1688 409 2113 409 
Q 2538 409 2786 701 
Q 3034 994 3034 1497 
Q 3034 2003 2786 2293 
Q 2538 2584 2113 2584 
z
M 3366 4563 
L 3366 3988 
Q 3128 4100 2886 4159 
Q 2644 4219 2406 4219 
Q 1781 4219 1451 3797 
Q 1122 3375 1075 2522 
Q 1259 2794 1537 2939 
Q 1816 3084 2150 3084 
Q 2853 3084 3261 2657 
Q 3669 2231 3669 1497 
Q 3669 778 3244 343 
Q 2819 -91 2113 -91 
Q 1303 -91 875 529 
Q 447 1150 447 2328 
Q 447 3434 972 4092 
Q 1497 4750 2381 4750 
Q 2619 4750 2861 4703 
Q 3103 4656 3366 4563 
z
" transform="scale(0.015625)"/>
     </defs>
     <use xlink:href="#DejaVuSans-63"/>
     <use xlink:href="#DejaVuSans-75" transform="translate(54.980469 0)"/>
     <use xlink:href="#DejaVuSans-62" transform="translate(118.359375 0)"/>
     <use xlink:href="#DejaVuSans-69" transform="translate(181.835938 0)"/>
     <use xlink:href="#DejaVuSans-63" transform="translate(209.619141 0)"/>
     <use xlink:href="#DejaVuSans-20" transform="translate(264.599609 0)"/>
     <use xlink:href="#DejaVuSans-63" transform="translate(296.386719 0)"/>
     <use xlink:href="#DejaVuSans-75" transform="translate(351.367188 0)"/>
     <use xlink:href="#DejaVuSans-72" transform="translate(414.746094 0)"/>
     <use xlink:href="#DejaVuSans-76" transform="translate(455.859375 0)"/>
     <use xlink:href="#DejaVuSans-65" transform="translate(515.039062 0)"/>
     <use xlink:href="#DejaVuSans-20" transform="translate(576.5625 0)"/>
     <use xlink:href="#DejaVuSans-2014" transform="translate(608.349609 0)"/>
     <use xlink:href="#DejaVuSans-20" transform="translate(708.349609 0)"/>
     <use xlink:href="#DejaVuSans-63" transform="translate(740.136719 0)"/>
     <use xlink:href="#DejaVuSans-68" transform="translate(795.117188 0)"/>
     <use xlink:href="#DejaVuSans-61" transform="translate(858.496094 0)"/>
     <use xlink:href="#DejaVuSans-6f" transform="translate(919.775391 0)"/>
     <use xlink:href="#DejaVuSans-73" transform="translate(980.957031 0)"/>
     <use xlink:href="#DejaVuSans-20" transform="translate(1033.056641 0)"/>
     <use xlink:href="#DejaVuSans-36" transform="translate(1064.84375 0)"/>
     <use xlink:href="#DejaVuSans-2e" transform="translate(1128.466797 0)"/>
     <use xlink:href="#DejaVuSans-30" transform="translate(1160.253906 0)"/>
    </g>
   </g>
  </g>
 </g>
 <defs>
  <clipPath id="p9e57fe14eb">
   <rect x="56.09" y="26.88" width="221.11" height="147.16"/>
  </clipPath>
 </defs>
</svg>
