<?xml version="1.0" encoding="utf-8" standalone="no"?>
<!DOCTYPE svg PUBLIC "-//W3C//DTD SVG 1.1//EN"
  "http://www.w3.org/Graphics/SVG/1.1/DTD/svg11.dtd">
<svg xmlns:xlink="http://www.w3.org/1999/xlink" width="288pt" height="216pt" viewBox="0 0 288 216" xmlns="http://www.w3.org/2000/svg" version="1.1">
 <metadata>
  <rdf:RDF xmlns:dc="http://purl.org/dc/elements/1.1/" xmlns:cc="http://creativecommons.org/ns#" xmlns:rdf="http://www.w3.org/1999/02/22-rdf-syntax-ns#">
   <cc:Work>
    <dc:type rdf:resource="http://purl.org/dc/dcmitype/StillImage"/>
    <dc:date>2025-11-23T14:28:30.000544</dc:date>
    <dc:format>image/svg+xml</dc:format>
    <dc:creator>
     <cc:Agent>
      <dc:title>Matplotlib v3.10.7, https://matplotlib.org/</dc:title>
     </cc:Agent>
    </dc:creator>
   </cc:Work>
  </rdf:RDF>
 </metadata>
 <defs>
  <style type="text/css">*{stroke-linejoin: round; stroke-linecap: butt}</style>
 </defs>
 <g id="figure_1">
  <g id="patch_1">
   <path d="M 0 216 
L 288 216 
L 288 0 
L 0 0 
z
" style="fill: #ffffff"/>
  </g>
  <g id="axes_1">
   <g id="patch_2">
    <path d="M 56.09 174.04 
L 277.2 174.04 
L 277.2 26.88 
L 56.09 26.88 
z
" style="fill: #ffffff"/>
   </g>
   <g id="matplotlib.axis_1">
    <g id="xtick_1">
     <g id="line2d_1">
      <path d="M 75.277231 174.04 
L 75.277231 26.88 
" clip-path="url(#p83f0d914a7)" style="fill: none; stroke: #b0b0b0; stroke-opacity: 0.5; stroke-width: 0.4; stroke-linecap: square"/>
     </g>
     <g id="line2d_2">
      <defs>
       <path id="m28745dcd53" d="M 0 0 
L 0 3.5 
" style="stroke: #000000; stroke-width: 0.8"/>
      </defs>
      <g>
       <use xlink:href="#m28745dcd53" x="75.277231" y="174.04" style="stroke: #000000; stroke-width: 0.8"/>
      </g>
     </g>
     <g id="text_1">
      <!-- −2 -->
      <g transform="translate(67.906138 188.638438) scale(0.1 -0.1)">
       <defs>
        <path id="DejaVuSans-2212" d="M 678 2272 
L 4684 2272 
L 4684 1741 
L 678 1741 
L 678 2272 
z
" transform="scale(0.015625)"/>
        <path id="DejaVuSans-32" d="M 1228 531 
L 3431 531 
L 3431 0 
L 469 0 
L 469 531 
Q 828 903 1448 1529 
Q 2069 2156 2228 2338 
Q 2531 2678 2651 2914 
Q 2772 3150 2772 3378 
Q 2772 3750 2511 3984 
Q 2250 4219 1831 4219 
Q 1534 4219 1204 4116 
Q 875 4013 500 3803 
L 500 4441 
Q 881 4594 1212 4672 
Q 1544 4750 1819 4750 
Q 2544 4750 2975 4387 
Q 3406 4025 3406 3419 
Q 3406 3131 3298 2873 
Q 3191 2616 2906 2266 
Q 2828 2175 2409 1742 
Q 1991 1309 1228 531 
z
" transform="scale(0.015625)"/>
       </defs>
       <use xlink:href="#DejaVuSans-2212"/>
       <use xlink:href="#DejaVuSans-32" transform="translate(83.789062 0)"/>
      </g>
     </g>
    </g>
    <g id="xtick_2">
     <g id="line2d_3">
      <path d="M 120.961116 174.04 
L 120.961116 26.88 
" clip-path="url(#p83f0d914a7)" style="fill: none; stroke: #b0b0b0; stroke-opacity: 0.5; stroke-width: 0.4; stroke-linecap: square"/>
     </g>
     <g id="line2d_4">
      <g>
       <use xlink:href="#m28745dcd53" x="120.961116" y="174.04" style="stroke: #000000; stroke-width: 0.8"/>
      </g>
     </g>
     <g id="text_2">
      <!-- −1 -->
      <g transform="translate(113.590022 188.638438) scale(0.1 -0.1)">
       <defs>
        <path id="DejaVuSans-31" d="M 794 531 
L 1825 531 
L 1825 4091 
L 703 3866 
L 703 4441 
L 1819 4666 
L 2450 4666 
L 2450 531 
L 3481 531 
L 3481 0 
L 794 0 
L 794 531 
z
" transform="scale(0.015625)"/>
       </defs>
       <use xlink:href="#DejaVuSans-2212"/>
       <use xlink:href="#DejaVuSans-31" transform="translate(83.789062 0)"/>
      </g>
     </g>
    </g>
    <g id="xtick_3">
     <g id="line2d_5">
      <path d="M 166.645 174.04 
L 166.645 26.88 
" clip-path="url(#p83f0d914a7)" style="fill: none; stroke: #b0b0b0; stroke-opacity: 0.5; stroke-width: 0.4; stroke-linecap: square"/>
     </g>
     <g id="line2d_6">
      <g>
       <use xlink:href="#m28745dcd53" x="166.645" y="174.04" style="stroke: #000000; stroke-width: 0.8"/>
      </g>
     </g>
     <g id="text_3">
      <!-- 0 -->
      <g transform="translate(163.46375 188.638438) scale(0.1 -0.1)">
       <defs>
        <path id="DejaVuSans-30" d="M 2034 4250 
Q 1547 4250 1301 3770 
Q 1056 3291 1056 2328 
Q 1056 1369 1301 889 
Q 1547 409 2034 409 
Q 2525 409 2770 889 
Q 3016 1369 3016 2328 
Q 3016 3291 2770 3770 
Q 2525 4250 2034 4250 
z
M 2034 4750 
Q 2819 4750 3233 4129 
Q 3647 3509 3647 2328 
Q 3647 1150 3233 529 
Q 2819 -91 2034 -91 
Q 1250 -91 836 529 
Q 422 1150 422 2328 
Q 422 3509 836 4129 
Q 1250 4750 2034 4750 
z
" transform="scale(0.015625)"/>
       </defs>
       <use xlink:href="#DejaVuSans-30"/>
      </g>
     </g>
    </g>
    <g id="xtick_4">
     <g id="line2d_7">
      <path d="M 212.328884 174.04 
L 212.328884 26.88 
" clip-path="url(#p83f0d914a7)" style="fill: none; stroke: #b0b0b0; stroke-opacity: 0.5; stroke-width: 0.4; stroke-linecap: square"/>
     </g>
     <g id="line2d_8">
      <g>
       <use xlink:href="#m28745dcd53" x="212.328884" y="174.04" style="stroke: #000000; stroke-width: 0.8"/>
      </g>
     </g>
     <g id="text_4">
      <!-- 1 -->
      <g transform="translate(209.147634 188.638438) scale(0.1 -0.1)">
       <use xlink:href="#DejaVuSans-31"/>
      </g>
     </g>
    </g>
    <g id="xtick_5">
     <g id="line2d_9">
      <path d="M 258.012769 174.04 
L 258.012769 26.88 
" clip-path="url(#p83f0d914a7)" style="fill: none; stroke: #b0b0b0; stroke-opacity: 0.5; stroke-width: 0.4; stroke-linecap: square"/>
     </g>
     <g id="line2d_10">
      <g>
       <use xlink:href="#m28745dcd53" x="258.012769" y="174.04" style="stroke: #000000; stroke-width: 0.8"/>
      </g>
     </g>
     <g id="text_5">
      <!-- 2 -->
      <g transform="translate(254.831519 188.638438) scale(0.1 -0.1)">
       <use xlink:href="#DejaVuSans-32"/>
      </g>
     </g>
    </g>
    <g id="text_6">
     <!-- input -->
     <g transform="translate(153.784062 202.316563) scale(0.1 -0.1)">
      <defs>
       <path id="DejaVuSans-69" d="M 603 3500 
L 1178 3500 
L 1178 0 
L 603 0 
L 603 3500 
z
M 603 4863 
L 1178 4863 
L 1178 4134 
L 603 4134 
L 603 4863 
z
" transform="scale(0.015625)"/>
       <path id="DejaVuSans-6e" d="M 3513 2113 
L 3513 0 
L 2938 0 
L 2938 2094 
Q 2938 2591 2744 2837 
Q 2550 3084 2163 3084 
Q 1697 3084 1428 2787 
Q 1159 2491 1159 1978 
L 1159 0 
L 581 0 
L 581 3500 
L 1159 3500 
L 1159 2956 
Q 1366 3272 1645 3428 
Q 1925 3584 2291 3584 
Q 2894 3584 3203 3211 
Q 3513 2838 3513 2113 
z
" transform="scale(0.015625)"/>
       <path id="DejaVuSans-70" d="M 1159 525 
L 1159 -1331 
L 581 -1331 
L 581 3500 
L 1159 3500 
L 1159 2969 
Q 1341 3281 1617 3432 
Q 1894 3584 2278 3584 
Q 2916 3584 3314 3078 
Q 3713 2572 3713 1747 
Q 3713 922 3314 415 
Q 2916 -91 2278 -91 
Q 1894 -91 1617 61 
Q 1341 213 1159 525 
z
M 3116 1747 
Q 3116 2381 2855 2742 
Q 2594 3103 2138 3103 
Q 1681 3103 1420 2742 
Q 1159 2381 1159 1747 
Q 1159 1113 1420 752 
Q 1681 391 2138 391 
Q 2594 391 2855 752 
Q 3116 1113 3116 1747 
z
" transform="scale(0.015625)"/>
       <path id="DejaVuSans-75" d="M 544 1381 
L 544 3500 
L 1119 3500 
L 1119 1403 
Q 1119 906 1312 657 
Q 1506 409 1894 409 
Q 2359 409 2629 706 
Q 2900 1003 2900 1516 
L 2900 3500 
L 3475 3500 
L 3475 0 
L 2900 0 
L 2900 538 
Q 2691 219 2414 64 
Q 2138 -91 1772 -91 
Q 1169 -91 856 284 
Q 544 659 544 1381 
z
M 1991 3584 
L 1991 3584 
z
" transform="scale(0.015625)"/>
       <path id="DejaVuSans-74" d="M 1172 4494 
L 1172 3500 
L 2356 3500 
L 2356 3053 
L 1172 3053 
L 1172 1153 
Q 1172 725 1289 603 
Q 1406 481 1766 481 
L 2356 481 
L 2356 0 
L 1766 0 
Q 1100 0 847 248 
Q 594 497 594 1153 
L 594 3053 
L 172 3053 
L 172 3500 
L 594 3500 
L 594 4494 
L 1172 4494 
z
" transform="scale(0.015625)"/>
      </defs>
      <use xlink:href="#DejaVuSans-69"/>
      <use xlink:href="#DejaVuSans-6e" transform="translate(27.783203 0)"/>
      <use xlink:href="#DejaVuSans-70" transform="translate(91.162109 0)"/>
      <use xlink:href="#DejaVuSans-75" transform="translate(154.638672 0)"/>
      <use xlink:href="#DejaVuSans-74" transform="translate(218.017578 0)"/>
     </g>
    </g>
   </g>
   <g id="matplotlib.axis_2">
    <g id="ytick_1">
     <g id="line2d_11">
      <path d="M 56.09 167.350909 
L 277.2 167.350909 
" clip-path="url(#p83f0d914a7)" style="fill: none; stroke: #b0b0b0; stroke-opacity: 0.5; stroke-width: 0.4; stroke-linecap: square"/>
     </g>
     <g id="line2d_12">
      <defs>
       <path id="m5f0b7f7dcd" d="M 0 0 
L -3.5 0 
" style="stroke: #000000; stroke-width: 0.8"/>
      </defs>
      <g>
       <use xlink:href="#m5f0b7f7dcd" x="56.09" y="167.350909" style="stroke: #000000; stroke-width: 0.8"/>
      </g>
     </g>
     <g id="text_7">
      <!-- −1.0 -->
      <g transform="translate(24.807187 171.150128) scale(0.1 -0.1)">
       <defs>
        <path id="DejaVuSans-2e" d="M 684 794 
L 1344 794 
L 1344 0 
L 684 0 
L 684 794 
z
" transform="scale(0.015625)"/>
       </defs>
       <use xlink:href="#DejaVuSans-2212"/>
       <use xlink:href="#DejaVuSans-31" transform="translate(83.789062 0)"/>
       <use xlink:href="#DejaVuSans-2e" transform="translate(147.412109 0)"/>
       <use xlink:href="#DejaVuSans-30" transform="translate(179.199219 0)"/>
      </g>
     </g>
    </g>
    <g id="ytick_2">
     <g id="line2d_13">
      <path d="M 56.09 133.905455 
L 277.2 133.905455 
" clip-path="url(#p83f0d914a7)" style="fill: none; stroke: #b0b0b0; stroke-opacity: 0.5; stroke-width: 0.4; stroke-linecap: square"/>
     </g>
     <g id="line2d_14">
      <g>
       <use xlink:href="#m5f0b7f7dcd" x="56.09" y="133.905455" style="stroke: #000000; stroke-width: 0.8"/>
      </g>
     </g>
     <g id="text_8">
      <!-- −0.5 -->
      <g transform="translate(24.807187 137.704673) scale(0.1 -0.1)">
       <defs>
        <path id="DejaVuSans-35" d="M 691 4666 
L 3169 4666 
L 3169 4134 
L 1269 4134 
L 1269 2991 
Q 1406 3038 1543 3061 
Q 1681 3084 1819 3084 
Q 2600 3084 3056 2656 
Q 3513 2228 3513 1497 
Q 3513 744 3044 326 
Q 2575 -91 1722 -91 
Q 1428 -91 1123 -41 
Q 819 9 494 109 
L 494 744 
Q 775 591 1075 516 
Q 1375 441 1709 441 
Q 2250 441 2565 725 
Q 2881 1009 2881 1497 
Q 2881 1984 2565 2268 
Q 2250 2553 1709 2553 
Q 1456 2553 1204 2497 
Q 953 2441 691 2322 
L 691 4666 
z
" transform="scale(0.015625)"/>
       </defs>
       <use xlink:href="#DejaVuSans-2212"/>
       <use xlink:href="#DejaVuSans-30" transform="translate(83.789062 0)"/>
       <use xlink:href="#DejaVuSans-2e" transform="translate(147.412109 0)"/>
       <use xlink:href="#DejaVuSans-35" transform="translate(179.199219 0)"/>
      </g>
     </g>
    </g>
    <g id="ytick_3">
     <g id="line2d_15">
      <path d="M 56.09 100.46 
L 277.2 100.46 
" clip-path="url(#p83f0d914a7)" style="fill: none; stroke: #b0b0b0; stroke-opacity: 0.5; stroke-width: 0.4; stroke-linecap: square"/>
     </g>
     <g id="line2d_16">
      <g>
       <use xlink:href="#m5f0b7f7dcd" x="56.09" y="100.46" style="stroke: #000000; stroke-width: 0.8"/>
      </g>
     </g>
     <g id="text_9">
      <!-- 0.0 -->
      <g transform="translate(33.186875 104.259219) scale(0.1 -0.1)">
       <use xlink:href="#DejaVuSans-30"/>
       <use xlink:href="#DejaVuSans-2e" transform="translate(63.623047 0)"/>
       <use xlink:href="#DejaVuSans-30" transform="translate(95.410156 0)"/>
      </g>
     </g>
    </g>
    <g id="ytick_4">
     <g id="line2d_17">
      <path d="M 56.09 67.014545 
L 277.2 67.014545 
" clip-path="url(#p83f0d914a7)" style="fill: none; stroke: #b0b0b0; stroke-opacity: 0.5; stroke-width: 0.4; stroke-linecap: square"/>
     </g>
     <g id="line2d_18">
      <g>
       <use xlink:href="#m5f0b7f7dcd" x="56.09" y="67.014545" style="stroke: #000000; stroke-width: 0.8"/>
      </g>
     </g>
     <g id="text_10">
      <!-- 0.5 -->
      <g transform="translate(33.186875 70.813764) scale(0.1 -0.1)">
       <use xlink:href="#DejaVuSans-30"/>
       <use xlink:href="#DejaVuSans-2e" transform="translate(63.623047 0)"/>
       <use xlink:href="#DejaVuSans-35" transform="translate(95.410156 0)"/>
      </g>
     </g>
    </g>
    <g id="ytick_5">
     <g id="line2d_19">
      <path d="M 56.09 33.569091 
L 277.2 33.569091 
" clip-path="url(#p83f0d914a7)" style="fill: none; stroke: #b0b0b0; stroke-opacity: 0.5; stroke-width: 0.4; stroke-linecap: square"/>
     </g>
     <g id="line2d_20">
      <g>
       <use xlink:href="#m5f0b7f7dcd" x="56.09" y="33.569091" style="stroke: #000000; stroke-width: 0.8"/>
      </g>
     </g>
     <g id="text_11">
      <!-- 1.0 -->
      <g transform="translate(33.186875 37.36831) scale(0.1 -0.1)">
       <use xlink:href="#DejaVuSans-31"/>
       <use xlink:href="#DejaVuSans-2e" transform="translate(63.623047 0)"/>
       <use xlink:href="#DejaVuSans-30" transform="translate(95.410156 0)"/>
      </g>
     </g>
    </g>
    <g id="text_12">
     <!-- output -->
     <g transform="translate(18.7275 116.951406) rotate(-90) scale(0.1 -0.1)">
      <defs>
       <path id="DejaVuSans-6f" d="M 1959 3097 
Q 1497 3097 1228 2736 
Q 959 2375 959 1747 
Q 959 1119 1226 758 
Q 1494 397 1959 397 
Q 2419 397 2687 759 
Q 2956 1122 2956 1747 
Q 2956 2369 2687 2733 
Q 2419 3097 1959 3097 
z
M 1959 3584 
Q 2709 3584 3137 3096 
Q 3566 2609 3566 1747 
Q 3566 888 3137 398 
Q 2709 -91 1959 -91 
Q 1206 -91 779 398 
Q 353 888 353 1747 
Q 353 2609 779 3096 
Q 1206 3584 1959 3584 
z
" transform="scale(0.015625)"/>
      </defs>
      <use xlink:href="#DejaVuSans-6f"/>
      <use xlink:href="#DejaVuSans-75" transform="translate(61.181641 0)"/>
      <use xlink:href="#DejaVuSans-74" transform="translate(124.560547 0)"/>
      <use xlink:href="#DejaVuSans-70" transform="translate(163.769531 0)"/>
      <use xlink:href="#DejaVuSans-75" transform="translate(227.246094 0)"/>
      <use xlink:href="#DejaVuSans-74" transform="translate(290.625 0)"/>
     </g>
    </g>
   </g>
   <g id="line2d_21">
    <path d="M 66.140455 167.321797 
L 67.64928 167.317956 
L 67.816927 154.687183 
L 67.984575 167.31715 
L 73.349288 167.300214 
L 73.516935 155.242096 
L 73.684582 167.298281 
L 78.881648 167.273191 
L 79.049295 155.354335 
L 79.216943 167.271486 
L 83.240477 167.24177 
L 83.408125 161.565858 
L 83.575772 167.23883 
L 85.755187 167.218451 
L 85.922834 167.350909 
L 86.258128 167.212628 
L 90.114016 167.169098 
L 90.281663 165.03398 
L 90.44931 167.16355 
L 95.143434 167.081699 
L 95.311082 149.912962 
L 95.478729 167.074133 
L 97.658144 167.02377 
L 97.825791 152.122674 
L 97.993438 167.018022 
L 100.843442 166.936686 
L 107.884628 166.627217 
L 110.064042 166.511916 
L 110.23169 167.350909 
L 110.399337 166.489155 
L 111.405221 166.417814 
L 111.572868 167.350909 
L 111.740515 166.388809 
L 118.446406 165.731765 
L 118.614054 152.391597 
L 118.781701 165.694816 
L 119.787585 165.578578 
L 119.955232 167.350909 
L 120.122879 165.530645 
L 120.961116 165.41186 
L 122.805236 165.125973 
L 123.643472 164.94098 
L 124.314061 164.836323 
L 125.65524 164.542959 
L 125.822887 162.414596 
L 125.990534 164.481699 
L 126.661123 164.354084 
L 127.331712 164.186539 
L 127.49936 167.350909 
L 127.667007 164.067221 
L 129.175833 163.718359 
L 132.528778 162.652934 
L 132.696425 164.526274 
L 132.864073 162.451807 
L 133.199367 162.377903 
L 135.714077 161.341599 
L 135.881724 145.744075 
L 136.049371 161.165397 
L 136.71996 160.748868 
L 137.390549 160.499677 
L 138.061138 160.172223 
L 138.228786 163.643594 
L 138.396433 159.922566 
L 141.414084 157.998126 
L 141.581731 167.350909 
L 141.749379 157.69906 
L 141.917026 157.697164 
L 142.25232 157.28316 
L 142.587615 157.111958 
L 142.755262 167.093234 
L 142.92291 156.825607 
L 143.090557 156.826982 
L 143.258204 156.53896 
L 143.425851 156.543727 
L 143.761146 156.097599 
L 144.096441 155.984775 
L 144.264088 155.601203 
L 144.431735 155.68639 
L 144.599382 155.337085 
L 144.76703 155.369706 
L 144.934677 155.2312 
L 145.269972 154.687501 
L 147.617034 152.409617 
L 147.784681 152.093993 
L 147.952328 143.555965 
L 148.119975 151.880345 
L 148.45527 151.309533 
L 148.622917 151.157089 
L 148.790564 148.48866 
L 148.958212 150.800731 
L 149.293506 150.342799 
L 149.964095 149.176581 
L 150.131743 149.205326 
L 150.29939 149.004492 
L 150.467037 148.462181 
L 150.634685 148.476521 
L 150.802332 148.016417 
L 150.969979 147.977651 
L 151.137626 147.817387 
L 151.472921 147.074397 
L 151.640568 147.041027 
L 152.14351 145.966622 
L 152.311157 150.535629 
L 152.478805 145.507215 
L 152.981747 144.635623 
L 153.149394 144.58655 
L 153.652336 143.189939 
L 153.819983 143.058492 
L 154.658219 141.548504 
L 154.993514 140.689197 
L 155.161161 140.799254 
L 155.496456 139.712461 
L 155.999398 138.690645 
L 156.669987 137.213826 
L 156.837634 137.053295 
L 157.005281 136.141363 
L 157.508223 135.586931 
L 157.67587 134.546374 
L 157.843518 134.327052 
L 158.011165 133.657787 
L 158.178812 133.833329 
L 158.34646 133.152346 
L 158.514107 145.869164 
L 158.681754 132.427579 
L 158.849401 131.397707 
L 159.017049 131.118187 
L 159.519991 129.718236 
L 159.687638 129.806718 
L 159.855285 128.537407 
L 160.358227 127.698005 
L 160.693521 126.474372 
L 160.861169 126.264954 
L 161.028816 124.821646 
L 161.196463 125.068019 
L 161.364111 124.218261 
L 161.531758 123.989493 
L 161.699405 122.65093 
L 161.867052 122.927045 
L 162.202347 121.139269 
L 162.369994 120.575367 
L 162.537642 120.662183 
L 162.705289 119.303386 
L 163.040583 118.809635 
L 164.214114 113.473107 
L 164.381762 113.090226 
L 164.717056 111.347412 
L 164.884704 111.02646 
L 165.052351 109.571115 
L 165.219998 109.203424 
L 165.387645 109.142294 
L 165.72294 106.993156 
L 165.890587 106.978693 
L 166.058235 105.29843 
L 166.225882 104.765136 
L 166.561176 102.661708 
L 166.728824 102.615531 
L 167.064118 101.033388 
L 167.231765 100.447027 
L 167.902355 96.26432 
L 168.070002 96.130609 
L 168.572944 93.367306 
L 168.740591 93.102429 
L 169.075886 91.06539 
L 169.746475 88.638888 
L 169.914122 87.378507 
L 170.081769 87.134759 
L 170.249417 86.601005 
L 170.584711 84.436013 
L 170.752358 84.338141 
L 171.087653 83.141531 
L 171.2553 99.058914 
L 171.422948 81.271599 
L 172.261184 78.745154 
L 172.596479 77.177093 
L 172.764126 77.236032 
L 172.931773 76.709349 
L 173.267068 74.787577 
L 173.434715 74.84805 
L 173.937657 72.784085 
L 174.105304 72.828617 
L 174.440599 72.049831 
L 174.608246 70.997285 
L 174.775893 71.045925 
L 174.94354 69.83405 
L 175.111188 69.89258 
L 175.278835 69.554612 
L 175.61413 68.122976 
L 175.781777 67.760475 
L 175.949424 67.763598 
L 176.452366 66.058688 
L 176.620013 66.142811 
L 176.955308 64.784566 
L 177.122955 64.787585 
L 177.45825 64.091178 
L 177.625897 63.083666 
L 177.793544 63.244829 
L 178.128839 62.267343 
L 178.296486 62.181367 
L 178.799428 60.682663 
L 179.134722 60.414915 
L 179.30237 59.637179 
L 179.470017 59.712197 
L 180.308253 57.592135 
L 180.475901 61.565752 
L 180.643548 57.09467 
L 180.811195 57.186817 
L 181.314137 56.259652 
L 181.817079 55.310192 
L 182.152374 54.548427 
L 182.487668 54.331362 
L 182.655315 53.849839 
L 182.822963 53.774856 
L 182.99061 53.507269 
L 183.158257 52.884823 
L 183.325905 52.981456 
L 183.493552 52.539318 
L 183.661199 52.512702 
L 184.331788 51.283786 
L 184.499436 51.377736 
L 184.83473 50.578992 
L 185.002377 50.549224 
L 185.170025 50.187949 
L 185.337672 50.215523 
L 185.672966 49.820765 
L 186.846497 48.284892 
L 187.014145 48.241869 
L 187.181792 47.871842 
L 187.349439 47.851124 
L 187.684734 47.250158 
L 187.852381 47.308722 
L 189.025912 46.007652 
L 189.193559 46.001853 
L 189.361207 45.574039 
L 189.528854 45.61288 
L 189.864149 45.307113 
L 190.199443 44.890089 
L 190.36709 44.913897 
L 190.702385 44.598023 
L 190.870032 57.103078 
L 191.03768 44.18796 
L 191.205327 44.139814 
L 191.875916 43.528947 
L 192.378858 43.212952 
L 192.546505 42.991353 
L 192.8818 42.942826 
L 193.049447 42.66928 
L 193.217094 42.668492 
L 193.552389 42.283028 
L 193.887683 42.187283 
L 194.558272 41.754962 
L 195.228862 41.355239 
L 195.396509 41.187089 
L 195.564156 41.196602 
L 196.905334 40.335425 
L 197.072982 40.366992 
L 198.246513 39.667098 
L 198.41416 33.569091 
L 198.581807 39.567034 
L 198.749454 39.530266 
L 199.084749 39.331404 
L 199.420044 39.200923 
L 200.425927 38.802142 
L 200.593575 33.834678 
L 200.761222 38.640513 
L 200.928869 38.546639 
L 201.096516 52.872465 
L 201.264164 38.451311 
L 201.431811 38.40279 
L 201.599458 38.883424 
L 201.767106 38.306317 
L 203.443578 37.680966 
L 203.94652 37.526801 
L 204.952404 37.216818 
L 205.455346 37.095118 
L 206.461229 36.819915 
L 206.628877 36.824319 
L 206.796524 50.390189 
L 206.964171 36.736459 
L 212.161237 35.676122 
L 213.670063 35.474368 
L 214.173004 35.372569 
L 215.011241 35.261703 
L 217.693597 34.938963 
L 217.861245 48.540774 
L 218.028892 34.910351 
L 219.034776 34.831487 
L 220.208307 34.714393 
L 220.878896 34.659072 
L 221.046543 33.569091 
L 221.21419 34.634553 
L 224.734783 34.376714 
L 228.087729 34.190854 
L 236.973035 33.88475 
L 237.140682 33.569091 
L 237.308329 33.877089 
L 238.146566 33.85692 
L 238.314213 35.550995 
L 238.48186 33.852281 
L 239.655391 33.82949 
L 239.823039 43.038703 
L 239.990686 33.819234 
L 244.349515 33.750713 
L 244.517162 33.569091 
L 244.68481 33.742618 
L 261.281891 33.617987 
L 261.449538 38.43571 
L 261.617185 33.617119 
L 267.149545 33.600196 
L 267.149545 33.600196 
" clip-path="url(#p83f0d914a7)" style="fill: none; stroke: #ff5c8d; stroke-width: 1.5; stroke-linecap: square"/>
   </g>
   <g id="line2d_22">
    <path d="M 56.09 100.46 
L 277.2 100.46 
" clip-path="url(#p83f0d914a7)" style="fill: none; stroke: #888888; stroke-width: 0.6; stroke-linecap: square"/>
   </g>
   <g id="line2d_23">
    <path d="M 166.645 174.04 
L 166.645 26.88 
" clip-path="url(#p83f0d914a7)" style="fill: none; stroke: #888888; stroke-width: 0.6; stroke-linecap: square"/>
   </g>
   <g id="patch_3">
    <path d="M 56.09 174.04 
L 56.09 26.88 
" style="fill: none; stroke: #000000; stroke-width: 0.8; stroke-linejoin: miter; stroke-linecap: square"/>
   </g>
   <g id="patch_4">
    <path d="M 277.2 174.04 
L 277.2 26.88 
" style="fill: none; stroke: #000000; stroke-width: 0.8; stroke-linejoin: miter; stroke-linecap: square"/>
   </g>
   <g id="patch_5">
    <path d="M 56.09 174.04 
L 277.2 174.04 
" style="fill: none; stroke: #000000; stroke-width: 0.8; stroke-linejoin: miter; stroke-linecap: square"/>
   </g>
   <g id="patch_6">
    <path d="M 56.09 26.88 
L 277.2 26.88 
" style="fill: none; stroke: #000000; stroke-width: 0.8; stroke-linejoin: miter; stroke-linecap: square"/>
   </g>
   <g id="text_13">
    <!-- diode curve — chaos 6.0 -->
    <g transform="translate(92.440937 20.88) scale(0.12 -0.12)">
     <defs>
      <path id="DejaVuSans-64" d="M 2906 2969 
L 2906 4863 
L 3481 4863 
L 3481 0 
L 2906 0 
L 2906 525 
Q 2725 213 2448 61 
Q 2172 -91 1784 -91 
Q 1150 -91 751 415 
Q 353 922 353 1747 
Q 353 2572 751 3078 
Q 1150 3584 1784 3584 
Q 2172 3584 2448 3432 
Q 2725 3281 2906 2969 
z
M 947 1747 
Q 947 1113 1208 752 
Q 1469 391 1925 391 
Q 2381 391 2643 752 
Q 2906 1113 2906 1747 
Q 2906 2381 2643 2742 
Q 2381 3103 1925 3103 
Q 1469 3103 1208 2742 
Q 947 2381 947 1747 
z
" transform="scale(0.015625)"/>
      <path id="DejaVuSans-65" d="M 3597 1894 
L 3597 1613 
L 953 1613 
Q 991 1019 1311 708 
Q 1631 397 2203 397 
Q 2534 397 2845 478 
Q 3156 559 3463 722 
L 3463 178 
Q 3153 47 2828 -22 
Q 2503 -91 2169 -91 
Q 1331 -91 842 396 
Q 353 884 353 1716 
Q 353 2575 817 3079 
Q 1281 3584 2069 3584 
Q 2775 3584 3186 3129 
Q 3597 2675 3597 1894 
z
M 3022 2063 
Q 3016 2534 2758 2815 
Q 2500 3097 2075 3097 
Q 1594 3097 1305 2825 
Q 1016 2553 972 2059 
L 3022 2063 
z
" transform="scale(0.015625)"/>
      <path id="DejaVuSans-20" transform="scale(0.015625)"/>
      <path id="DejaVuSans-63" d="M 3122 3366 
L 3122 2828 
Q 2878 2963 2633 3030 
Q 2388 3097 2138 3097 
Q 1578 3097 1268 2742 
Q 959 2388 959 1747 
Q 959 1106 1268 751 
Q 1578 397 2138 397 
Q 2388 397 2633 464 
Q 2878 531 3122 666 
L 3122 134 
Q 2881 22 2623 -34 
Q 2366 -91 2075 -91 
Q 1284 -91 818 406 
Q 353 903 353 1747 
Q 353 2603 823 3093 
Q 1294 3584 2113 3584 
Q 2378 3584 2631 3529 
Q 2884 3475 3122 3366 
z
" transform="scale(0.015625)"/>
      <path id="DejaVuSans-72" d="M 2631 2963 
Q 2534 3019 2420 3045 
Q 2306 3072 2169 3072 
Q 1681 3072 1420 2755 
Q 1159 2438 1159 1844 
L 1159 0 
L 581 0 
L 581 3500 
L 1159 3500 
L 1159 2956 
Q 1341 3275 1631 3429 
Q 1922 3584 2338 3584 
Q 2397 3584 2469 3576 
Q 2541 3569 2628 3553 
L 2631 2963 
z
" transform="scale(0.015625)"/>
      <path id="DejaVuSans-76" d="M 191 3500 
L 800 3500 
L 1894 563 
L 2988 3500 
L 3597 3500 
L 2284 0 
L 1503 0 
L 191 3500 
z
" transform="scale(0.015625)"/>
      <path id="DejaVuSans-2014" d="M 313 1978 
L 6088 1978 
L 6088 1528 
L 313 1528 
L 313 1978 
z
" transform="scale(0.015625)"/>
      <path id="DejaVuSans-68" d="M 3513 2113 
L 3513 0 
L 2938 0 
L 2938 2094 
Q 2938 2591 2744 2837 
Q 2550 3084 2163 3084 
Q 1697 3084 1428 2787 
Q 1159 2491 1159 1978 
L 1159 0 
L 581 0 
L 581 4863 
L 1159 4863 
L 1159 2956 
Q 1366 3272 1645 3428 
Q 1925 3584 2291 3584 
Q 2894 3584 3203 3211 
Q 3513 2838 3513 2113 
z
" transform="scale(0.015625)"/>
      <path id="DejaVuSans-61" d="M 2194 1759 
Q 1497 1759 1228 1600 
Q 959 1441 959 1056 
Q 959 750 1161 570 
Q 1363 391 1709 391 
Q 2188 391 2477 730 
Q 2766 1069 2766 1631 
L 2766 1759 
L 2194 1759 
z
M 3341 1997 
L 3341 0 
L 2766 0 
L 2766 531 
Q 2569 213 2275 61 
Q 1981 -91 1556 -91 
Q 1019 -91 701 211 
Q 384 513 384 1019 
Q 384 1609 779 1909 
Q 1175 2209 1959 2209 
L 2766 2209 
L 2766 2266 
Q 2766 2663 2505 2880 
Q 2244 3097 1772 3097 
Q 1472 3097 1187 3025 
Q 903 2953 641 2809 
L 641 3341 
Q 956 3463 1253 3523 
Q 1550 3584 1831 3584 
Q 2591 3584 2966 3190 
Q 3341 2797 3341 1997 
z
" transform="scale(0.015625)"/>
      <path id="DejaVuSans-73" d="M 2834 3397 
L 2834 2853 
Q 2591 2978 2328 3040 
Q 2066 3103 1784 3103 
Q 1356 3103 1142 2972 
Q 928 2841 928 2578 
Q 928 2378 1081 2264 
Q 1234 2150 1697 2047 
L 1894 2003 
Q 2506 1872 2764 1633 
Q 3022 1394 3022 966 
Q 3022 478 2636 193 
Q 2250 -91 1575 -91 
Q 1294 -91 989 -36 
Q 684 19 347 128 
L 347 722 
Q 666 556 975 473 
Q 1284 391 1588 391 
Q 1994 391 2212 530 
Q 2431 669 2431 922 
Q 2431 1156 2273 1281 
Q 2116 1406 1581 1522 
L 1381 1569 
Q 847 1681 609 1914 
Q 372 2147 372 2553 
Q 372 3047 722 3315 
Q 1072 3584 1716 3584 
Q 2034 3584 2315 3537 
Q 2597 3491 2834 3397 
z
" transform="scale(0.015625)"/>
      <path id="DejaVuSans-36" d="M 2113 2584 
Q 1688 2584 1439 2293 
Q 1191 2003 1191 1497 
Q 1191 994 1439 701 
Q 1688 409 2113 409 
Q 2538 409 2786 701 
Q 3034 994 3034 1497 
Q 3034 2003 2786 2293 
Q 2538 2584 2113 2584 
z
M 3366 4563 
L 3366 3988 
Q 3128 4100 2886 4159 
Q 2644 4219 2406 4219 
Q 1781 4219 1451 3797 
Q 1122 3375 1075 2522 
Q 1259 2794 1537 2939 
Q 1816 3084 2150 3084 
Q 2853 3084 3261 2657 
Q 3669 2231 3669 1497 
Q 3669 778 3244 343 
Q 2819 -91 2113 -91 
Q 1303 -91 875 529 
Q 447 1150 447 2328 
Q 447 3434 972 4092 
Q 1497 4750 2381 4750 
Q 2619 4750 2861 4703 
Q 3103 4656 3366 4563 
z
" transform="scale(0.015625)"/>
     </defs>
     <use xlink:href="#DejaVuSans-64"/>
     <use xlink:href="#DejaVuSans-69" transform="translate(63.476562 0)"/>
     <use xlink:href="#DejaVuSans-6f" transform="translate(91.259766 0)"/>
     <use xlink:href="#DejaVuSans-64" transform="translate(152.441406 0)"/>
     <use xlink:href="#DejaVuSans-65" transform="translate(215.917969 0)"/>
     <use xlink:href="#DejaVuSans-20" transform="translate(277.441406 0)"/>
     <use xlink:href="#DejaVuSans-63" transform="translate(309.228516 0)"/>
     <use xlink:href="#DejaVuSans-75" transform="translate(364.208984 0)"/>
     <use xlink:href="#DejaVuSans-72" transform="translate(427.587891 0)"/>
     <use xlink:href="#DejaVuSans-76" transform="translate(468.701172 0)"/>
     <use xlink:href="#DejaVuSans-65" transform="translate(527.880859 0)"/>
     <use xlink:href="#DejaVuSans-20" transform="translate(589.404297 0)"/>
     <use xlink:href="#DejaVuSans-2014" transform="translate(621.191406 0)"/>
     <use xlink:href="#DejaVuSans-20" transform="translate(721.191406 0)"/>
     <use xlink:href="#DejaVuSans-63" transform="translate(752.978516 0)"/>
     <use xlink:href="#DejaVuSans-68" transform="translate(807.958984 0)"/>
     <use xlink:href="#DejaVuSans-61" transform="translate(871.337891 0)"/>
     <use xlink:href="#DejaVuSans-6f" transform="translate(932.617188 0)"/>
     <use xlink:href="#DejaVuSans-73" transform="translate(993.798828 0)"/>
     <use xlink:href="#DejaVuSans-20" transform="translate(1045.898438 0)"/>
     <use xlink:href="#DejaVuSans-36" transform="translate(1077.685547 0)"/>
     <use xlink:href="#DejaVuSans-2e" transform="translate(1141.308594 0)"/>
     <use xlink:href="#DejaVuSans-30" transform="translate(1173.095703 0)"/>
    </g>
   </g>
  </g>
 </g>
 <defs>
  <clipPath id="p83f0d914a7">
   <rect x="56.09" y="26.88" width="221.11" height="147.16"/>
  </clipPath>
 </defs>
</svg>
