<?xml version="1.0" encoding="utf-8" standalone="no"?>
<!DOCTYPE svg PUBLIC "-//W3C//DTD SVG 1.1//EN"
  "http://www.w3.org/Graphics/SVG/1.1/DTD/svg11.dtd">
<svg xmlns:xlink="http://www.w3.org/1999/xlink" width="288pt" height="216pt" viewBox="0 0 288 216" xmlns="http://www.w3.org/2000/svg" version="1.1">
 <metadata>
  <rdf:RDF xmlns:dc="http://purl.org/dc/elements/1.1/" xmlns:cc="http://creativecommons.org/ns#" xmlns:rdf="http://www.w3.org/1999/02/22-rdf-syntax-ns#">
   <cc:Work>
    <dc:type rdf:resource="http://purl.org/dc/dcmitype/StillImage"/>
    <dc:date>2025-11-23T14:28:30.274346</dc:date>
    <dc:format>image/svg+xml</dc:format>
    <dc:creator>
     <cc:Agent>
      <dc:title>Matplotlib v3.10.7, https://matplotlib.org/</dc:title>
     </cc:Agent>
    </dc:creator>
   </cc:Work>
  </rdf:RDF>
 </metadata>
 <defs>
  <style type="text/css">*{stroke-linejoin: round; stroke-linecap: butt}</style>
 </defs>
 <g id="figure_1">
  <g id="patch_1">
   <path d="M 0 216 
L 288 216 
L 288 0 
L 0 0 
z
" style="fill: #ffffff"/>
  </g>
  <g id="axes_1">
   <g id="patch_2">
    <path d="M 56.09 174.04 
L 277.2 174.04 
L 277.2 26.88 
L 56.09 26.88 
z
" style="fill: #ffffff"/>
   </g>
   <g id="matplotlib.axis_1">
    <g id="xtick_1">
     <g id="line2d_1">
      <path d="M 75.277231 174.04 
L 75.277231 26.88 
" clip-path="url(#pcbb6acfcff)" style="fill: none; stroke: #b0b0b0; stroke-opacity: 0.5; stroke-width: 0.4; stroke-linecap: square"/>
     </g>
     <g id="line2d_2">
      <defs>
       <path id="mc954c40e1a" d="M 0 0 
L 0 3.5 
" style="stroke: #000000; stroke-width: 0.8"/>
      </defs>
      <g>
       <use xlink:href="#mc954c40e1a" x="75.277231" y="174.04" style="stroke: #000000; stroke-width: 0.8"/>
      </g>
     </g>
     <g id="text_1">
      <!-- −2 -->
      <g transform="translate(67.906138 188.638438) scale(0.1 -0.1)">
       <defs>
        <path id="DejaVuSans-2212" d="M 678 2272 
L 4684 2272 
L 4684 1741 
L 678 1741 
L 678 2272 
z
" transform="scale(0.015625)"/>
        <path id="DejaVuSans-32" d="M 1228 531 
L 3431 531 
L 3431 0 
L 469 0 
L 469 531 
Q 828 903 1448 1529 
Q 2069 2156 2228 2338 
Q 2531 2678 2651 2914 
Q 2772 3150 2772 3378 
Q 2772 3750 2511 3984 
Q 2250 4219 1831 4219 
Q 1534 4219 1204 4116 
Q 875 4013 500 3803 
L 500 4441 
Q 881 4594 1212 4672 
Q 1544 4750 1819 4750 
Q 2544 4750 2975 4387 
Q 3406 4025 3406 3419 
Q 3406 3131 3298 2873 
Q 3191 2616 2906 2266 
Q 2828 2175 2409 1742 
Q 1991 1309 1228 531 
z
" transform="scale(0.015625)"/>
       </defs>
       <use xlink:href="#DejaVuSans-2212"/>
       <use xlink:href="#DejaVuSans-32" transform="translate(83.789062 0)"/>
      </g>
     </g>
    </g>
    <g id="xtick_2">
     <g id="line2d_3">
      <path d="M 120.961116 174.04 
L 120.961116 26.88 
" clip-path="url(#pcbb6acfcff)" style="fill: none; stroke: #b0b0b0; stroke-opacity: 0.5; stroke-width: 0.4; stroke-linecap: square"/>
     </g>
     <g id="line2d_4">
      <g>
       <use xlink:href="#mc954c40e1a" x="120.961116" y="174.04" style="stroke: #000000; stroke-width: 0.8"/>
      </g>
     </g>
     <g id="text_2">
      <!-- −1 -->
      <g transform="translate(113.590022 188.638438) scale(0.1 -0.1)">
       <defs>
        <path id="DejaVuSans-31" d="M 794 531 
L 1825 531 
L 1825 4091 
L 703 3866 
L 703 4441 
L 1819 4666 
L 2450 4666 
L 2450 531 
L 3481 531 
L 3481 0 
L 794 0 
L 794 531 
z
" transform="scale(0.015625)"/>
       </defs>
       <use xlink:href="#DejaVuSans-2212"/>
       <use xlink:href="#DejaVuSans-31" transform="translate(83.789062 0)"/>
      </g>
     </g>
    </g>
    <g id="xtick_3">
     <g id="line2d_5">
      <path d="M 166.645 174.04 
L 166.645 26.88 
" clip-path="url(#pcbb6acfcff)" style="fill: none; stroke: #b0b0b0; stroke-opacity: 0.5; stroke-width: 0.4; stroke-linecap: square"/>
     </g>
     <g id="line2d_6">
      <g>
       <use xlink:href="#mc954c40e1a" x="166.645" y="174.04" style="stroke: #000000; stroke-width: 0.8"/>
      </g>
     </g>
     <g id="text_3">
      <!-- 0 -->
      <g transform="translate(163.46375 188.638438) scale(0.1 -0.1)">
       <defs>
        <path id="DejaVuSans-30" d="M 2034 4250 
Q 1547 4250 1301 3770 
Q 1056 3291 1056 2328 
Q 1056 1369 1301 889 
Q 1547 409 2034 409 
Q 2525 409 2770 889 
Q 3016 1369 3016 2328 
Q 3016 3291 2770 3770 
Q 2525 4250 2034 4250 
z
M 2034 4750 
Q 2819 4750 3233 4129 
Q 3647 3509 3647 2328 
Q 3647 1150 3233 529 
Q 2819 -91 2034 -91 
Q 1250 -91 836 529 
Q 422 1150 422 2328 
Q 422 3509 836 4129 
Q 1250 4750 2034 4750 
z
" transform="scale(0.015625)"/>
       </defs>
       <use xlink:href="#DejaVuSans-30"/>
      </g>
     </g>
    </g>
    <g id="xtick_4">
     <g id="line2d_7">
      <path d="M 212.328884 174.04 
L 212.328884 26.88 
" clip-path="url(#pcbb6acfcff)" style="fill: none; stroke: #b0b0b0; stroke-opacity: 0.5; stroke-width: 0.4; stroke-linecap: square"/>
     </g>
     <g id="line2d_8">
      <g>
       <use xlink:href="#mc954c40e1a" x="212.328884" y="174.04" style="stroke: #000000; stroke-width: 0.8"/>
      </g>
     </g>
     <g id="text_4">
      <!-- 1 -->
      <g transform="translate(209.147634 188.638438) scale(0.1 -0.1)">
       <use xlink:href="#DejaVuSans-31"/>
      </g>
     </g>
    </g>
    <g id="xtick_5">
     <g id="line2d_9">
      <path d="M 258.012769 174.04 
L 258.012769 26.88 
" clip-path="url(#pcbb6acfcff)" style="fill: none; stroke: #b0b0b0; stroke-opacity: 0.5; stroke-width: 0.4; stroke-linecap: square"/>
     </g>
     <g id="line2d_10">
      <g>
       <use xlink:href="#mc954c40e1a" x="258.012769" y="174.04" style="stroke: #000000; stroke-width: 0.8"/>
      </g>
     </g>
     <g id="text_5">
      <!-- 2 -->
      <g transform="translate(254.831519 188.638438) scale(0.1 -0.1)">
       <use xlink:href="#DejaVuSans-32"/>
      </g>
     </g>
    </g>
    <g id="text_6">
     <!-- input -->
     <g transform="translate(153.784062 202.316563) scale(0.1 -0.1)">
      <defs>
       <path id="DejaVuSans-69" d="M 603 3500 
L 1178 3500 
L 1178 0 
L 603 0 
L 603 3500 
z
M 603 4863 
L 1178 4863 
L 1178 4134 
L 603 4134 
L 603 4863 
z
" transform="scale(0.015625)"/>
       <path id="DejaVuSans-6e" d="M 3513 2113 
L 3513 0 
L 2938 0 
L 2938 2094 
Q 2938 2591 2744 2837 
Q 2550 3084 2163 3084 
Q 1697 3084 1428 2787 
Q 1159 2491 1159 1978 
L 1159 0 
L 581 0 
L 581 3500 
L 1159 3500 
L 1159 2956 
Q 1366 3272 1645 3428 
Q 1925 3584 2291 3584 
Q 2894 3584 3203 3211 
Q 3513 2838 3513 2113 
z
" transform="scale(0.015625)"/>
       <path id="DejaVuSans-70" d="M 1159 525 
L 1159 -1331 
L 581 -1331 
L 581 3500 
L 1159 3500 
L 1159 2969 
Q 1341 3281 1617 3432 
Q 1894 3584 2278 3584 
Q 2916 3584 3314 3078 
Q 3713 2572 3713 1747 
Q 3713 922 3314 415 
Q 2916 -91 2278 -91 
Q 1894 -91 1617 61 
Q 1341 213 1159 525 
z
M 3116 1747 
Q 3116 2381 2855 2742 
Q 2594 3103 2138 3103 
Q 1681 3103 1420 2742 
Q 1159 2381 1159 1747 
Q 1159 1113 1420 752 
Q 1681 391 2138 391 
Q 2594 391 2855 752 
Q 3116 1113 3116 1747 
z
" transform="scale(0.015625)"/>
       <path id="DejaVuSans-75" d="M 544 1381 
L 544 3500 
L 1119 3500 
L 1119 1403 
Q 1119 906 1312 657 
Q 1506 409 1894 409 
Q 2359 409 2629 706 
Q 2900 1003 2900 1516 
L 2900 3500 
L 3475 3500 
L 3475 0 
L 2900 0 
L 2900 538 
Q 2691 219 2414 64 
Q 2138 -91 1772 -91 
Q 1169 -91 856 284 
Q 544 659 544 1381 
z
M 1991 3584 
L 1991 3584 
z
" transform="scale(0.015625)"/>
       <path id="DejaVuSans-74" d="M 1172 4494 
L 1172 3500 
L 2356 3500 
L 2356 3053 
L 1172 3053 
L 1172 1153 
Q 1172 725 1289 603 
Q 1406 481 1766 481 
L 2356 481 
L 2356 0 
L 1766 0 
Q 1100 0 847 248 
Q 594 497 594 1153 
L 594 3053 
L 172 3053 
L 172 3500 
L 594 3500 
L 594 4494 
L 1172 4494 
z
" transform="scale(0.015625)"/>
      </defs>
      <use xlink:href="#DejaVuSans-69"/>
      <use xlink:href="#DejaVuSans-6e" transform="translate(27.783203 0)"/>
      <use xlink:href="#DejaVuSans-70" transform="translate(91.162109 0)"/>
      <use xlink:href="#DejaVuSans-75" transform="translate(154.638672 0)"/>
      <use xlink:href="#DejaVuSans-74" transform="translate(218.017578 0)"/>
     </g>
    </g>
   </g>
   <g id="matplotlib.axis_2">
    <g id="ytick_1">
     <g id="line2d_11">
      <path d="M 56.09 167.350909 
L 277.2 167.350909 
" clip-path="url(#pcbb6acfcff)" style="fill: none; stroke: #b0b0b0; stroke-opacity: 0.5; stroke-width: 0.4; stroke-linecap: square"/>
     </g>
     <g id="line2d_12">
      <defs>
       <path id="mc25adc28f9" d="M 0 0 
L -3.5 0 
" style="stroke: #000000; stroke-width: 0.8"/>
      </defs>
      <g>
       <use xlink:href="#mc25adc28f9" x="56.09" y="167.350909" style="stroke: #000000; stroke-width: 0.8"/>
      </g>
     </g>
     <g id="text_7">
      <!-- −1.0 -->
      <g transform="translate(24.807187 171.150128) scale(0.1 -0.1)">
       <defs>
        <path id="DejaVuSans-2e" d="M 684 794 
L 1344 794 
L 1344 0 
L 684 0 
L 684 794 
z
" transform="scale(0.015625)"/>
       </defs>
       <use xlink:href="#DejaVuSans-2212"/>
       <use xlink:href="#DejaVuSans-31" transform="translate(83.789062 0)"/>
       <use xlink:href="#DejaVuSans-2e" transform="translate(147.412109 0)"/>
       <use xlink:href="#DejaVuSans-30" transform="translate(179.199219 0)"/>
      </g>
     </g>
    </g>
    <g id="ytick_2">
     <g id="line2d_13">
      <path d="M 56.09 133.904424 
L 277.2 133.904424 
" clip-path="url(#pcbb6acfcff)" style="fill: none; stroke: #b0b0b0; stroke-opacity: 0.5; stroke-width: 0.4; stroke-linecap: square"/>
     </g>
     <g id="line2d_14">
      <g>
       <use xlink:href="#mc25adc28f9" x="56.09" y="133.904424" style="stroke: #000000; stroke-width: 0.8"/>
      </g>
     </g>
     <g id="text_8">
      <!-- −0.5 -->
      <g transform="translate(24.807187 137.703642) scale(0.1 -0.1)">
       <defs>
        <path id="DejaVuSans-35" d="M 691 4666 
L 3169 4666 
L 3169 4134 
L 1269 4134 
L 1269 2991 
Q 1406 3038 1543 3061 
Q 1681 3084 1819 3084 
Q 2600 3084 3056 2656 
Q 3513 2228 3513 1497 
Q 3513 744 3044 326 
Q 2575 -91 1722 -91 
Q 1428 -91 1123 -41 
Q 819 9 494 109 
L 494 744 
Q 775 591 1075 516 
Q 1375 441 1709 441 
Q 2250 441 2565 725 
Q 2881 1009 2881 1497 
Q 2881 1984 2565 2268 
Q 2250 2553 1709 2553 
Q 1456 2553 1204 2497 
Q 953 2441 691 2322 
L 691 4666 
z
" transform="scale(0.015625)"/>
       </defs>
       <use xlink:href="#DejaVuSans-2212"/>
       <use xlink:href="#DejaVuSans-30" transform="translate(83.789062 0)"/>
       <use xlink:href="#DejaVuSans-2e" transform="translate(147.412109 0)"/>
       <use xlink:href="#DejaVuSans-35" transform="translate(179.199219 0)"/>
      </g>
     </g>
    </g>
    <g id="ytick_3">
     <g id="line2d_15">
      <path d="M 56.09 100.457938 
L 277.2 100.457938 
" clip-path="url(#pcbb6acfcff)" style="fill: none; stroke: #b0b0b0; stroke-opacity: 0.5; stroke-width: 0.4; stroke-linecap: square"/>
     </g>
     <g id="line2d_16">
      <g>
       <use xlink:href="#mc25adc28f9" x="56.09" y="100.457938" style="stroke: #000000; stroke-width: 0.8"/>
      </g>
     </g>
     <g id="text_9">
      <!-- 0.0 -->
      <g transform="translate(33.186875 104.257157) scale(0.1 -0.1)">
       <use xlink:href="#DejaVuSans-30"/>
       <use xlink:href="#DejaVuSans-2e" transform="translate(63.623047 0)"/>
       <use xlink:href="#DejaVuSans-30" transform="translate(95.410156 0)"/>
      </g>
     </g>
    </g>
    <g id="ytick_4">
     <g id="line2d_17">
      <path d="M 56.09 67.011452 
L 277.2 67.011452 
" clip-path="url(#pcbb6acfcff)" style="fill: none; stroke: #b0b0b0; stroke-opacity: 0.5; stroke-width: 0.4; stroke-linecap: square"/>
     </g>
     <g id="line2d_18">
      <g>
       <use xlink:href="#mc25adc28f9" x="56.09" y="67.011452" style="stroke: #000000; stroke-width: 0.8"/>
      </g>
     </g>
     <g id="text_10">
      <!-- 0.5 -->
      <g transform="translate(33.186875 70.810671) scale(0.1 -0.1)">
       <use xlink:href="#DejaVuSans-30"/>
       <use xlink:href="#DejaVuSans-2e" transform="translate(63.623047 0)"/>
       <use xlink:href="#DejaVuSans-35" transform="translate(95.410156 0)"/>
      </g>
     </g>
    </g>
    <g id="ytick_5">
     <g id="line2d_19">
      <path d="M 56.09 33.564967 
L 277.2 33.564967 
" clip-path="url(#pcbb6acfcff)" style="fill: none; stroke: #b0b0b0; stroke-opacity: 0.5; stroke-width: 0.4; stroke-linecap: square"/>
     </g>
     <g id="line2d_20">
      <g>
       <use xlink:href="#mc25adc28f9" x="56.09" y="33.564967" style="stroke: #000000; stroke-width: 0.8"/>
      </g>
     </g>
     <g id="text_11">
      <!-- 1.0 -->
      <g transform="translate(33.186875 37.364185) scale(0.1 -0.1)">
       <use xlink:href="#DejaVuSans-31"/>
       <use xlink:href="#DejaVuSans-2e" transform="translate(63.623047 0)"/>
       <use xlink:href="#DejaVuSans-30" transform="translate(95.410156 0)"/>
      </g>
     </g>
    </g>
    <g id="text_12">
     <!-- output -->
     <g transform="translate(18.7275 116.951406) rotate(-90) scale(0.1 -0.1)">
      <defs>
       <path id="DejaVuSans-6f" d="M 1959 3097 
Q 1497 3097 1228 2736 
Q 959 2375 959 1747 
Q 959 1119 1226 758 
Q 1494 397 1959 397 
Q 2419 397 2687 759 
Q 2956 1122 2956 1747 
Q 2956 2369 2687 2733 
Q 2419 3097 1959 3097 
z
M 1959 3584 
Q 2709 3584 3137 3096 
Q 3566 2609 3566 1747 
Q 3566 888 3137 398 
Q 2709 -91 1959 -91 
Q 1206 -91 779 398 
Q 353 888 353 1747 
Q 353 2609 779 3096 
Q 1206 3584 1959 3584 
z
" transform="scale(0.015625)"/>
      </defs>
      <use xlink:href="#DejaVuSans-6f"/>
      <use xlink:href="#DejaVuSans-75" transform="translate(61.181641 0)"/>
      <use xlink:href="#DejaVuSans-74" transform="translate(124.560547 0)"/>
      <use xlink:href="#DejaVuSans-70" transform="translate(163.769531 0)"/>
      <use xlink:href="#DejaVuSans-75" transform="translate(227.246094 0)"/>
      <use xlink:href="#DejaVuSans-74" transform="translate(290.625 0)"/>
     </g>
    </g>
   </g>
   <g id="line2d_21">
    <path d="M 66.140455 153.59313 
L 66.475749 154.057671 
L 66.643396 154.468489 
L 66.811044 154.567095 
L 68.487516 157.069371 
L 68.990458 157.930368 
L 69.661047 158.723413 
L 69.996342 159.378682 
L 71.672815 161.803438 
L 71.840462 164.571153 
L 72.008109 162.226792 
L 72.175757 167.350909 
L 72.343404 162.732558 
L 72.846346 163.5312 
L 73.349288 164.171654 
L 73.516935 156.253063 
L 73.684582 164.774636 
L 73.85223 164.902232 
L 74.690466 166.227842 
L 74.858113 166.378289 
L 75.361055 167.131652 
L 75.528702 167.329881 
L 77.037528 165.024185 
L 77.205175 164.913085 
L 78.881648 162.396905 
L 79.049295 153.996657 
L 79.216943 161.944021 
L 79.719884 161.272823 
L 79.887532 167.350909 
L 80.055179 160.68367 
L 81.22871 158.91019 
L 81.396357 158.76769 
L 81.731652 158.163335 
L 82.066946 157.702635 
L 82.402241 157.191392 
L 83.240477 155.960987 
L 83.408125 151.782496 
L 83.575772 155.461483 
L 83.743419 155.340625 
L 84.078714 154.69331 
L 84.246361 154.610056 
L 84.581656 154.147641 
L 85.755187 152.269411 
L 85.922834 162.879152 
L 86.090481 151.86893 
L 86.258128 151.490045 
L 86.425776 151.387955 
L 87.096365 150.375284 
L 87.599307 149.571364 
L 87.934601 149.158185 
L 88.102248 148.972785 
L 88.437543 148.437934 
L 88.772838 147.812376 
L 88.940485 147.774393 
L 89.108132 147.349388 
L 89.275779 147.252897 
L 89.778721 146.344468 
L 90.44931 145.51902 
L 91.455194 144.05085 
L 92.125783 142.912917 
L 92.96402 141.878237 
L 93.131667 141.45348 
L 93.299314 141.375732 
L 93.466961 140.966339 
L 93.634609 140.883329 
L 94.472845 139.4805 
L 94.640492 139.418968 
L 95.143434 138.618546 
L 95.311082 126.563721 
L 95.478729 138.108201 
L 96.484613 136.636709 
L 96.819907 136.162072 
L 97.658144 134.915013 
L 97.825791 124.459968 
L 97.993438 134.503103 
L 98.328733 133.820645 
L 98.664027 133.497031 
L 99.334616 132.350347 
L 99.502264 132.252667 
L 100.172853 131.186408 
L 100.3405 131.044355 
L 100.675795 130.534919 
L 101.346384 129.550537 
L 101.681678 129.042884 
L 102.18462 128.213935 
L 105.87286 122.832486 
L 106.040508 122.71911 
L 107.214039 120.816652 
L 107.381686 120.651508 
L 107.884628 119.840529 
L 111.405221 114.834401 
L 111.572868 124.435899 
L 111.740515 114.296391 
L 113.91993 111.052967 
L 114.255224 110.627394 
L 115.931697 108.138235 
L 116.266992 107.712157 
L 116.602286 107.079542 
L 116.937581 106.73251 
L 117.272876 106.201313 
L 117.775817 105.395527 
L 118.446406 104.412516 
L 118.614054 95.136814 
L 118.781701 103.951418 
L 119.787585 102.566747 
L 119.955232 105.693394 
L 120.122879 102.066251 
L 120.625821 101.250998 
L 120.961116 100.848455 
L 121.128763 100.642424 
L 121.29641 167.198307 
L 121.464058 167.032004 
L 121.966999 166.153605 
L 122.637589 165.27915 
L 123.308178 164.333967 
L 123.643472 163.700092 
L 123.811119 163.565394 
L 124.98465 161.75158 
L 128.505243 156.569919 
L 129.008185 155.947761 
L 129.511127 155.135146 
L 129.846422 154.727882 
L 130.181716 154.102875 
L 135.211135 146.741122 
L 135.714077 146.131292 
L 135.881724 135.215689 
L 136.049371 145.609642 
L 136.71996 144.495919 
L 137.390549 143.650911 
L 138.061138 142.713798 
L 138.228786 144.831299 
L 138.396433 142.141627 
L 140.743495 138.701468 
L 141.07879 138.217044 
L 142.587615 136.006613 
L 142.755262 142.691511 
L 142.92291 135.497548 
L 143.090557 135.376057 
L 143.425851 134.876772 
L 143.928793 134.085435 
L 144.096441 133.903924 
L 144.264088 133.464017 
L 144.431735 133.410813 
L 144.599382 133.006107 
L 144.76703 132.909351 
L 144.934677 132.676774 
L 145.269972 132.011937 
L 147.784681 128.390381 
L 147.952328 122.435851 
L 148.119975 128.012013 
L 148.45527 127.420294 
L 148.622917 127.207169 
L 148.790564 125.299 
L 148.958212 126.75368 
L 149.461154 125.973913 
L 149.964095 125.122663 
L 150.29939 124.787125 
L 150.634685 124.270524 
L 150.969979 123.775746 
L 151.137626 123.574279 
L 151.472921 122.97206 
L 151.640568 122.833606 
L 152.14351 121.97278 
L 152.311157 125.002775 
L 152.478805 121.524177 
L 153.98763 119.2961 
L 156.837634 115.206598 
L 157.172929 114.623977 
L 157.508223 114.26398 
L 157.843518 113.646793 
L 158.011165 113.332324 
L 158.178812 113.259502 
L 159.017049 111.901453 
L 159.519991 111.170962 
L 159.687638 111.070717 
L 160.022932 110.429276 
L 168.237649 98.484289 
L 168.572944 97.975313 
L 168.740591 97.810151 
L 169.243533 97.007789 
L 170.249417 95.6004 
L 170.752358 94.815468 
L 171.087653 94.342057 
L 171.2553 105.788367 
L 171.422948 93.729134 
L 172.931773 91.663826 
L 173.267068 90.982877 
L 173.434715 90.874147 
L 174.105304 89.903865 
L 176.117071 86.937144 
L 176.452366 86.376783 
L 176.620013 86.278755 
L 177.122955 85.504447 
L 178.967075 82.754303 
L 179.134722 82.589549 
L 179.30237 82.185875 
L 179.470017 82.090596 
L 180.308253 80.668718 
L 180.475901 83.222377 
L 180.643548 80.223274 
L 180.811195 80.137892 
L 182.152374 78.023961 
L 182.822963 77.173979 
L 189.025912 67.996302 
L 189.193559 67.869107 
L 189.361207 67.411748 
L 189.696501 67.110976 
L 190.702385 65.619502 
L 190.870032 74.003242 
L 191.03768 65.011946 
L 191.372974 64.553179 
L 192.043563 63.581984 
L 192.378858 63.10967 
L 192.714152 62.636398 
L 192.8818 62.469962 
L 193.217094 61.940637 
L 193.552389 61.281522 
L 193.887683 60.930464 
L 194.893567 59.374487 
L 195.061214 59.252729 
L 196.905334 56.409373 
L 197.072982 56.331113 
L 198.246513 54.433643 
L 198.41416 54.3304 
L 199.252396 52.939691 
L 199.587691 52.572322 
L 200.090633 51.792156 
L 200.425927 51.376252 
L 200.593575 47.687531 
L 200.761222 50.830967 
L 201.264164 50.099412 
L 201.431811 49.881227 
L 201.599458 49.976712 
L 201.934753 49.170272 
L 202.437695 48.4155 
L 203.443578 46.862811 
L 203.611226 46.700944 
L 204.114167 45.851869 
L 204.617109 45.260544 
L 204.952404 44.613573 
L 205.287698 44.149925 
L 206.628877 42.29829 
L 206.796524 51.343787 
L 206.964171 41.791342 
L 208.640644 39.242142 
L 208.808291 38.939237 
L 208.975939 38.903571 
L 209.143586 38.452669 
L 209.311233 38.401248 
L 209.646528 37.890619 
L 212.496532 33.569091 
L 212.664179 100.373555 
L 214.173004 98.024656 
L 214.508299 97.667854 
L 215.514183 96.037369 
L 216.352419 94.802208 
L 216.520066 94.737867 
L 217.190655 93.614048 
L 217.693597 92.81919 
L 217.861245 101.913381 
L 218.028892 92.372002 
L 218.196539 92.252319 
L 218.531834 91.644903 
L 218.867128 91.307611 
L 220.878896 88.30302 
L 221.046543 85.925326 
L 221.21419 87.840126 
L 222.387721 86.053209 
L 222.555368 85.863957 
L 222.890663 85.232906 
L 223.393605 84.572259 
L 223.728899 84.092838 
L 225.237725 81.795914 
L 225.740667 81.23997 
L 226.411256 80.058512 
L 226.578903 79.950693 
L 227.41714 78.719321 
L 230.267143 74.57834 
L 230.602438 74.0679 
L 230.770085 73.873751 
L 231.10538 73.21323 
L 231.608322 72.571469 
L 233.284795 69.995857 
L 233.620089 69.611305 
L 233.787736 69.453016 
L 234.123031 68.776941 
L 234.290678 68.700715 
L 234.625973 68.082304 
L 235.631856 66.622592 
L 235.799504 66.495114 
L 236.63774 65.112183 
L 236.973035 64.677575 
L 237.140682 57.623962 
L 237.308329 64.197295 
L 237.978918 63.118983 
L 238.817155 62.072443 
L 240.828922 59.117683 
L 241.499511 58.102247 
L 242.1701 57.071462 
L 242.84069 56.167993 
L 249.211286 46.820264 
L 249.378934 46.619842 
L 249.714228 46.015603 
L 249.881875 45.699583 
L 250.049523 45.627127 
L 258.26424 33.588701 
L 259.102476 34.740904 
L 259.773065 35.772618 
L 260.276007 36.475213 
L 261.281891 38.071367 
L 261.617185 38.488146 
L 262.120127 39.274018 
L 263.628953 41.498954 
L 263.7966 41.641975 
L 264.467189 42.746174 
L 264.802484 43.118902 
L 265.473073 44.231435 
L 265.64072 44.33218 
L 265.808367 35.024654 
L 265.976014 44.858392 
L 266.478956 45.725923 
L 266.814251 46.069813 
L 267.149545 46.689716 
L 267.149545 46.689716 
" clip-path="url(#pcbb6acfcff)" style="fill: none; stroke: #ff5c8d; stroke-width: 1.5; stroke-linecap: square"/>
   </g>
   <g id="line2d_22">
    <path d="M 56.09 100.457938 
L 277.2 100.457938 
" clip-path="url(#pcbb6acfcff)" style="fill: none; stroke: #888888; stroke-width: 0.6; stroke-linecap: square"/>
   </g>
   <g id="line2d_23">
    <path d="M 166.645 174.04 
L 166.645 26.88 
" clip-path="url(#pcbb6acfcff)" style="fill: none; stroke: #888888; stroke-width: 0.6; stroke-linecap: square"/>
   </g>
   <g id="patch_3">
    <path d="M 56.09 174.04 
L 56.09 26.88 
" style="fill: none; stroke: #000000; stroke-width: 0.8; stroke-linejoin: miter; stroke-linecap: square"/>
   </g>
   <g id="patch_4">
    <path d="M 277.2 174.04 
L 277.2 26.88 
" style="fill: none; stroke: #000000; stroke-width: 0.8; stroke-linejoin: miter; stroke-linecap: square"/>
   </g>
   <g id="patch_5">
    <path d="M 56.09 174.04 
L 277.2 174.04 
" style="fill: none; stroke: #000000; stroke-width: 0.8; stroke-linejoin: miter; stroke-linecap: square"/>
   </g>
   <g id="patch_6">
    <path d="M 56.09 26.88 
L 277.2 26.88 
" style="fill: none; stroke: #000000; stroke-width: 0.8; stroke-linejoin: miter; stroke-linecap: square"/>
   </g>
   <g id="text_13">
    <!-- foldback curve — chaos 3.0 -->
    <g transform="translate(83.570312 20.88) scale(0.12 -0.12)">
     <defs>
      <path id="DejaVuSans-66" d="M 2375 4863 
L 2375 4384 
L 1825 4384 
Q 1516 4384 1395 4259 
Q 1275 4134 1275 3809 
L 1275 3500 
L 2222 3500 
L 2222 3053 
L 1275 3053 
L 1275 0 
L 697 0 
L 697 3053 
L 147 3053 
L 147 3500 
L 697 3500 
L 697 3744 
Q 697 4328 969 4595 
Q 1241 4863 1831 4863 
L 2375 4863 
z
" transform="scale(0.015625)"/>
      <path id="DejaVuSans-6c" d="M 603 4863 
L 1178 4863 
L 1178 0 
L 603 0 
L 603 4863 
z
" transform="scale(0.015625)"/>
      <path id="DejaVuSans-64" d="M 2906 2969 
L 2906 4863 
L 3481 4863 
L 3481 0 
L 2906 0 
L 2906 525 
Q 2725 213 2448 61 
Q 2172 -91 1784 -91 
Q 1150 -91 751 415 
Q 353 922 353 1747 
Q 353 2572 751 3078 
Q 1150 3584 1784 3584 
Q 2172 3584 2448 3432 
Q 2725 3281 2906 2969 
z
M 947 1747 
Q 947 1113 1208 752 
Q 1469 391 1925 391 
Q 2381 391 2643 752 
Q 2906 1113 2906 1747 
Q 2906 2381 2643 2742 
Q 2381 3103 1925 3103 
Q 1469 3103 1208 2742 
Q 947 2381 947 1747 
z
" transform="scale(0.015625)"/>
      <path id="DejaVuSans-62" d="M 3116 1747 
Q 3116 2381 2855 2742 
Q 2594 3103 2138 3103 
Q 1681 3103 1420 2742 
Q 1159 2381 1159 1747 
Q 1159 1113 1420 752 
Q 1681 391 2138 391 
Q 2594 391 2855 752 
Q 3116 1113 3116 1747 
z
M 1159 2969 
Q 1341 3281 1617 3432 
Q 1894 3584 2278 3584 
Q 2916 3584 3314 3078 
Q 3713 2572 3713 1747 
Q 3713 922 3314 415 
Q 2916 -91 2278 -91 
Q 1894 -91 1617 61 
Q 1341 213 1159 525 
L 1159 0 
L 581 0 
L 581 4863 
L 1159 4863 
L 1159 2969 
z
" transform="scale(0.015625)"/>
      <path id="DejaVuSans-61" d="M 2194 1759 
Q 1497 1759 1228 1600 
Q 959 1441 959 1056 
Q 959 750 1161 570 
Q 1363 391 1709 391 
Q 2188 391 2477 730 
Q 2766 1069 2766 1631 
L 2766 1759 
L 2194 1759 
z
M 3341 1997 
L 3341 0 
L 2766 0 
L 2766 531 
Q 2569 213 2275 61 
Q 1981 -91 1556 -91 
Q 1019 -91 701 211 
Q 384 513 384 1019 
Q 384 1609 779 1909 
Q 1175 2209 1959 2209 
L 2766 2209 
L 2766 2266 
Q 2766 2663 2505 2880 
Q 2244 3097 1772 3097 
Q 1472 3097 1187 3025 
Q 903 2953 641 2809 
L 641 3341 
Q 956 3463 1253 3523 
Q 1550 3584 1831 3584 
Q 2591 3584 2966 3190 
Q 3341 2797 3341 1997 
z
" transform="scale(0.015625)"/>
      <path id="DejaVuSans-63" d="M 3122 3366 
L 3122 2828 
Q 2878 2963 2633 3030 
Q 2388 3097 2138 3097 
Q 1578 3097 1268 2742 
Q 959 2388 959 1747 
Q 959 1106 1268 751 
Q 1578 397 2138 397 
Q 2388 397 2633 464 
Q 2878 531 3122 666 
L 3122 134 
Q 2881 22 2623 -34 
Q 2366 -91 2075 -91 
Q 1284 -91 818 406 
Q 353 903 353 1747 
Q 353 2603 823 3093 
Q 1294 3584 2113 3584 
Q 2378 3584 2631 3529 
Q 2884 3475 3122 3366 
z
" transform="scale(0.015625)"/>
      <path id="DejaVuSans-6b" d="M 581 4863 
L 1159 4863 
L 1159 1991 
L 2875 3500 
L 3609 3500 
L 1753 1863 
L 3688 0 
L 2938 0 
L 1159 1709 
L 1159 0 
L 581 0 
L 581 4863 
z
" transform="scale(0.015625)"/>
      <path id="DejaVuSans-20" transform="scale(0.015625)"/>
      <path id="DejaVuSans-72" d="M 2631 2963 
Q 2534 3019 2420 3045 
Q 2306 3072 2169 3072 
Q 1681 3072 1420 2755 
Q 1159 2438 1159 1844 
L 1159 0 
L 581 0 
L 581 3500 
L 1159 3500 
L 1159 2956 
Q 1341 3275 1631 3429 
Q 1922 3584 2338 3584 
Q 2397 3584 2469 3576 
Q 2541 3569 2628 3553 
L 2631 2963 
z
" transform="scale(0.015625)"/>
      <path id="DejaVuSans-76" d="M 191 3500 
L 800 3500 
L 1894 563 
L 2988 3500 
L 3597 3500 
L 2284 0 
L 1503 0 
L 191 3500 
z
" transform="scale(0.015625)"/>
      <path id="DejaVuSans-65" d="M 3597 1894 
L 3597 1613 
L 953 1613 
Q 991 1019 1311 708 
Q 1631 397 2203 397 
Q 2534 397 2845 478 
Q 3156 559 3463 722 
L 3463 178 
Q 3153 47 2828 -22 
Q 2503 -91 2169 -91 
Q 1331 -91 842 396 
Q 353 884 353 1716 
Q 353 2575 817 3079 
Q 1281 3584 2069 3584 
Q 2775 3584 3186 3129 
Q 3597 2675 3597 1894 
z
M 3022 2063 
Q 3016 2534 2758 2815 
Q 2500 3097 2075 3097 
Q 1594 3097 1305 2825 
Q 1016 2553 972 2059 
L 3022 2063 
z
" transform="scale(0.015625)"/>
      <path id="DejaVuSans-2014" d="M 313 1978 
L 6088 1978 
L 6088 1528 
L 313 1528 
L 313 1978 
z
" transform="scale(0.015625)"/>
      <path id="DejaVuSans-68" d="M 3513 2113 
L 3513 0 
L 2938 0 
L 2938 2094 
Q 2938 2591 2744 2837 
Q 2550 3084 2163 3084 
Q 1697 3084 1428 2787 
Q 1159 2491 1159 1978 
L 1159 0 
L 581 0 
L 581 4863 
L 1159 4863 
L 1159 2956 
Q 1366 3272 1645 3428 
Q 1925 3584 2291 3584 
Q 2894 3584 3203 3211 
Q 3513 2838 3513 2113 
z
" transform="scale(0.015625)"/>
      <path id="DejaVuSans-73" d="M 2834 3397 
L 2834 2853 
Q 2591 2978 2328 3040 
Q 2066 3103 1784 3103 
Q 1356 3103 1142 2972 
Q 928 2841 928 2578 
Q 928 2378 1081 2264 
Q 1234 2150 1697 2047 
L 1894 2003 
Q 2506 1872 2764 1633 
Q 3022 1394 3022 966 
Q 3022 478 2636 193 
Q 2250 -91 1575 -91 
Q 1294 -91 989 -36 
Q 684 19 347 128 
L 347 722 
Q 666 556 975 473 
Q 1284 391 1588 391 
Q 1994 391 2212 530 
Q 2431 669 2431 922 
Q 2431 1156 2273 1281 
Q 2116 1406 1581 1522 
L 1381 1569 
Q 847 1681 609 1914 
Q 372 2147 372 2553 
Q 372 3047 722 3315 
Q 1072 3584 1716 3584 
Q 2034 3584 2315 3537 
Q 2597 3491 2834 3397 
z
" transform="scale(0.015625)"/>
      <path id="DejaVuSans-33" d="M 2597 2516 
Q 3050 2419 3304 2112 
Q 3559 1806 3559 1356 
Q 3559 666 3084 287 
Q 2609 -91 1734 -91 
Q 1441 -91 1130 -33 
Q 819 25 488 141 
L 488 750 
Q 750 597 1062 519 
Q 1375 441 1716 441 
Q 2309 441 2620 675 
Q 2931 909 2931 1356 
Q 2931 1769 2642 2001 
Q 2353 2234 1838 2234 
L 1294 2234 
L 1294 2753 
L 1863 2753 
Q 2328 2753 2575 2939 
Q 2822 3125 2822 3475 
Q 2822 3834 2567 4026 
Q 2313 4219 1838 4219 
Q 1578 4219 1281 4162 
Q 984 4106 628 3988 
L 628 4550 
Q 988 4650 1302 4700 
Q 1616 4750 1894 4750 
Q 2613 4750 3031 4423 
Q 3450 4097 3450 3541 
Q 3450 3153 3228 2886 
Q 3006 2619 2597 2516 
z
" transform="scale(0.015625)"/>
     </defs>
     <use xlink:href="#DejaVuSans-66"/>
     <use xlink:href="#DejaVuSans-6f" transform="translate(35.205078 0)"/>
     <use xlink:href="#DejaVuSans-6c" transform="translate(96.386719 0)"/>
     <use xlink:href="#DejaVuSans-64" transform="translate(124.169922 0)"/>
     <use xlink:href="#DejaVuSans-62" transform="translate(187.646484 0)"/>
     <use xlink:href="#DejaVuSans-61" transform="translate(251.123047 0)"/>
     <use xlink:href="#DejaVuSans-63" transform="translate(312.402344 0)"/>
     <use xlink:href="#DejaVuSans-6b" transform="translate(367.382812 0)"/>
     <use xlink:href="#DejaVuSans-20" transform="translate(425.292969 0)"/>
     <use xlink:href="#DejaVuSans-63" transform="translate(457.080078 0)"/>
     <use xlink:href="#DejaVuSans-75" transform="translate(512.060547 0)"/>
     <use xlink:href="#DejaVuSans-72" transform="translate(575.439453 0)"/>
     <use xlink:href="#DejaVuSans-76" transform="translate(616.552734 0)"/>
     <use xlink:href="#DejaVuSans-65" transform="translate(675.732422 0)"/>
     <use xlink:href="#DejaVuSans-20" transform="translate(737.255859 0)"/>
     <use xlink:href="#DejaVuSans-2014" transform="translate(769.042969 0)"/>
     <use xlink:href="#DejaVuSans-20" transform="translate(869.042969 0)"/>
     <use xlink:href="#DejaVuSans-63" transform="translate(900.830078 0)"/>
     <use xlink:href="#DejaVuSans-68" transform="translate(955.810547 0)"/>
     <use xlink:href="#DejaVuSans-61" transform="translate(1019.189453 0)"/>
     <use xlink:href="#DejaVuSans-6f" transform="translate(1080.46875 0)"/>
     <use xlink:href="#DejaVuSans-73" transform="translate(1141.650391 0)"/>
     <use xlink:href="#DejaVuSans-20" transform="translate(1193.75 0)"/>
     <use xlink:href="#DejaVuSans-33" transform="translate(1225.537109 0)"/>
     <use xlink:href="#DejaVuSans-2e" transform="translate(1289.160156 0)"/>
     <use xlink:href="#DejaVuSans-30" transform="translate(1320.947266 0)"/>
    </g>
   </g>
  </g>
 </g>
 <defs>
  <clipPath id="pcbb6acfcff">
   <rect x="56.09" y="26.88" width="221.11" height="147.16"/>
  </clipPath>
 </defs>
</svg>
