<?xml version="1.0" encoding="utf-8" standalone="no"?>
<!DOCTYPE svg PUBLIC "-//W3C//DTD SVG 1.1//EN"
  "http://www.w3.org/Graphics/SVG/1.1/DTD/svg11.dtd">
<svg xmlns:xlink="http://www.w3.org/1999/xlink" width="288pt" height="216pt" viewBox="0 0 288 216" xmlns="http://www.w3.org/2000/svg" version="1.1">
 <metadata>
  <rdf:RDF xmlns:dc="http://purl.org/dc/elements/1.1/" xmlns:cc="http://creativecommons.org/ns#" xmlns:rdf="http://www.w3.org/1999/02/22-rdf-syntax-ns#">
   <cc:Work>
    <dc:type rdf:resource="http://purl.org/dc/dcmitype/StillImage"/>
    <dc:date>2025-11-23T14:28:30.422093</dc:date>
    <dc:format>image/svg+xml</dc:format>
    <dc:creator>
     <cc:Agent>
      <dc:title>Matplotlib v3.10.7, https://matplotlib.org/</dc:title>
     </cc:Agent>
    </dc:creator>
   </cc:Work>
  </rdf:RDF>
 </metadata>
 <defs>
  <style type="text/css">*{stroke-linejoin: round; stroke-linecap: butt}</style>
 </defs>
 <g id="figure_1">
  <g id="patch_1">
   <path d="M 0 216 
L 288 216 
L 288 0 
L 0 0 
z
" style="fill: #ffffff"/>
  </g>
  <g id="axes_1">
   <g id="patch_2">
    <path d="M 56.09 174.04 
L 277.2 174.04 
L 277.2 26.88 
L 56.09 26.88 
z
" style="fill: #ffffff"/>
   </g>
   <g id="matplotlib.axis_1">
    <g id="xtick_1">
     <g id="line2d_1">
      <path d="M 75.277231 174.04 
L 75.277231 26.88 
" clip-path="url(#p9919e71566)" style="fill: none; stroke: #b0b0b0; stroke-opacity: 0.5; stroke-width: 0.4; stroke-linecap: square"/>
     </g>
     <g id="line2d_2">
      <defs>
       <path id="mf544b5fdde" d="M 0 0 
L 0 3.5 
" style="stroke: #000000; stroke-width: 0.8"/>
      </defs>
      <g>
       <use xlink:href="#mf544b5fdde" x="75.277231" y="174.04" style="stroke: #000000; stroke-width: 0.8"/>
      </g>
     </g>
     <g id="text_1">
      <!-- −2 -->
      <g transform="translate(67.906138 188.638438) scale(0.1 -0.1)">
       <defs>
        <path id="DejaVuSans-2212" d="M 678 2272 
L 4684 2272 
L 4684 1741 
L 678 1741 
L 678 2272 
z
" transform="scale(0.015625)"/>
        <path id="DejaVuSans-32" d="M 1228 531 
L 3431 531 
L 3431 0 
L 469 0 
L 469 531 
Q 828 903 1448 1529 
Q 2069 2156 2228 2338 
Q 2531 2678 2651 2914 
Q 2772 3150 2772 3378 
Q 2772 3750 2511 3984 
Q 2250 4219 1831 4219 
Q 1534 4219 1204 4116 
Q 875 4013 500 3803 
L 500 4441 
Q 881 4594 1212 4672 
Q 1544 4750 1819 4750 
Q 2544 4750 2975 4387 
Q 3406 4025 3406 3419 
Q 3406 3131 3298 2873 
Q 3191 2616 2906 2266 
Q 2828 2175 2409 1742 
Q 1991 1309 1228 531 
z
" transform="scale(0.015625)"/>
       </defs>
       <use xlink:href="#DejaVuSans-2212"/>
       <use xlink:href="#DejaVuSans-32" transform="translate(83.789062 0)"/>
      </g>
     </g>
    </g>
    <g id="xtick_2">
     <g id="line2d_3">
      <path d="M 120.961116 174.04 
L 120.961116 26.88 
" clip-path="url(#p9919e71566)" style="fill: none; stroke: #b0b0b0; stroke-opacity: 0.5; stroke-width: 0.4; stroke-linecap: square"/>
     </g>
     <g id="line2d_4">
      <g>
       <use xlink:href="#mf544b5fdde" x="120.961116" y="174.04" style="stroke: #000000; stroke-width: 0.8"/>
      </g>
     </g>
     <g id="text_2">
      <!-- −1 -->
      <g transform="translate(113.590022 188.638438) scale(0.1 -0.1)">
       <defs>
        <path id="DejaVuSans-31" d="M 794 531 
L 1825 531 
L 1825 4091 
L 703 3866 
L 703 4441 
L 1819 4666 
L 2450 4666 
L 2450 531 
L 3481 531 
L 3481 0 
L 794 0 
L 794 531 
z
" transform="scale(0.015625)"/>
       </defs>
       <use xlink:href="#DejaVuSans-2212"/>
       <use xlink:href="#DejaVuSans-31" transform="translate(83.789062 0)"/>
      </g>
     </g>
    </g>
    <g id="xtick_3">
     <g id="line2d_5">
      <path d="M 166.645 174.04 
L 166.645 26.88 
" clip-path="url(#p9919e71566)" style="fill: none; stroke: #b0b0b0; stroke-opacity: 0.5; stroke-width: 0.4; stroke-linecap: square"/>
     </g>
     <g id="line2d_6">
      <g>
       <use xlink:href="#mf544b5fdde" x="166.645" y="174.04" style="stroke: #000000; stroke-width: 0.8"/>
      </g>
     </g>
     <g id="text_3">
      <!-- 0 -->
      <g transform="translate(163.46375 188.638438) scale(0.1 -0.1)">
       <defs>
        <path id="DejaVuSans-30" d="M 2034 4250 
Q 1547 4250 1301 3770 
Q 1056 3291 1056 2328 
Q 1056 1369 1301 889 
Q 1547 409 2034 409 
Q 2525 409 2770 889 
Q 3016 1369 3016 2328 
Q 3016 3291 2770 3770 
Q 2525 4250 2034 4250 
z
M 2034 4750 
Q 2819 4750 3233 4129 
Q 3647 3509 3647 2328 
Q 3647 1150 3233 529 
Q 2819 -91 2034 -91 
Q 1250 -91 836 529 
Q 422 1150 422 2328 
Q 422 3509 836 4129 
Q 1250 4750 2034 4750 
z
" transform="scale(0.015625)"/>
       </defs>
       <use xlink:href="#DejaVuSans-30"/>
      </g>
     </g>
    </g>
    <g id="xtick_4">
     <g id="line2d_7">
      <path d="M 212.328884 174.04 
L 212.328884 26.88 
" clip-path="url(#p9919e71566)" style="fill: none; stroke: #b0b0b0; stroke-opacity: 0.5; stroke-width: 0.4; stroke-linecap: square"/>
     </g>
     <g id="line2d_8">
      <g>
       <use xlink:href="#mf544b5fdde" x="212.328884" y="174.04" style="stroke: #000000; stroke-width: 0.8"/>
      </g>
     </g>
     <g id="text_4">
      <!-- 1 -->
      <g transform="translate(209.147634 188.638438) scale(0.1 -0.1)">
       <use xlink:href="#DejaVuSans-31"/>
      </g>
     </g>
    </g>
    <g id="xtick_5">
     <g id="line2d_9">
      <path d="M 258.012769 174.04 
L 258.012769 26.88 
" clip-path="url(#p9919e71566)" style="fill: none; stroke: #b0b0b0; stroke-opacity: 0.5; stroke-width: 0.4; stroke-linecap: square"/>
     </g>
     <g id="line2d_10">
      <g>
       <use xlink:href="#mf544b5fdde" x="258.012769" y="174.04" style="stroke: #000000; stroke-width: 0.8"/>
      </g>
     </g>
     <g id="text_5">
      <!-- 2 -->
      <g transform="translate(254.831519 188.638438) scale(0.1 -0.1)">
       <use xlink:href="#DejaVuSans-32"/>
      </g>
     </g>
    </g>
    <g id="text_6">
     <!-- input -->
     <g transform="translate(153.784062 202.316563) scale(0.1 -0.1)">
      <defs>
       <path id="DejaVuSans-69" d="M 603 3500 
L 1178 3500 
L 1178 0 
L 603 0 
L 603 3500 
z
M 603 4863 
L 1178 4863 
L 1178 4134 
L 603 4134 
L 603 4863 
z
" transform="scale(0.015625)"/>
       <path id="DejaVuSans-6e" d="M 3513 2113 
L 3513 0 
L 2938 0 
L 2938 2094 
Q 2938 2591 2744 2837 
Q 2550 3084 2163 3084 
Q 1697 3084 1428 2787 
Q 1159 2491 1159 1978 
L 1159 0 
L 581 0 
L 581 3500 
L 1159 3500 
L 1159 2956 
Q 1366 3272 1645 3428 
Q 1925 3584 2291 3584 
Q 2894 3584 3203 3211 
Q 3513 2838 3513 2113 
z
" transform="scale(0.015625)"/>
       <path id="DejaVuSans-70" d="M 1159 525 
L 1159 -1331 
L 581 -1331 
L 581 3500 
L 1159 3500 
L 1159 2969 
Q 1341 3281 1617 3432 
Q 1894 3584 2278 3584 
Q 2916 3584 3314 3078 
Q 3713 2572 3713 1747 
Q 3713 922 3314 415 
Q 2916 -91 2278 -91 
Q 1894 -91 1617 61 
Q 1341 213 1159 525 
z
M 3116 1747 
Q 3116 2381 2855 2742 
Q 2594 3103 2138 3103 
Q 1681 3103 1420 2742 
Q 1159 2381 1159 1747 
Q 1159 1113 1420 752 
Q 1681 391 2138 391 
Q 2594 391 2855 752 
Q 3116 1113 3116 1747 
z
" transform="scale(0.015625)"/>
       <path id="DejaVuSans-75" d="M 544 1381 
L 544 3500 
L 1119 3500 
L 1119 1403 
Q 1119 906 1312 657 
Q 1506 409 1894 409 
Q 2359 409 2629 706 
Q 2900 1003 2900 1516 
L 2900 3500 
L 3475 3500 
L 3475 0 
L 2900 0 
L 2900 538 
Q 2691 219 2414 64 
Q 2138 -91 1772 -91 
Q 1169 -91 856 284 
Q 544 659 544 1381 
z
M 1991 3584 
L 1991 3584 
z
" transform="scale(0.015625)"/>
       <path id="DejaVuSans-74" d="M 1172 4494 
L 1172 3500 
L 2356 3500 
L 2356 3053 
L 1172 3053 
L 1172 1153 
Q 1172 725 1289 603 
Q 1406 481 1766 481 
L 2356 481 
L 2356 0 
L 1766 0 
Q 1100 0 847 248 
Q 594 497 594 1153 
L 594 3053 
L 172 3053 
L 172 3500 
L 594 3500 
L 594 4494 
L 1172 4494 
z
" transform="scale(0.015625)"/>
      </defs>
      <use xlink:href="#DejaVuSans-69"/>
      <use xlink:href="#DejaVuSans-6e" transform="translate(27.783203 0)"/>
      <use xlink:href="#DejaVuSans-70" transform="translate(91.162109 0)"/>
      <use xlink:href="#DejaVuSans-75" transform="translate(154.638672 0)"/>
      <use xlink:href="#DejaVuSans-74" transform="translate(218.017578 0)"/>
     </g>
    </g>
   </g>
   <g id="matplotlib.axis_2">
    <g id="ytick_1">
     <g id="line2d_11">
      <path d="M 56.09 167.350909 
L 277.2 167.350909 
" clip-path="url(#p9919e71566)" style="fill: none; stroke: #b0b0b0; stroke-opacity: 0.5; stroke-width: 0.4; stroke-linecap: square"/>
     </g>
     <g id="line2d_12">
      <defs>
       <path id="m92b06bb4e6" d="M 0 0 
L -3.5 0 
" style="stroke: #000000; stroke-width: 0.8"/>
      </defs>
      <g>
       <use xlink:href="#m92b06bb4e6" x="56.09" y="167.350909" style="stroke: #000000; stroke-width: 0.8"/>
      </g>
     </g>
     <g id="text_7">
      <!-- −1.0 -->
      <g transform="translate(24.807187 171.150128) scale(0.1 -0.1)">
       <defs>
        <path id="DejaVuSans-2e" d="M 684 794 
L 1344 794 
L 1344 0 
L 684 0 
L 684 794 
z
" transform="scale(0.015625)"/>
       </defs>
       <use xlink:href="#DejaVuSans-2212"/>
       <use xlink:href="#DejaVuSans-31" transform="translate(83.789062 0)"/>
       <use xlink:href="#DejaVuSans-2e" transform="translate(147.412109 0)"/>
       <use xlink:href="#DejaVuSans-30" transform="translate(179.199219 0)"/>
      </g>
     </g>
    </g>
    <g id="ytick_2">
     <g id="line2d_13">
      <path d="M 56.09 133.905455 
L 277.2 133.905455 
" clip-path="url(#p9919e71566)" style="fill: none; stroke: #b0b0b0; stroke-opacity: 0.5; stroke-width: 0.4; stroke-linecap: square"/>
     </g>
     <g id="line2d_14">
      <g>
       <use xlink:href="#m92b06bb4e6" x="56.09" y="133.905455" style="stroke: #000000; stroke-width: 0.8"/>
      </g>
     </g>
     <g id="text_8">
      <!-- −0.5 -->
      <g transform="translate(24.807187 137.704673) scale(0.1 -0.1)">
       <defs>
        <path id="DejaVuSans-35" d="M 691 4666 
L 3169 4666 
L 3169 4134 
L 1269 4134 
L 1269 2991 
Q 1406 3038 1543 3061 
Q 1681 3084 1819 3084 
Q 2600 3084 3056 2656 
Q 3513 2228 3513 1497 
Q 3513 744 3044 326 
Q 2575 -91 1722 -91 
Q 1428 -91 1123 -41 
Q 819 9 494 109 
L 494 744 
Q 775 591 1075 516 
Q 1375 441 1709 441 
Q 2250 441 2565 725 
Q 2881 1009 2881 1497 
Q 2881 1984 2565 2268 
Q 2250 2553 1709 2553 
Q 1456 2553 1204 2497 
Q 953 2441 691 2322 
L 691 4666 
z
" transform="scale(0.015625)"/>
       </defs>
       <use xlink:href="#DejaVuSans-2212"/>
       <use xlink:href="#DejaVuSans-30" transform="translate(83.789062 0)"/>
       <use xlink:href="#DejaVuSans-2e" transform="translate(147.412109 0)"/>
       <use xlink:href="#DejaVuSans-35" transform="translate(179.199219 0)"/>
      </g>
     </g>
    </g>
    <g id="ytick_3">
     <g id="line2d_15">
      <path d="M 56.09 100.46 
L 277.2 100.46 
" clip-path="url(#p9919e71566)" style="fill: none; stroke: #b0b0b0; stroke-opacity: 0.5; stroke-width: 0.4; stroke-linecap: square"/>
     </g>
     <g id="line2d_16">
      <g>
       <use xlink:href="#m92b06bb4e6" x="56.09" y="100.46" style="stroke: #000000; stroke-width: 0.8"/>
      </g>
     </g>
     <g id="text_9">
      <!-- 0.0 -->
      <g transform="translate(33.186875 104.259219) scale(0.1 -0.1)">
       <use xlink:href="#DejaVuSans-30"/>
       <use xlink:href="#DejaVuSans-2e" transform="translate(63.623047 0)"/>
       <use xlink:href="#DejaVuSans-30" transform="translate(95.410156 0)"/>
      </g>
     </g>
    </g>
    <g id="ytick_4">
     <g id="line2d_17">
      <path d="M 56.09 67.014545 
L 277.2 67.014545 
" clip-path="url(#p9919e71566)" style="fill: none; stroke: #b0b0b0; stroke-opacity: 0.5; stroke-width: 0.4; stroke-linecap: square"/>
     </g>
     <g id="line2d_18">
      <g>
       <use xlink:href="#m92b06bb4e6" x="56.09" y="67.014545" style="stroke: #000000; stroke-width: 0.8"/>
      </g>
     </g>
     <g id="text_10">
      <!-- 0.5 -->
      <g transform="translate(33.186875 70.813764) scale(0.1 -0.1)">
       <use xlink:href="#DejaVuSans-30"/>
       <use xlink:href="#DejaVuSans-2e" transform="translate(63.623047 0)"/>
       <use xlink:href="#DejaVuSans-35" transform="translate(95.410156 0)"/>
      </g>
     </g>
    </g>
    <g id="ytick_5">
     <g id="line2d_19">
      <path d="M 56.09 33.569091 
L 277.2 33.569091 
" clip-path="url(#p9919e71566)" style="fill: none; stroke: #b0b0b0; stroke-opacity: 0.5; stroke-width: 0.4; stroke-linecap: square"/>
     </g>
     <g id="line2d_20">
      <g>
       <use xlink:href="#m92b06bb4e6" x="56.09" y="33.569091" style="stroke: #000000; stroke-width: 0.8"/>
      </g>
     </g>
     <g id="text_11">
      <!-- 1.0 -->
      <g transform="translate(33.186875 37.36831) scale(0.1 -0.1)">
       <use xlink:href="#DejaVuSans-31"/>
       <use xlink:href="#DejaVuSans-2e" transform="translate(63.623047 0)"/>
       <use xlink:href="#DejaVuSans-30" transform="translate(95.410156 0)"/>
      </g>
     </g>
    </g>
    <g id="text_12">
     <!-- output -->
     <g transform="translate(18.7275 116.951406) rotate(-90) scale(0.1 -0.1)">
      <defs>
       <path id="DejaVuSans-6f" d="M 1959 3097 
Q 1497 3097 1228 2736 
Q 959 2375 959 1747 
Q 959 1119 1226 758 
Q 1494 397 1959 397 
Q 2419 397 2687 759 
Q 2956 1122 2956 1747 
Q 2956 2369 2687 2733 
Q 2419 3097 1959 3097 
z
M 1959 3584 
Q 2709 3584 3137 3096 
Q 3566 2609 3566 1747 
Q 3566 888 3137 398 
Q 2709 -91 1959 -91 
Q 1206 -91 779 398 
Q 353 888 353 1747 
Q 353 2609 779 3096 
Q 1206 3584 1959 3584 
z
" transform="scale(0.015625)"/>
      </defs>
      <use xlink:href="#DejaVuSans-6f"/>
      <use xlink:href="#DejaVuSans-75" transform="translate(61.181641 0)"/>
      <use xlink:href="#DejaVuSans-74" transform="translate(124.560547 0)"/>
      <use xlink:href="#DejaVuSans-70" transform="translate(163.769531 0)"/>
      <use xlink:href="#DejaVuSans-75" transform="translate(227.246094 0)"/>
      <use xlink:href="#DejaVuSans-74" transform="translate(290.625 0)"/>
     </g>
    </g>
   </g>
   <g id="line2d_21">
    <path d="M 66.140455 153.21438 
L 66.475749 153.652491 
L 66.643396 154.228631 
L 66.811044 154.180366 
L 66.978691 154.415375 
L 67.313986 155.17631 
L 67.481633 155.275711 
L 67.64928 155.583072 
L 67.816927 143.149417 
L 67.984575 156.044791 
L 68.152222 156.415585 
L 68.319869 156.335502 
L 68.990458 157.715579 
L 69.158106 157.853426 
L 69.325753 158.170677 
L 69.4934 158.130806 
L 69.661047 158.319735 
L 69.996342 159.139289 
L 70.163989 159.385441 
L 70.331637 159.31865 
L 70.834578 160.393675 
L 71.169873 160.67801 
L 71.505168 161.271247 
L 71.672815 161.53394 
L 71.840462 165.414098 
L 72.008109 161.889679 
L 72.175757 167.350909 
L 72.343404 162.410239 
L 72.511051 162.858687 
L 72.678699 162.834423 
L 73.013993 163.528577 
L 73.18164 163.820787 
L 73.349288 163.815515 
L 73.516935 152.175401 
L 73.684582 164.530497 
L 73.85223 164.54021 
L 74.019877 164.873671 
L 74.187524 164.919339 
L 74.690466 165.963993 
L 74.858113 166.019406 
L 75.193408 166.661933 
L 75.528702 166.940646 
L 75.69635 167.304641 
L 75.863997 167.295317 
L 76.031644 166.722324 
L 76.199291 166.677986 
L 78.881648 162.720837 
L 79.049295 150.557118 
L 79.216943 162.306041 
L 79.719884 161.7001 
L 79.887532 167.350909 
L 80.055179 161.012772 
L 80.558121 160.16664 
L 80.725768 160.052341 
L 81.061063 159.337143 
L 81.396357 159.144699 
L 81.731652 158.42697 
L 81.899299 158.353618 
L 82.402241 157.465029 
L 83.240477 156.231651 
L 83.408125 150.210787 
L 83.575772 155.723616 
L 83.743419 155.727378 
L 84.078714 154.92373 
L 84.246361 155.002698 
L 84.414008 154.6146 
L 84.581656 154.568839 
L 84.749303 154.329017 
L 84.91695 153.711775 
L 85.084597 153.753531 
L 85.252245 153.576995 
L 85.755187 152.530794 
L 85.922834 167.350909 
L 86.090481 152.2208 
L 86.258128 151.708524 
L 86.425776 151.749821 
L 86.593423 151.372163 
L 86.76107 151.287421 
L 87.096365 150.706426 
L 87.264012 150.347315 
L 87.431659 150.331824 
L 87.599307 149.835051 
L 87.766954 149.800799 
L 88.772838 148.03548 
L 88.940485 148.20499 
L 89.108132 147.600477 
L 89.275779 147.652972 
L 89.443427 147.153495 
L 89.611074 147.062201 
L 89.778721 146.572582 
L 90.114016 146.478124 
L 90.281663 144.09294 
L 90.44931 145.903622 
L 90.616958 145.719597 
L 90.784605 145.320641 
L 90.952252 145.231599 
L 92.796372 142.367613 
L 92.96402 142.304349 
L 93.131667 141.700332 
L 93.299314 141.790313 
L 93.466961 141.217025 
L 93.634609 141.296479 
L 94.472845 139.718264 
L 94.640492 139.840675 
L 94.975787 139.291565 
L 95.143434 138.976295 
L 95.311082 121.436208 
L 95.478729 138.446578 
L 95.981671 137.78939 
L 96.149318 137.237662 
L 96.316965 137.324509 
L 96.819907 136.51821 
L 97.658144 135.251525 
L 97.825791 120.075652 
L 97.993438 134.918672 
L 98.328733 134.044742 
L 98.49638 134.086645 
L 98.831675 133.543283 
L 98.999322 133.055645 
L 99.166969 132.932443 
L 99.334616 132.577064 
L 99.502264 132.627182 
L 99.837558 132.089977 
L 100.005205 131.917144 
L 100.172853 131.476615 
L 100.3405 131.437987 
L 100.508147 130.948075 
L 100.675795 130.91009 
L 101.011089 130.52341 
L 101.514031 129.421154 
L 101.681678 129.398939 
L 102.016973 128.773469 
L 102.855209 127.500718 
L 103.022857 127.409495 
L 103.190504 126.922695 
L 103.358151 126.963855 
L 103.693446 126.174097 
L 104.02874 125.823543 
L 104.196388 125.865156 
L 104.531682 124.963439 
L 104.699329 124.939992 
L 105.87286 123.115306 
L 106.040508 123.134032 
L 106.543449 122.273722 
L 106.878744 121.705664 
L 107.214039 121.047532 
L 107.381686 120.962726 
L 107.549333 120.555772 
L 107.71698 120.473713 
L 108.052275 119.832157 
L 108.219922 119.772871 
L 108.555217 119.086971 
L 108.722864 119.138741 
L 108.890511 118.732328 
L 109.058159 118.735246 
L 109.393453 117.839916 
L 109.561101 117.909684 
L 109.728748 117.337826 
L 109.896395 117.519323 
L 110.064042 117.251842 
L 110.23169 127.740294 
L 110.399337 116.740258 
L 110.566984 116.127089 
L 110.734632 116.283978 
L 111.069926 115.545842 
L 111.237573 115.460349 
L 111.405221 115.220179 
L 111.572868 129.285933 
L 111.740515 114.635135 
L 112.243457 113.71073 
L 112.411104 113.771193 
L 112.578752 113.167194 
L 112.914046 112.775683 
L 113.081693 112.451202 
L 113.249341 112.519473 
L 113.91993 111.339614 
L 114.087577 111.284596 
L 114.590519 110.281027 
L 114.758166 110.397005 
L 115.261108 109.561177 
L 117.440523 106.14338 
L 117.60817 106.130925 
L 117.943465 105.462779 
L 118.111112 105.489939 
L 118.446406 104.686844 
L 118.614054 91.2945 
L 118.781701 104.255619 
L 119.45229 103.457691 
L 119.619937 102.98668 
L 119.787585 102.959189 
L 119.955232 107.628748 
L 120.122879 102.449172 
L 120.458174 101.813165 
L 120.625821 101.55513 
L 120.793468 101.51738 
L 121.464058 100.558622 
L 121.631705 166.995562 
L 121.799352 166.834348 
L 122.134647 166.310091 
L 122.302294 166.219962 
L 122.637589 165.66223 
L 122.805236 165.503475 
L 122.972883 165.046683 
L 123.308178 164.753808 
L 123.643472 163.977039 
L 123.811119 163.953124 
L 124.314061 163.164588 
L 125.487592 161.346734 
L 125.65524 161.055678 
L 125.822887 158.948874 
L 125.990534 160.64321 
L 126.158181 160.582023 
L 126.325829 160.307952 
L 126.493476 159.815215 
L 126.661123 159.811532 
L 127.164065 158.859183 
L 127.331712 158.771846 
L 127.49936 162.075489 
L 127.667007 158.064463 
L 128.337596 157.370758 
L 128.672891 156.542053 
L 128.840538 156.621442 
L 129.678774 155.068971 
L 129.846422 155.115608 
L 130.014069 154.912266 
L 130.349363 154.123213 
L 130.517011 153.950147 
L 130.684658 153.564786 
L 130.852305 153.552275 
L 131.019953 153.131373 
L 131.1876 153.070216 
L 131.355247 152.649701 
L 131.522894 152.714757 
L 131.690542 152.086855 
L 131.858189 152.084075 
L 132.361131 151.23329 
L 132.528778 151.219333 
L 132.696425 152.771376 
L 132.864073 150.418166 
L 133.03172 150.478313 
L 133.702309 149.183586 
L 133.869956 149.241957 
L 134.037604 148.937074 
L 134.205251 148.398675 
L 134.372898 148.481168 
L 134.708193 147.672953 
L 135.043487 147.515932 
L 135.378782 146.696984 
L 135.546429 146.519005 
L 135.714077 146.514451 
L 135.881724 130.625849 
L 136.049371 145.962125 
L 136.217018 145.556087 
L 136.384666 145.499996 
L 137.055255 144.243827 
L 137.558197 143.773051 
L 137.893491 143.016977 
L 138.061138 143.116271 
L 138.228786 146.238424 
L 138.396433 142.462907 
L 138.899375 141.714935 
L 139.067022 141.609752 
L 139.569964 140.595576 
L 139.737611 140.674424 
L 139.905259 140.088383 
L 140.072906 140.053211 
L 140.240553 139.836148 
L 140.575848 139.292716 
L 141.414084 138.060127 
L 141.581731 150.647916 
L 141.749379 137.458576 
L 141.917026 137.454823 
L 142.25232 136.6523 
L 142.587615 136.330037 
L 142.755262 146.234702 
L 142.92291 135.802882 
L 143.090557 135.805379 
L 143.258204 135.289354 
L 143.425851 135.297782 
L 143.761146 134.524688 
L 144.096441 134.334031 
L 144.264088 133.699714 
L 144.431735 133.838781 
L 144.599382 133.274865 
L 144.76703 133.32683 
L 144.934677 133.107162 
L 145.269972 132.268471 
L 145.940561 131.210456 
L 146.108208 131.324356 
L 146.778797 130.136787 
L 146.946444 130.151137 
L 147.281739 129.667068 
L 147.784681 128.707652 
L 147.952328 120.128704 
L 148.119975 128.44188 
L 148.45527 127.749421 
L 148.622917 127.568657 
L 148.790564 124.834063 
L 148.958212 127.152649 
L 149.293506 126.631025 
L 149.964095 125.363543 
L 150.131743 125.393794 
L 150.29939 125.18343 
L 150.467037 124.626686 
L 150.634685 124.641202 
L 150.802332 124.1809 
L 150.969979 124.142619 
L 151.137626 123.985169 
L 151.472921 123.271709 
L 151.640568 123.240282 
L 152.14351 122.255096 
L 152.311157 126.836157 
L 152.478805 121.848861 
L 152.981747 121.1011 
L 153.149394 121.059858 
L 153.652336 119.921901 
L 153.98763 119.602085 
L 154.825867 118.317639 
L 154.993514 118.039591 
L 155.161161 118.118646 
L 155.496456 117.351965 
L 156.502339 115.980373 
L 157.172929 114.922081 
L 157.508223 114.693051 
L 157.67587 114.077007 
L 157.843518 113.949657 
L 158.011165 113.56621 
L 158.178812 113.666042 
L 158.34646 113.281639 
L 158.514107 126.207554 
L 158.681754 112.880839 
L 158.849401 112.325395 
L 159.352343 111.781856 
L 159.519991 111.45286 
L 159.687638 111.497849 
L 159.855285 110.862394 
L 160.358227 110.453481 
L 160.693521 109.872637 
L 160.861169 109.774974 
L 161.028816 109.115123 
L 161.196463 109.22616 
L 161.364111 108.845882 
L 161.531758 108.744784 
L 161.699405 108.163731 
L 161.867052 108.282152 
L 162.202347 107.528102 
L 162.369994 107.296301 
L 162.537642 107.331805 
L 162.705289 106.783532 
L 163.208231 106.268633 
L 163.87882 105.150708 
L 164.717056 103.855171 
L 164.884704 103.745956 
L 165.052351 103.258409 
L 165.387645 103.117092 
L 165.72294 102.424178 
L 165.890587 102.419599 
L 166.225882 101.731407 
L 166.561176 101.099645 
L 166.728824 101.086008 
L 167.064118 100.624531 
L 167.399413 100.157567 
L 167.902355 99.221988 
L 168.070002 99.181185 
L 168.572944 98.317823 
L 168.740591 98.23298 
L 169.075886 97.56759 
L 169.746475 96.743509 
L 169.914122 96.301018 
L 170.249417 96.022855 
L 170.584711 95.22626 
L 170.752358 95.189452 
L 171.087653 94.733602 
L 171.2553 111.495668 
L 171.422948 93.998738 
L 172.261184 92.958744 
L 172.596479 92.283592 
L 172.764126 92.309405 
L 172.931773 92.07749 
L 173.267068 91.206575 
L 173.434715 91.234594 
L 173.937657 90.254284 
L 174.105304 90.275975 
L 174.440599 89.893048 
L 174.608246 89.363012 
L 174.775893 89.387833 
L 174.94354 88.759612 
L 175.111188 88.790433 
L 175.278835 88.611777 
L 175.61413 87.835907 
L 175.781777 87.634349 
L 175.949424 87.636094 
L 176.452366 86.658626 
L 176.620013 86.708047 
L 176.955308 85.894044 
L 177.122955 85.895892 
L 177.45825 85.464731 
L 177.625897 84.82322 
L 177.793544 84.927295 
L 178.464133 83.868504 
L 178.631781 83.684503 
L 178.799428 83.201598 
L 179.134722 83.011931 
L 179.30237 82.450078 
L 179.470017 82.504998 
L 180.308253 80.888685 
L 180.475901 84.831754 
L 180.643548 80.488768 
L 180.811195 80.56348 
L 181.314137 79.798085 
L 181.817079 78.981166 
L 182.152374 78.299518 
L 182.487668 78.100746 
L 182.655315 77.652283 
L 182.822963 77.581491 
L 182.99061 77.326702 
L 183.158257 76.720547 
L 183.325905 76.815921 
L 183.493552 76.375598 
L 183.661199 76.348764 
L 184.331788 75.066901 
L 184.499436 75.167992 
L 184.83473 74.290986 
L 185.002377 74.257511 
L 185.170025 73.846496 
L 185.337672 73.878181 
L 185.672966 73.4195 
L 187.181792 70.978097 
L 187.349439 70.950393 
L 187.684734 70.128792 
L 187.852381 70.210428 
L 188.355323 69.5109 
L 188.52297 68.887589 
L 188.690618 68.867533 
L 189.193559 68.300227 
L 189.361207 67.631009 
L 189.528854 67.692743 
L 189.864149 67.201272 
L 190.199443 66.509924 
L 190.36709 66.550073 
L 190.534738 66.124544 
L 190.702385 66.010397 
L 190.870032 78.320284 
L 191.03768 65.286265 
L 191.205327 65.199416 
L 191.875916 64.061781 
L 192.378858 63.445599 
L 192.546505 63.001322 
L 192.8818 62.902638 
L 193.049447 62.336617 
L 193.217094 62.334963 
L 193.552389 61.507715 
L 193.720036 61.492554 
L 194.055331 60.985518 
L 194.222978 60.518205 
L 194.390625 60.630838 
L 194.893567 59.657533 
L 195.061214 59.659496 
L 195.731803 58.655315 
L 196.234745 57.701166 
L 196.402393 57.358243 
L 196.57004 57.343961 
L 196.905334 56.673143 
L 197.072982 56.762098 
L 197.911218 55.187742 
L 198.078865 55.113044 
L 198.246513 54.685574 
L 198.41416 42.520844 
L 198.581807 54.369365 
L 198.749454 54.251846 
L 198.917102 53.725355 
L 199.084749 53.603413 
L 199.252396 53.17059 
L 199.420044 53.165677 
L 200.090633 52.102946 
L 200.25828 51.707251 
L 200.425927 51.762107 
L 200.593575 46.407746 
L 200.761222 51.162513 
L 200.928869 50.805432 
L 201.096516 65.145252 
L 201.264164 50.435862 
L 201.431811 50.244977 
L 201.599458 50.473226 
L 201.934753 49.559524 
L 202.270047 49.093091 
L 203.443578 47.153985 
L 203.611226 47.075732 
L 203.94652 46.423659 
L 204.281815 46.026454 
L 204.449462 45.96022 
L 205.622993 43.88473 
L 205.79064 43.891249 
L 206.125935 43.140685 
L 206.293582 43.128924 
L 206.461229 42.663302 
L 206.628877 42.689177 
L 206.796524 56.008672 
L 206.964171 42.166254 
L 207.802408 40.886129 
L 208.137702 40.210391 
L 208.30535 40.258171 
L 208.808291 39.162404 
L 208.975939 39.336547 
L 209.143586 38.68024 
L 209.311233 38.822873 
L 209.478881 38.311067 
L 209.646528 38.29259 
L 210.820059 36.421698 
L 211.155353 35.894907 
L 211.323001 35.769514 
L 211.490648 35.245491 
L 211.825942 34.853281 
L 212.161237 34.375925 
L 212.328884 34.249559 
L 212.496532 33.82281 
L 212.664179 33.891273 
L 212.831826 33.586725 
L 212.999473 99.989686 
L 213.334768 99.567173 
L 213.502415 99.596227 
L 213.670063 99.343195 
L 213.83771 98.688043 
L 214.005357 98.620987 
L 214.173004 98.293769 
L 214.340652 98.267382 
L 214.843594 97.54148 
L 215.178888 96.834493 
L 215.68183 96.004202 
L 215.849477 95.983917 
L 216.352419 95.040198 
L 216.520066 95.156991 
L 216.855361 94.524894 
L 217.358303 93.649606 
L 217.52595 93.645771 
L 217.693597 93.038054 
L 217.861245 106.454922 
L 218.028892 92.634649 
L 218.196539 92.640761 
L 218.531834 91.916908 
L 218.699481 91.899126 
L 219.034776 91.476521 
L 219.37007 90.679103 
L 219.705365 90.20988 
L 219.873012 90.035667 
L 220.040659 89.621992 
L 220.208307 89.616134 
L 220.878896 88.669946 
L 221.046543 85.258307 
L 221.21419 88.235129 
L 221.717132 87.42795 
L 222.052427 87.079638 
L 222.387721 86.379704 
L 222.555368 86.246683 
L 222.890663 85.475561 
L 223.05831 85.384022 
L 223.393605 84.890723 
L 223.561252 84.766536 
L 223.896547 84.136821 
L 224.064194 84.092445 
L 224.231841 83.803917 
L 224.399489 83.269381 
L 224.567136 83.339629 
L 225.070078 82.393417 
L 225.237725 82.038387 
L 225.405372 81.996053 
L 225.57302 81.66362 
L 225.740667 81.662946 
L 226.075961 80.767762 
L 226.243609 80.882974 
L 226.411256 80.281989 
L 226.578903 80.311829 
L 226.746551 79.981689 
L 226.914198 79.954105 
L 228.758318 76.881027 
L 228.925965 76.958264 
L 229.26126 76.361533 
L 230.602438 74.437916 
L 230.770085 74.2951 
L 231.10538 73.465041 
L 231.440674 73.328257 
L 231.775969 72.633049 
L 231.943616 72.51889 
L 232.446558 71.638527 
L 232.781853 71.185779 
L 233.284795 70.221619 
L 233.452442 70.203954 
L 235.631856 66.911896 
L 235.799504 66.902419 
L 236.302446 65.9828 
L 236.973035 64.98575 
L 237.140682 54.78392 
L 237.308329 64.516163 
L 237.475977 64.13861 
L 237.643624 64.199808 
L 237.978918 63.341491 
L 238.146566 63.221811 
L 238.314213 64.659621 
L 238.48186 62.911298 
L 238.649508 62.558428 
L 238.817155 62.475831 
L 239.487744 61.471948 
L 239.655391 61.307774 
L 239.823039 70.18461 
L 239.990686 60.539801 
L 240.493628 60.043595 
L 240.828922 59.512147 
L 240.996569 59.335768 
L 241.331864 58.636798 
L 241.499511 58.463223 
L 242.002453 57.551049 
L 242.505395 57.033018 
L 242.673042 56.608522 
L 242.84069 56.558604 
L 243.511279 55.644022 
L 243.846573 54.747223 
L 244.014221 54.81794 
L 244.349515 54.42199 
L 244.517162 36.919093 
L 244.68481 53.550617 
L 244.852457 53.378833 
L 245.187752 52.9322 
L 246.52893 51.062022 
L 246.696577 50.938394 
L 246.864224 50.337339 
L 247.031872 50.250421 
L 248.708344 47.728987 
L 249.043639 47.26794 
L 249.378934 47.036269 
L 249.546581 46.412823 
L 249.714228 46.31877 
L 249.881875 45.93222 
L 250.049523 46.032785 
L 250.21717 45.782549 
L 250.552465 45.042417 
L 250.720112 44.740628 
L 250.887759 44.841519 
L 251.223054 44.108537 
L 251.558348 43.690021 
L 252.396585 42.502214 
L 252.564232 42.033766 
L 252.731879 41.926428 
L 253.570116 40.642961 
L 253.737763 40.533944 
L 253.90541 40.074339 
L 254.073057 40.136385 
L 254.911294 38.727996 
L 255.078941 38.662489 
L 256.587767 36.155649 
L 256.755414 36.214447 
L 256.923061 35.956559 
L 257.090709 35.46656 
L 257.258356 35.4299 
L 258.431887 33.715655 
L 259.102476 34.32533 
L 259.605418 35.271609 
L 259.940712 35.533535 
L 260.778949 36.931359 
L 260.946596 37.090187 
L 261.281891 37.794924 
L 261.449538 42.703208 
L 261.617185 38.137515 
L 261.784832 38.58012 
L 261.95248 38.653544 
L 262.455422 39.413112 
L 262.623069 39.540725 
L 262.790716 39.98807 
L 262.958363 40.052986 
L 263.461305 40.988089 
L 264.970131 43.160792 
L 265.305425 43.748015 
L 265.473073 36.170373 
L 265.64072 43.933913 
L 265.808367 33.569091 
L 265.976014 44.495362 
L 266.143662 45.006008 
L 266.311309 45.062164 
L 266.478956 45.493957 
L 266.646604 45.464881 
L 266.981898 45.88753 
L 267.149545 46.439599 
L 267.149545 46.439599 
" clip-path="url(#p9919e71566)" style="fill: none; stroke: #ff5c8d; stroke-width: 1.5; stroke-linecap: square"/>
   </g>
   <g id="line2d_22">
    <path d="M 56.09 100.46 
L 277.2 100.46 
" clip-path="url(#p9919e71566)" style="fill: none; stroke: #888888; stroke-width: 0.6; stroke-linecap: square"/>
   </g>
   <g id="line2d_23">
    <path d="M 166.645 174.04 
L 166.645 26.88 
" clip-path="url(#p9919e71566)" style="fill: none; stroke: #888888; stroke-width: 0.6; stroke-linecap: square"/>
   </g>
   <g id="patch_3">
    <path d="M 56.09 174.04 
L 56.09 26.88 
" style="fill: none; stroke: #000000; stroke-width: 0.8; stroke-linejoin: miter; stroke-linecap: square"/>
   </g>
   <g id="patch_4">
    <path d="M 277.2 174.04 
L 277.2 26.88 
" style="fill: none; stroke: #000000; stroke-width: 0.8; stroke-linejoin: miter; stroke-linecap: square"/>
   </g>
   <g id="patch_5">
    <path d="M 56.09 174.04 
L 277.2 174.04 
" style="fill: none; stroke: #000000; stroke-width: 0.8; stroke-linejoin: miter; stroke-linecap: square"/>
   </g>
   <g id="patch_6">
    <path d="M 56.09 26.88 
L 277.2 26.88 
" style="fill: none; stroke: #000000; stroke-width: 0.8; stroke-linejoin: miter; stroke-linecap: square"/>
   </g>
   <g id="text_13">
    <!-- foldback curve — chaos 6.0 -->
    <g transform="translate(83.570312 20.88) scale(0.12 -0.12)">
     <defs>
      <path id="DejaVuSans-66" d="M 2375 4863 
L 2375 4384 
L 1825 4384 
Q 1516 4384 1395 4259 
Q 1275 4134 1275 3809 
L 1275 3500 
L 2222 3500 
L 2222 3053 
L 1275 3053 
L 1275 0 
L 697 0 
L 697 3053 
L 147 3053 
L 147 3500 
L 697 3500 
L 697 3744 
Q 697 4328 969 4595 
Q 1241 4863 1831 4863 
L 2375 4863 
z
" transform="scale(0.015625)"/>
      <path id="DejaVuSans-6c" d="M 603 4863 
L 1178 4863 
L 1178 0 
L 603 0 
L 603 4863 
z
" transform="scale(0.015625)"/>
      <path id="DejaVuSans-64" d="M 2906 2969 
L 2906 4863 
L 3481 4863 
L 3481 0 
L 2906 0 
L 2906 525 
Q 2725 213 2448 61 
Q 2172 -91 1784 -91 
Q 1150 -91 751 415 
Q 353 922 353 1747 
Q 353 2572 751 3078 
Q 1150 3584 1784 3584 
Q 2172 3584 2448 3432 
Q 2725 3281 2906 2969 
z
M 947 1747 
Q 947 1113 1208 752 
Q 1469 391 1925 391 
Q 2381 391 2643 752 
Q 2906 1113 2906 1747 
Q 2906 2381 2643 2742 
Q 2381 3103 1925 3103 
Q 1469 3103 1208 2742 
Q 947 2381 947 1747 
z
" transform="scale(0.015625)"/>
      <path id="DejaVuSans-62" d="M 3116 1747 
Q 3116 2381 2855 2742 
Q 2594 3103 2138 3103 
Q 1681 3103 1420 2742 
Q 1159 2381 1159 1747 
Q 1159 1113 1420 752 
Q 1681 391 2138 391 
Q 2594 391 2855 752 
Q 3116 1113 3116 1747 
z
M 1159 2969 
Q 1341 3281 1617 3432 
Q 1894 3584 2278 3584 
Q 2916 3584 3314 3078 
Q 3713 2572 3713 1747 
Q 3713 922 3314 415 
Q 2916 -91 2278 -91 
Q 1894 -91 1617 61 
Q 1341 213 1159 525 
L 1159 0 
L 581 0 
L 581 4863 
L 1159 4863 
L 1159 2969 
z
" transform="scale(0.015625)"/>
      <path id="DejaVuSans-61" d="M 2194 1759 
Q 1497 1759 1228 1600 
Q 959 1441 959 1056 
Q 959 750 1161 570 
Q 1363 391 1709 391 
Q 2188 391 2477 730 
Q 2766 1069 2766 1631 
L 2766 1759 
L 2194 1759 
z
M 3341 1997 
L 3341 0 
L 2766 0 
L 2766 531 
Q 2569 213 2275 61 
Q 1981 -91 1556 -91 
Q 1019 -91 701 211 
Q 384 513 384 1019 
Q 384 1609 779 1909 
Q 1175 2209 1959 2209 
L 2766 2209 
L 2766 2266 
Q 2766 2663 2505 2880 
Q 2244 3097 1772 3097 
Q 1472 3097 1187 3025 
Q 903 2953 641 2809 
L 641 3341 
Q 956 3463 1253 3523 
Q 1550 3584 1831 3584 
Q 2591 3584 2966 3190 
Q 3341 2797 3341 1997 
z
" transform="scale(0.015625)"/>
      <path id="DejaVuSans-63" d="M 3122 3366 
L 3122 2828 
Q 2878 2963 2633 3030 
Q 2388 3097 2138 3097 
Q 1578 3097 1268 2742 
Q 959 2388 959 1747 
Q 959 1106 1268 751 
Q 1578 397 2138 397 
Q 2388 397 2633 464 
Q 2878 531 3122 666 
L 3122 134 
Q 2881 22 2623 -34 
Q 2366 -91 2075 -91 
Q 1284 -91 818 406 
Q 353 903 353 1747 
Q 353 2603 823 3093 
Q 1294 3584 2113 3584 
Q 2378 3584 2631 3529 
Q 2884 3475 3122 3366 
z
" transform="scale(0.015625)"/>
      <path id="DejaVuSans-6b" d="M 581 4863 
L 1159 4863 
L 1159 1991 
L 2875 3500 
L 3609 3500 
L 1753 1863 
L 3688 0 
L 2938 0 
L 1159 1709 
L 1159 0 
L 581 0 
L 581 4863 
z
" transform="scale(0.015625)"/>
      <path id="DejaVuSans-20" transform="scale(0.015625)"/>
      <path id="DejaVuSans-72" d="M 2631 2963 
Q 2534 3019 2420 3045 
Q 2306 3072 2169 3072 
Q 1681 3072 1420 2755 
Q 1159 2438 1159 1844 
L 1159 0 
L 581 0 
L 581 3500 
L 1159 3500 
L 1159 2956 
Q 1341 3275 1631 3429 
Q 1922 3584 2338 3584 
Q 2397 3584 2469 3576 
Q 2541 3569 2628 3553 
L 2631 2963 
z
" transform="scale(0.015625)"/>
      <path id="DejaVuSans-76" d="M 191 3500 
L 800 3500 
L 1894 563 
L 2988 3500 
L 3597 3500 
L 2284 0 
L 1503 0 
L 191 3500 
z
" transform="scale(0.015625)"/>
      <path id="DejaVuSans-65" d="M 3597 1894 
L 3597 1613 
L 953 1613 
Q 991 1019 1311 708 
Q 1631 397 2203 397 
Q 2534 397 2845 478 
Q 3156 559 3463 722 
L 3463 178 
Q 3153 47 2828 -22 
Q 2503 -91 2169 -91 
Q 1331 -91 842 396 
Q 353 884 353 1716 
Q 353 2575 817 3079 
Q 1281 3584 2069 3584 
Q 2775 3584 3186 3129 
Q 3597 2675 3597 1894 
z
M 3022 2063 
Q 3016 2534 2758 2815 
Q 2500 3097 2075 3097 
Q 1594 3097 1305 2825 
Q 1016 2553 972 2059 
L 3022 2063 
z
" transform="scale(0.015625)"/>
      <path id="DejaVuSans-2014" d="M 313 1978 
L 6088 1978 
L 6088 1528 
L 313 1528 
L 313 1978 
z
" transform="scale(0.015625)"/>
      <path id="DejaVuSans-68" d="M 3513 2113 
L 3513 0 
L 2938 0 
L 2938 2094 
Q 2938 2591 2744 2837 
Q 2550 3084 2163 3084 
Q 1697 3084 1428 2787 
Q 1159 2491 1159 1978 
L 1159 0 
L 581 0 
L 581 4863 
L 1159 4863 
L 1159 2956 
Q 1366 3272 1645 3428 
Q 1925 3584 2291 3584 
Q 2894 3584 3203 3211 
Q 3513 2838 3513 2113 
z
" transform="scale(0.015625)"/>
      <path id="DejaVuSans-73" d="M 2834 3397 
L 2834 2853 
Q 2591 2978 2328 3040 
Q 2066 3103 1784 3103 
Q 1356 3103 1142 2972 
Q 928 2841 928 2578 
Q 928 2378 1081 2264 
Q 1234 2150 1697 2047 
L 1894 2003 
Q 2506 1872 2764 1633 
Q 3022 1394 3022 966 
Q 3022 478 2636 193 
Q 2250 -91 1575 -91 
Q 1294 -91 989 -36 
Q 684 19 347 128 
L 347 722 
Q 666 556 975 473 
Q 1284 391 1588 391 
Q 1994 391 2212 530 
Q 2431 669 2431 922 
Q 2431 1156 2273 1281 
Q 2116 1406 1581 1522 
L 1381 1569 
Q 847 1681 609 1914 
Q 372 2147 372 2553 
Q 372 3047 722 3315 
Q 1072 3584 1716 3584 
Q 2034 3584 2315 3537 
Q 2597 3491 2834 3397 
z
" transform="scale(0.015625)"/>
      <path id="DejaVuSans-36" d="M 2113 2584 
Q 1688 2584 1439 2293 
Q 1191 2003 1191 1497 
Q 1191 994 1439 701 
Q 1688 409 2113 409 
Q 2538 409 2786 701 
Q 3034 994 3034 1497 
Q 3034 2003 2786 2293 
Q 2538 2584 2113 2584 
z
M 3366 4563 
L 3366 3988 
Q 3128 4100 2886 4159 
Q 2644 4219 2406 4219 
Q 1781 4219 1451 3797 
Q 1122 3375 1075 2522 
Q 1259 2794 1537 2939 
Q 1816 3084 2150 3084 
Q 2853 3084 3261 2657 
Q 3669 2231 3669 1497 
Q 3669 778 3244 343 
Q 2819 -91 2113 -91 
Q 1303 -91 875 529 
Q 447 1150 447 2328 
Q 447 3434 972 4092 
Q 1497 4750 2381 4750 
Q 2619 4750 2861 4703 
Q 3103 4656 3366 4563 
z
" transform="scale(0.015625)"/>
     </defs>
     <use xlink:href="#DejaVuSans-66"/>
     <use xlink:href="#DejaVuSans-6f" transform="translate(35.205078 0)"/>
     <use xlink:href="#DejaVuSans-6c" transform="translate(96.386719 0)"/>
     <use xlink:href="#DejaVuSans-64" transform="translate(124.169922 0)"/>
     <use xlink:href="#DejaVuSans-62" transform="translate(187.646484 0)"/>
     <use xlink:href="#DejaVuSans-61" transform="translate(251.123047 0)"/>
     <use xlink:href="#DejaVuSans-63" transform="translate(312.402344 0)"/>
     <use xlink:href="#DejaVuSans-6b" transform="translate(367.382812 0)"/>
     <use xlink:href="#DejaVuSans-20" transform="translate(425.292969 0)"/>
     <use xlink:href="#DejaVuSans-63" transform="translate(457.080078 0)"/>
     <use xlink:href="#DejaVuSans-75" transform="translate(512.060547 0)"/>
     <use xlink:href="#DejaVuSans-72" transform="translate(575.439453 0)"/>
     <use xlink:href="#DejaVuSans-76" transform="translate(616.552734 0)"/>
     <use xlink:href="#DejaVuSans-65" transform="translate(675.732422 0)"/>
     <use xlink:href="#DejaVuSans-20" transform="translate(737.255859 0)"/>
     <use xlink:href="#DejaVuSans-2014" transform="translate(769.042969 0)"/>
     <use xlink:href="#DejaVuSans-20" transform="translate(869.042969 0)"/>
     <use xlink:href="#DejaVuSans-63" transform="translate(900.830078 0)"/>
     <use xlink:href="#DejaVuSans-68" transform="translate(955.810547 0)"/>
     <use xlink:href="#DejaVuSans-61" transform="translate(1019.189453 0)"/>
     <use xlink:href="#DejaVuSans-6f" transform="translate(1080.46875 0)"/>
     <use xlink:href="#DejaVuSans-73" transform="translate(1141.650391 0)"/>
     <use xlink:href="#DejaVuSans-20" transform="translate(1193.75 0)"/>
     <use xlink:href="#DejaVuSans-36" transform="translate(1225.537109 0)"/>
     <use xlink:href="#DejaVuSans-2e" transform="translate(1289.160156 0)"/>
     <use xlink:href="#DejaVuSans-30" transform="translate(1320.947266 0)"/>
    </g>
   </g>
  </g>
 </g>
 <defs>
  <clipPath id="p9919e71566">
   <rect x="56.09" y="26.88" width="221.11" height="147.16"/>
  </clipPath>
 </defs>
</svg>
