<?xml version="1.0" encoding="utf-8" standalone="no"?>
<!DOCTYPE svg PUBLIC "-//W3C//DTD SVG 1.1//EN"
  "http://www.w3.org/Graphics/SVG/1.1/DTD/svg11.dtd">
<svg xmlns:xlink="http://www.w3.org/1999/xlink" width="288pt" height="216pt" viewBox="0 0 288 216" xmlns="http://www.w3.org/2000/svg" version="1.1">
 <metadata>
  <rdf:RDF xmlns:dc="http://purl.org/dc/elements/1.1/" xmlns:cc="http://creativecommons.org/ns#" xmlns:rdf="http://www.w3.org/1999/02/22-rdf-syntax-ns#">
   <cc:Work>
    <dc:type rdf:resource="http://purl.org/dc/dcmitype/StillImage"/>
    <dc:date>2025-11-23T14:28:29.091588</dc:date>
    <dc:format>image/svg+xml</dc:format>
    <dc:creator>
     <cc:Agent>
      <dc:title>Matplotlib v3.10.7, https://matplotlib.org/</dc:title>
     </cc:Agent>
    </dc:creator>
   </cc:Work>
  </rdf:RDF>
 </metadata>
 <defs>
  <style type="text/css">*{stroke-linejoin: round; stroke-linecap: butt}</style>
 </defs>
 <g id="figure_1">
  <g id="patch_1">
   <path d="M 0 216 
L 288 216 
L 288 0 
L 0 0 
z
" style="fill: #ffffff"/>
  </g>
  <g id="axes_1">
   <g id="patch_2">
    <path d="M 56.09 174.04 
L 277.2 174.04 
L 277.2 26.88 
L 56.09 26.88 
z
" style="fill: #ffffff"/>
   </g>
   <g id="matplotlib.axis_1">
    <g id="xtick_1">
     <g id="line2d_1">
      <path d="M 75.277231 174.04 
L 75.277231 26.88 
" clip-path="url(#p5c4852be0f)" style="fill: none; stroke: #b0b0b0; stroke-opacity: 0.5; stroke-width: 0.4; stroke-linecap: square"/>
     </g>
     <g id="line2d_2">
      <defs>
       <path id="me7d23ef256" d="M 0 0 
L 0 3.5 
" style="stroke: #000000; stroke-width: 0.8"/>
      </defs>
      <g>
       <use xlink:href="#me7d23ef256" x="75.277231" y="174.04" style="stroke: #000000; stroke-width: 0.8"/>
      </g>
     </g>
     <g id="text_1">
      <!-- −2 -->
      <g transform="translate(67.906138 188.638438) scale(0.1 -0.1)">
       <defs>
        <path id="DejaVuSans-2212" d="M 678 2272 
L 4684 2272 
L 4684 1741 
L 678 1741 
L 678 2272 
z
" transform="scale(0.015625)"/>
        <path id="DejaVuSans-32" d="M 1228 531 
L 3431 531 
L 3431 0 
L 469 0 
L 469 531 
Q 828 903 1448 1529 
Q 2069 2156 2228 2338 
Q 2531 2678 2651 2914 
Q 2772 3150 2772 3378 
Q 2772 3750 2511 3984 
Q 2250 4219 1831 4219 
Q 1534 4219 1204 4116 
Q 875 4013 500 3803 
L 500 4441 
Q 881 4594 1212 4672 
Q 1544 4750 1819 4750 
Q 2544 4750 2975 4387 
Q 3406 4025 3406 3419 
Q 3406 3131 3298 2873 
Q 3191 2616 2906 2266 
Q 2828 2175 2409 1742 
Q 1991 1309 1228 531 
z
" transform="scale(0.015625)"/>
       </defs>
       <use xlink:href="#DejaVuSans-2212"/>
       <use xlink:href="#DejaVuSans-32" transform="translate(83.789062 0)"/>
      </g>
     </g>
    </g>
    <g id="xtick_2">
     <g id="line2d_3">
      <path d="M 120.961116 174.04 
L 120.961116 26.88 
" clip-path="url(#p5c4852be0f)" style="fill: none; stroke: #b0b0b0; stroke-opacity: 0.5; stroke-width: 0.4; stroke-linecap: square"/>
     </g>
     <g id="line2d_4">
      <g>
       <use xlink:href="#me7d23ef256" x="120.961116" y="174.04" style="stroke: #000000; stroke-width: 0.8"/>
      </g>
     </g>
     <g id="text_2">
      <!-- −1 -->
      <g transform="translate(113.590022 188.638438) scale(0.1 -0.1)">
       <defs>
        <path id="DejaVuSans-31" d="M 794 531 
L 1825 531 
L 1825 4091 
L 703 3866 
L 703 4441 
L 1819 4666 
L 2450 4666 
L 2450 531 
L 3481 531 
L 3481 0 
L 794 0 
L 794 531 
z
" transform="scale(0.015625)"/>
       </defs>
       <use xlink:href="#DejaVuSans-2212"/>
       <use xlink:href="#DejaVuSans-31" transform="translate(83.789062 0)"/>
      </g>
     </g>
    </g>
    <g id="xtick_3">
     <g id="line2d_5">
      <path d="M 166.645 174.04 
L 166.645 26.88 
" clip-path="url(#p5c4852be0f)" style="fill: none; stroke: #b0b0b0; stroke-opacity: 0.5; stroke-width: 0.4; stroke-linecap: square"/>
     </g>
     <g id="line2d_6">
      <g>
       <use xlink:href="#me7d23ef256" x="166.645" y="174.04" style="stroke: #000000; stroke-width: 0.8"/>
      </g>
     </g>
     <g id="text_3">
      <!-- 0 -->
      <g transform="translate(163.46375 188.638438) scale(0.1 -0.1)">
       <defs>
        <path id="DejaVuSans-30" d="M 2034 4250 
Q 1547 4250 1301 3770 
Q 1056 3291 1056 2328 
Q 1056 1369 1301 889 
Q 1547 409 2034 409 
Q 2525 409 2770 889 
Q 3016 1369 3016 2328 
Q 3016 3291 2770 3770 
Q 2525 4250 2034 4250 
z
M 2034 4750 
Q 2819 4750 3233 4129 
Q 3647 3509 3647 2328 
Q 3647 1150 3233 529 
Q 2819 -91 2034 -91 
Q 1250 -91 836 529 
Q 422 1150 422 2328 
Q 422 3509 836 4129 
Q 1250 4750 2034 4750 
z
" transform="scale(0.015625)"/>
       </defs>
       <use xlink:href="#DejaVuSans-30"/>
      </g>
     </g>
    </g>
    <g id="xtick_4">
     <g id="line2d_7">
      <path d="M 212.328884 174.04 
L 212.328884 26.88 
" clip-path="url(#p5c4852be0f)" style="fill: none; stroke: #b0b0b0; stroke-opacity: 0.5; stroke-width: 0.4; stroke-linecap: square"/>
     </g>
     <g id="line2d_8">
      <g>
       <use xlink:href="#me7d23ef256" x="212.328884" y="174.04" style="stroke: #000000; stroke-width: 0.8"/>
      </g>
     </g>
     <g id="text_4">
      <!-- 1 -->
      <g transform="translate(209.147634 188.638438) scale(0.1 -0.1)">
       <use xlink:href="#DejaVuSans-31"/>
      </g>
     </g>
    </g>
    <g id="xtick_5">
     <g id="line2d_9">
      <path d="M 258.012769 174.04 
L 258.012769 26.88 
" clip-path="url(#p5c4852be0f)" style="fill: none; stroke: #b0b0b0; stroke-opacity: 0.5; stroke-width: 0.4; stroke-linecap: square"/>
     </g>
     <g id="line2d_10">
      <g>
       <use xlink:href="#me7d23ef256" x="258.012769" y="174.04" style="stroke: #000000; stroke-width: 0.8"/>
      </g>
     </g>
     <g id="text_5">
      <!-- 2 -->
      <g transform="translate(254.831519 188.638438) scale(0.1 -0.1)">
       <use xlink:href="#DejaVuSans-32"/>
      </g>
     </g>
    </g>
    <g id="text_6">
     <!-- input -->
     <g transform="translate(153.784062 202.316563) scale(0.1 -0.1)">
      <defs>
       <path id="DejaVuSans-69" d="M 603 3500 
L 1178 3500 
L 1178 0 
L 603 0 
L 603 3500 
z
M 603 4863 
L 1178 4863 
L 1178 4134 
L 603 4134 
L 603 4863 
z
" transform="scale(0.015625)"/>
       <path id="DejaVuSans-6e" d="M 3513 2113 
L 3513 0 
L 2938 0 
L 2938 2094 
Q 2938 2591 2744 2837 
Q 2550 3084 2163 3084 
Q 1697 3084 1428 2787 
Q 1159 2491 1159 1978 
L 1159 0 
L 581 0 
L 581 3500 
L 1159 3500 
L 1159 2956 
Q 1366 3272 1645 3428 
Q 1925 3584 2291 3584 
Q 2894 3584 3203 3211 
Q 3513 2838 3513 2113 
z
" transform="scale(0.015625)"/>
       <path id="DejaVuSans-70" d="M 1159 525 
L 1159 -1331 
L 581 -1331 
L 581 3500 
L 1159 3500 
L 1159 2969 
Q 1341 3281 1617 3432 
Q 1894 3584 2278 3584 
Q 2916 3584 3314 3078 
Q 3713 2572 3713 1747 
Q 3713 922 3314 415 
Q 2916 -91 2278 -91 
Q 1894 -91 1617 61 
Q 1341 213 1159 525 
z
M 3116 1747 
Q 3116 2381 2855 2742 
Q 2594 3103 2138 3103 
Q 1681 3103 1420 2742 
Q 1159 2381 1159 1747 
Q 1159 1113 1420 752 
Q 1681 391 2138 391 
Q 2594 391 2855 752 
Q 3116 1113 3116 1747 
z
" transform="scale(0.015625)"/>
       <path id="DejaVuSans-75" d="M 544 1381 
L 544 3500 
L 1119 3500 
L 1119 1403 
Q 1119 906 1312 657 
Q 1506 409 1894 409 
Q 2359 409 2629 706 
Q 2900 1003 2900 1516 
L 2900 3500 
L 3475 3500 
L 3475 0 
L 2900 0 
L 2900 538 
Q 2691 219 2414 64 
Q 2138 -91 1772 -91 
Q 1169 -91 856 284 
Q 544 659 544 1381 
z
M 1991 3584 
L 1991 3584 
z
" transform="scale(0.015625)"/>
       <path id="DejaVuSans-74" d="M 1172 4494 
L 1172 3500 
L 2356 3500 
L 2356 3053 
L 1172 3053 
L 1172 1153 
Q 1172 725 1289 603 
Q 1406 481 1766 481 
L 2356 481 
L 2356 0 
L 1766 0 
Q 1100 0 847 248 
Q 594 497 594 1153 
L 594 3053 
L 172 3053 
L 172 3500 
L 594 3500 
L 594 4494 
L 1172 4494 
z
" transform="scale(0.015625)"/>
      </defs>
      <use xlink:href="#DejaVuSans-69"/>
      <use xlink:href="#DejaVuSans-6e" transform="translate(27.783203 0)"/>
      <use xlink:href="#DejaVuSans-70" transform="translate(91.162109 0)"/>
      <use xlink:href="#DejaVuSans-75" transform="translate(154.638672 0)"/>
      <use xlink:href="#DejaVuSans-74" transform="translate(218.017578 0)"/>
     </g>
    </g>
   </g>
   <g id="matplotlib.axis_2">
    <g id="ytick_1">
     <g id="line2d_11">
      <path d="M 56.09 167.350909 
L 277.2 167.350909 
" clip-path="url(#p5c4852be0f)" style="fill: none; stroke: #b0b0b0; stroke-opacity: 0.5; stroke-width: 0.4; stroke-linecap: square"/>
     </g>
     <g id="line2d_12">
      <defs>
       <path id="m6f3e535b6d" d="M 0 0 
L -3.5 0 
" style="stroke: #000000; stroke-width: 0.8"/>
      </defs>
      <g>
       <use xlink:href="#m6f3e535b6d" x="56.09" y="167.350909" style="stroke: #000000; stroke-width: 0.8"/>
      </g>
     </g>
     <g id="text_7">
      <!-- −1.0 -->
      <g transform="translate(24.807187 171.150128) scale(0.1 -0.1)">
       <defs>
        <path id="DejaVuSans-2e" d="M 684 794 
L 1344 794 
L 1344 0 
L 684 0 
L 684 794 
z
" transform="scale(0.015625)"/>
       </defs>
       <use xlink:href="#DejaVuSans-2212"/>
       <use xlink:href="#DejaVuSans-31" transform="translate(83.789062 0)"/>
       <use xlink:href="#DejaVuSans-2e" transform="translate(147.412109 0)"/>
       <use xlink:href="#DejaVuSans-30" transform="translate(179.199219 0)"/>
      </g>
     </g>
    </g>
    <g id="ytick_2">
     <g id="line2d_13">
      <path d="M 56.09 133.905455 
L 277.2 133.905455 
" clip-path="url(#p5c4852be0f)" style="fill: none; stroke: #b0b0b0; stroke-opacity: 0.5; stroke-width: 0.4; stroke-linecap: square"/>
     </g>
     <g id="line2d_14">
      <g>
       <use xlink:href="#m6f3e535b6d" x="56.09" y="133.905455" style="stroke: #000000; stroke-width: 0.8"/>
      </g>
     </g>
     <g id="text_8">
      <!-- −0.5 -->
      <g transform="translate(24.807187 137.704673) scale(0.1 -0.1)">
       <defs>
        <path id="DejaVuSans-35" d="M 691 4666 
L 3169 4666 
L 3169 4134 
L 1269 4134 
L 1269 2991 
Q 1406 3038 1543 3061 
Q 1681 3084 1819 3084 
Q 2600 3084 3056 2656 
Q 3513 2228 3513 1497 
Q 3513 744 3044 326 
Q 2575 -91 1722 -91 
Q 1428 -91 1123 -41 
Q 819 9 494 109 
L 494 744 
Q 775 591 1075 516 
Q 1375 441 1709 441 
Q 2250 441 2565 725 
Q 2881 1009 2881 1497 
Q 2881 1984 2565 2268 
Q 2250 2553 1709 2553 
Q 1456 2553 1204 2497 
Q 953 2441 691 2322 
L 691 4666 
z
" transform="scale(0.015625)"/>
       </defs>
       <use xlink:href="#DejaVuSans-2212"/>
       <use xlink:href="#DejaVuSans-30" transform="translate(83.789062 0)"/>
       <use xlink:href="#DejaVuSans-2e" transform="translate(147.412109 0)"/>
       <use xlink:href="#DejaVuSans-35" transform="translate(179.199219 0)"/>
      </g>
     </g>
    </g>
    <g id="ytick_3">
     <g id="line2d_15">
      <path d="M 56.09 100.46 
L 277.2 100.46 
" clip-path="url(#p5c4852be0f)" style="fill: none; stroke: #b0b0b0; stroke-opacity: 0.5; stroke-width: 0.4; stroke-linecap: square"/>
     </g>
     <g id="line2d_16">
      <g>
       <use xlink:href="#m6f3e535b6d" x="56.09" y="100.46" style="stroke: #000000; stroke-width: 0.8"/>
      </g>
     </g>
     <g id="text_9">
      <!-- 0.0 -->
      <g transform="translate(33.186875 104.259219) scale(0.1 -0.1)">
       <use xlink:href="#DejaVuSans-30"/>
       <use xlink:href="#DejaVuSans-2e" transform="translate(63.623047 0)"/>
       <use xlink:href="#DejaVuSans-30" transform="translate(95.410156 0)"/>
      </g>
     </g>
    </g>
    <g id="ytick_4">
     <g id="line2d_17">
      <path d="M 56.09 67.014545 
L 277.2 67.014545 
" clip-path="url(#p5c4852be0f)" style="fill: none; stroke: #b0b0b0; stroke-opacity: 0.5; stroke-width: 0.4; stroke-linecap: square"/>
     </g>
     <g id="line2d_18">
      <g>
       <use xlink:href="#m6f3e535b6d" x="56.09" y="67.014545" style="stroke: #000000; stroke-width: 0.8"/>
      </g>
     </g>
     <g id="text_10">
      <!-- 0.5 -->
      <g transform="translate(33.186875 70.813764) scale(0.1 -0.1)">
       <use xlink:href="#DejaVuSans-30"/>
       <use xlink:href="#DejaVuSans-2e" transform="translate(63.623047 0)"/>
       <use xlink:href="#DejaVuSans-35" transform="translate(95.410156 0)"/>
      </g>
     </g>
    </g>
    <g id="ytick_5">
     <g id="line2d_19">
      <path d="M 56.09 33.569091 
L 277.2 33.569091 
" clip-path="url(#p5c4852be0f)" style="fill: none; stroke: #b0b0b0; stroke-opacity: 0.5; stroke-width: 0.4; stroke-linecap: square"/>
     </g>
     <g id="line2d_20">
      <g>
       <use xlink:href="#m6f3e535b6d" x="56.09" y="33.569091" style="stroke: #000000; stroke-width: 0.8"/>
      </g>
     </g>
     <g id="text_11">
      <!-- 1.0 -->
      <g transform="translate(33.186875 37.36831) scale(0.1 -0.1)">
       <use xlink:href="#DejaVuSans-31"/>
       <use xlink:href="#DejaVuSans-2e" transform="translate(63.623047 0)"/>
       <use xlink:href="#DejaVuSans-30" transform="translate(95.410156 0)"/>
      </g>
     </g>
    </g>
    <g id="text_12">
     <!-- output -->
     <g transform="translate(18.7275 116.951406) rotate(-90) scale(0.1 -0.1)">
      <defs>
       <path id="DejaVuSans-6f" d="M 1959 3097 
Q 1497 3097 1228 2736 
Q 959 2375 959 1747 
Q 959 1119 1226 758 
Q 1494 397 1959 397 
Q 2419 397 2687 759 
Q 2956 1122 2956 1747 
Q 2956 2369 2687 2733 
Q 2419 3097 1959 3097 
z
M 1959 3584 
Q 2709 3584 3137 3096 
Q 3566 2609 3566 1747 
Q 3566 888 3137 398 
Q 2709 -91 1959 -91 
Q 1206 -91 779 398 
Q 353 888 353 1747 
Q 353 2609 779 3096 
Q 1206 3584 1959 3584 
z
" transform="scale(0.015625)"/>
      </defs>
      <use xlink:href="#DejaVuSans-6f"/>
      <use xlink:href="#DejaVuSans-75" transform="translate(61.181641 0)"/>
      <use xlink:href="#DejaVuSans-74" transform="translate(124.560547 0)"/>
      <use xlink:href="#DejaVuSans-70" transform="translate(163.769531 0)"/>
      <use xlink:href="#DejaVuSans-75" transform="translate(227.246094 0)"/>
      <use xlink:href="#DejaVuSans-74" transform="translate(290.625 0)"/>
     </g>
    </g>
   </g>
   <g id="line2d_21">
    <path d="M 66.140455 165.76429 
L 67.64928 165.649328 
L 67.816927 153.008984 
L 67.984575 165.625979 
L 71.505168 165.338614 
L 71.672815 165.322987 
L 71.840462 167.350909 
L 72.008109 165.301634 
L 72.175757 167.350909 
L 72.343404 165.269989 
L 73.349288 165.18214 
L 73.516935 153.098384 
L 73.684582 165.136053 
L 74.858113 165.03697 
L 76.702233 164.834311 
L 78.043412 164.69734 
L 78.881648 164.594773 
L 79.049295 152.657009 
L 79.216943 164.561095 
L 79.719884 164.511173 
L 79.887532 167.350909 
L 80.055179 164.453488 
L 83.240477 164.019314 
L 83.408125 158.311535 
L 83.575772 163.96961 
L 84.246361 163.897836 
L 85.755187 163.640304 
L 85.922834 167.350909 
L 86.090481 163.606718 
L 86.593423 163.513259 
L 87.431659 163.395595 
L 87.934601 163.298966 
L 88.940485 163.144069 
L 89.443427 163.014064 
L 90.114016 162.928524 
L 90.281663 160.763428 
L 90.44931 162.854478 
L 91.958136 162.533214 
L 92.796372 162.371718 
L 93.299314 162.288307 
L 93.634609 162.215892 
L 95.143434 161.862151 
L 95.311082 144.63918 
L 95.478729 161.778177 
L 97.658144 161.24505 
L 97.825791 146.299876 
L 97.993438 161.186795 
L 98.328733 161.031312 
L 98.664027 161.003121 
L 99.837558 160.669943 
L 101.011089 160.366292 
L 101.849326 160.050321 
L 103.022857 159.723616 
L 103.525798 159.52377 
L 104.02874 159.375306 
L 104.364035 159.284885 
L 104.699329 159.17485 
L 109.225806 157.485843 
L 109.728748 157.24587 
L 109.896395 157.296448 
L 110.064042 157.221828 
L 110.23169 167.350909 
L 110.399337 157.07769 
L 110.566984 156.902456 
L 110.734632 156.947551 
L 111.069926 156.733822 
L 111.405221 156.638256 
L 111.572868 167.350909 
L 111.740515 156.464599 
L 118.278759 153.193215 
L 118.446406 153.095236 
L 118.614054 139.73818 
L 118.781701 152.930184 
L 119.787585 152.423819 
L 119.955232 157.270951 
L 120.122879 152.22039 
L 120.458174 151.963322 
L 125.487592 148.704873 
L 125.65524 148.564785 
L 125.822887 146.444909 
L 125.990534 148.364753 
L 126.325829 148.200858 
L 126.493476 147.957841 
L 126.661123 147.956015 
L 127.164065 147.479026 
L 127.331712 147.434801 
L 127.49936 150.85471 
L 127.667007 147.073608 
L 128.337596 146.714192 
L 128.672891 146.278021 
L 128.840538 146.320128 
L 129.846422 145.509728 
L 130.014069 145.39839 
L 130.349363 144.962028 
L 130.852305 144.641985 
L 131.019953 144.403724 
L 131.1876 144.36894 
L 131.355247 144.128634 
L 131.522894 144.16594 
L 131.690542 143.803892 
L 131.858189 143.802279 
L 132.361131 143.304618 
L 132.528778 143.296386 
L 132.696425 145.022751 
L 132.864073 142.820148 
L 133.03172 142.856154 
L 133.702309 142.072017 
L 133.869956 142.10778 
L 134.87584 141.093203 
L 135.043487 141.033848 
L 135.378782 140.512364 
L 135.714077 140.395083 
L 135.881724 124.657552 
L 136.049371 140.03787 
L 136.217018 139.773031 
L 136.384666 139.736296 
L 137.055255 138.904136 
L 137.558197 138.587588 
L 137.893491 138.073872 
L 138.061138 138.141712 
L 138.228786 141.441131 
L 138.396433 137.693235 
L 139.569964 136.384467 
L 139.737611 136.440537 
L 139.905259 136.022097 
L 140.072906 135.996859 
L 140.911142 135.186234 
L 141.414084 134.543738 
L 141.581731 147.249144 
L 141.749379 134.096331 
L 141.917026 134.093527 
L 142.25232 133.490288 
L 142.587615 133.246023 
L 142.755262 143.190379 
L 142.92291 132.843967 
L 143.090557 132.845878 
L 143.258204 132.449342 
L 143.425851 132.455842 
L 143.761146 131.856343 
L 144.096441 131.70749 
L 144.264088 131.209403 
L 144.431735 131.318977 
L 144.599382 130.873356 
L 144.76703 130.914564 
L 144.934677 130.74017 
L 145.269972 130.069572 
L 147.617034 127.475364 
L 147.784681 127.14021 
L 147.952328 118.594033 
L 148.119975 126.916366 
L 148.45527 126.32985 
L 148.622917 126.175963 
L 148.790564 123.509043 
L 148.958212 125.820595 
L 149.293506 125.372635 
L 149.964095 124.273338 
L 150.131743 124.299751 
L 150.29939 124.115902 
L 150.467037 123.627362 
L 150.634685 123.640135 
L 150.802332 123.234149 
L 151.137626 123.060934 
L 151.472921 122.426662 
L 151.640568 122.39862 
L 152.14351 121.515205 
L 152.311157 126.106028 
L 152.478805 121.148523 
L 152.981747 120.469975 
L 153.149394 120.432416 
L 153.652336 119.390718 
L 153.98763 119.096121 
L 154.825867 117.905149 
L 154.993514 117.645734 
L 155.161161 117.719548 
L 155.496456 117.001819 
L 156.502339 115.707726 
L 157.172929 114.700876 
L 157.508223 114.482069 
L 157.67587 113.891974 
L 157.843518 113.769712 
L 158.011165 113.40103 
L 158.178812 113.497098 
L 158.34646 113.126885 
L 158.514107 126.061969 
L 158.681754 112.740024 
L 158.849401 112.202492 
L 159.352343 111.674963 
L 159.519991 111.354954 
L 159.687638 111.398744 
L 159.855285 110.77934 
L 160.358227 110.379786 
L 160.693521 109.810998 
L 160.861169 109.715225 
L 161.028816 109.067143 
L 161.196463 109.176318 
L 161.364111 108.802223 
L 161.531758 108.702679 
L 161.699405 108.129851 
L 161.867052 108.24669 
L 162.202347 107.501913 
L 162.369994 107.272598 
L 162.537642 107.307732 
L 162.705289 106.764762 
L 163.208231 106.254076 
L 163.87882 105.143035 
L 164.717056 103.852258 
L 164.884704 103.743315 
L 165.052351 103.256777 
L 165.387645 103.115696 
L 165.72294 102.423614 
L 165.890587 102.419039 
L 166.225882 101.731254 
L 166.561176 101.099626 
L 166.728824 101.085989 
L 167.064118 100.624531 
L 167.399413 100.157569 
L 167.902355 99.22213 
L 168.070002 99.181341 
L 168.572944 98.318555 
L 168.740591 98.233802 
L 169.075886 97.569391 
L 169.746475 96.747329 
L 169.914122 96.306369 
L 170.249417 96.029352 
L 170.584711 95.236914 
L 170.752358 95.200332 
L 171.087653 94.747551 
L 171.2553 111.513956 
L 171.422948 94.018758 
L 172.261184 92.990032 
L 172.596479 92.324072 
L 172.764126 92.349505 
L 172.931773 92.121096 
L 173.267068 91.265154 
L 173.434715 91.292645 
L 173.937657 90.332745 
L 174.105304 90.353939 
L 174.440599 89.98008 
L 174.608246 89.463707 
L 174.775893 89.487858 
L 174.94354 88.877498 
L 175.111188 88.907397 
L 175.278835 88.734151 
L 175.61413 87.983682 
L 175.781777 87.789246 
L 175.949424 87.790929 
L 176.452366 86.851192 
L 176.620013 86.898574 
L 176.955308 86.119989 
L 177.122955 86.121753 
L 178.128839 84.595117 
L 178.296486 84.541011 
L 178.799428 83.574622 
L 179.134722 83.397169 
L 179.30237 82.87301 
L 179.470017 82.924144 
L 180.308253 81.428678 
L 180.475901 85.36232 
L 180.643548 81.061761 
L 180.811195 81.130213 
L 181.314137 80.431076 
L 181.817079 79.690145 
L 182.152374 79.07618 
L 182.487668 78.897891 
L 182.655315 78.4969 
L 182.822963 78.433762 
L 182.99061 78.206885 
L 183.158257 77.66945 
L 183.325905 77.753794 
L 183.493552 77.365082 
L 183.661199 77.341451 
L 184.331788 76.22027 
L 184.499436 76.308134 
L 184.83473 75.549097 
L 185.002377 75.52027 
L 185.170025 75.167204 
L 185.337672 75.194363 
L 185.672966 74.802144 
L 187.181792 72.749595 
L 187.349439 72.72665 
L 187.684734 72.049761 
L 187.852381 72.116706 
L 189.025912 70.575752 
L 189.193559 70.568619 
L 189.361207 70.03544 
L 189.528854 70.084423 
L 189.864149 69.695603 
L 190.199443 69.153091 
L 190.36709 69.184455 
L 190.702385 68.764352 
L 190.870032 81.177346 
L 191.03768 68.205693 
L 191.205327 68.139079 
L 191.875916 67.27424 
L 192.378858 66.811847 
L 192.546505 66.481099 
L 192.8818 66.407934 
L 193.049447 65.990407 
L 193.217094 65.989192 
L 193.552389 65.385509 
L 193.720036 65.374518 
L 194.055331 65.00844 
L 194.222978 64.673635 
L 194.390625 64.754103 
L 194.893567 64.063539 
L 195.061214 64.064921 
L 195.731803 63.363798 
L 196.905334 62.013835 
L 197.072982 62.073449 
L 197.911218 61.031828 
L 198.078865 60.983115 
L 198.246513 60.705583 
L 198.41416 48.52709 
L 198.581807 60.501638 
L 198.749454 60.426134 
L 198.917102 60.089822 
L 199.084749 60.012381 
L 199.252396 59.738889 
L 199.420044 59.735797 
L 200.090633 59.073436 
L 200.25828 58.83011 
L 200.425927 58.863737 
L 200.593575 53.71594 
L 200.761222 58.498054 
L 200.928869 58.28222 
L 201.096516 72.614517 
L 201.264164 58.060361 
L 201.431811 57.946377 
L 201.599458 58.311328 
L 201.767106 57.717558 
L 202.772989 56.717379 
L 202.940637 56.675479 
L 204.114167 55.580004 
L 204.617109 55.335764 
L 204.952404 54.901748 
L 205.120051 54.857676 
L 205.622993 54.381489 
L 205.79064 54.384915 
L 206.125935 53.993504 
L 206.293582 53.987419 
L 206.461229 53.747706 
L 206.628877 53.760967 
L 206.796524 67.225436 
L 206.964171 53.494375 
L 207.802408 52.854003 
L 208.137702 52.522926 
L 208.30535 52.546179 
L 208.808291 52.018866 
L 208.975939 52.101838 
L 209.143586 51.790762 
L 209.311233 51.857991 
L 209.478881 51.617722 
L 209.646528 51.609097 
L 212.496532 49.623138 
L 212.664179 49.65208 
L 213.334768 49.145105 
L 213.502415 49.157065 
L 213.670063 49.053177 
L 213.83771 48.786982 
L 214.340652 48.618173 
L 214.843594 48.330718 
L 215.346535 47.938379 
L 216.352419 47.376799 
L 216.520066 47.4201 
L 217.023008 47.082632 
L 217.358303 46.870384 
L 217.52595 46.86901 
L 217.693597 46.652949 
L 217.861245 60.198842 
L 218.028892 46.51126 
L 218.196539 46.513397 
L 218.531834 46.262551 
L 218.867128 46.199615 
L 220.878896 45.190183 
L 221.046543 42.073521 
L 221.21419 45.052963 
L 221.884779 44.767005 
L 222.555368 44.443989 
L 222.890663 44.215851 
L 223.561252 44.009951 
L 224.399489 43.587108 
L 224.567136 43.606592 
L 225.237725 43.251289 
L 225.740667 43.15095 
L 226.411256 42.790087 
L 226.914198 42.706275 
L 229.931849 41.585772 
L 230.770085 41.366875 
L 231.10538 41.186613 
L 231.943616 40.985917 
L 233.284795 40.519156 
L 233.787736 40.450676 
L 234.123031 40.284529 
L 234.290678 40.302291 
L 234.79362 40.107891 
L 236.973035 39.557096 
L 237.140682 33.569091 
L 237.308329 39.477297 
L 238.146566 39.26256 
L 238.314213 40.918274 
L 238.48186 39.212164 
L 239.487744 38.984083 
L 239.655391 38.958636 
L 239.823039 48.120533 
L 239.990686 38.841113 
L 241.164217 38.588196 
L 243.678926 38.068501 
L 244.349515 37.988934 
L 244.517162 33.569091 
L 244.68481 37.878931 
L 247.199519 37.45863 
L 248.37305 37.268177 
L 254.911294 36.368234 
L 256.084825 36.225398 
L 258.767181 35.954961 
L 261.281891 35.694252 
L 261.449538 40.506564 
L 261.617185 35.672935 
L 263.293658 35.512958 
L 265.305425 35.352358 
L 265.473073 33.569091 
L 265.64072 35.342604 
L 265.808367 33.569091 
L 265.976014 35.313466 
L 267.149545 35.216167 
L 267.149545 35.216167 
" clip-path="url(#p5c4852be0f)" style="fill: none; stroke: #ff5c8d; stroke-width: 1.5; stroke-linecap: square"/>
   </g>
   <g id="line2d_22">
    <path d="M 56.09 100.46 
L 277.2 100.46 
" clip-path="url(#p5c4852be0f)" style="fill: none; stroke: #888888; stroke-width: 0.6; stroke-linecap: square"/>
   </g>
   <g id="line2d_23">
    <path d="M 166.645 174.04 
L 166.645 26.88 
" clip-path="url(#p5c4852be0f)" style="fill: none; stroke: #888888; stroke-width: 0.6; stroke-linecap: square"/>
   </g>
   <g id="patch_3">
    <path d="M 56.09 174.04 
L 56.09 26.88 
" style="fill: none; stroke: #000000; stroke-width: 0.8; stroke-linejoin: miter; stroke-linecap: square"/>
   </g>
   <g id="patch_4">
    <path d="M 277.2 174.04 
L 277.2 26.88 
" style="fill: none; stroke: #000000; stroke-width: 0.8; stroke-linejoin: miter; stroke-linecap: square"/>
   </g>
   <g id="patch_5">
    <path d="M 56.09 174.04 
L 277.2 174.04 
" style="fill: none; stroke: #000000; stroke-width: 0.8; stroke-linejoin: miter; stroke-linecap: square"/>
   </g>
   <g id="patch_6">
    <path d="M 56.09 26.88 
L 277.2 26.88 
" style="fill: none; stroke: #000000; stroke-width: 0.8; stroke-linejoin: miter; stroke-linecap: square"/>
   </g>
   <g id="text_13">
    <!-- tanh curve — chaos 6.0 -->
    <g transform="translate(95.455 20.88) scale(0.12 -0.12)">
     <defs>
      <path id="DejaVuSans-61" d="M 2194 1759 
Q 1497 1759 1228 1600 
Q 959 1441 959 1056 
Q 959 750 1161 570 
Q 1363 391 1709 391 
Q 2188 391 2477 730 
Q 2766 1069 2766 1631 
L 2766 1759 
L 2194 1759 
z
M 3341 1997 
L 3341 0 
L 2766 0 
L 2766 531 
Q 2569 213 2275 61 
Q 1981 -91 1556 -91 
Q 1019 -91 701 211 
Q 384 513 384 1019 
Q 384 1609 779 1909 
Q 1175 2209 1959 2209 
L 2766 2209 
L 2766 2266 
Q 2766 2663 2505 2880 
Q 2244 3097 1772 3097 
Q 1472 3097 1187 3025 
Q 903 2953 641 2809 
L 641 3341 
Q 956 3463 1253 3523 
Q 1550 3584 1831 3584 
Q 2591 3584 2966 3190 
Q 3341 2797 3341 1997 
z
" transform="scale(0.015625)"/>
      <path id="DejaVuSans-68" d="M 3513 2113 
L 3513 0 
L 2938 0 
L 2938 2094 
Q 2938 2591 2744 2837 
Q 2550 3084 2163 3084 
Q 1697 3084 1428 2787 
Q 1159 2491 1159 1978 
L 1159 0 
L 581 0 
L 581 4863 
L 1159 4863 
L 1159 2956 
Q 1366 3272 1645 3428 
Q 1925 3584 2291 3584 
Q 2894 3584 3203 3211 
Q 3513 2838 3513 2113 
z
" transform="scale(0.015625)"/>
      <path id="DejaVuSans-20" transform="scale(0.015625)"/>
      <path id="DejaVuSans-63" d="M 3122 3366 
L 3122 2828 
Q 2878 2963 2633 3030 
Q 2388 3097 2138 3097 
Q 1578 3097 1268 2742 
Q 959 2388 959 1747 
Q 959 1106 1268 751 
Q 1578 397 2138 397 
Q 2388 397 2633 464 
Q 2878 531 3122 666 
L 3122 134 
Q 2881 22 2623 -34 
Q 2366 -91 2075 -91 
Q 1284 -91 818 406 
Q 353 903 353 1747 
Q 353 2603 823 3093 
Q 1294 3584 2113 3584 
Q 2378 3584 2631 3529 
Q 2884 3475 3122 3366 
z
" transform="scale(0.015625)"/>
      <path id="DejaVuSans-72" d="M 2631 2963 
Q 2534 3019 2420 3045 
Q 2306 3072 2169 3072 
Q 1681 3072 1420 2755 
Q 1159 2438 1159 1844 
L 1159 0 
L 581 0 
L 581 3500 
L 1159 3500 
L 1159 2956 
Q 1341 3275 1631 3429 
Q 1922 3584 2338 3584 
Q 2397 3584 2469 3576 
Q 2541 3569 2628 3553 
L 2631 2963 
z
" transform="scale(0.015625)"/>
      <path id="DejaVuSans-76" d="M 191 3500 
L 800 3500 
L 1894 563 
L 2988 3500 
L 3597 3500 
L 2284 0 
L 1503 0 
L 191 3500 
z
" transform="scale(0.015625)"/>
      <path id="DejaVuSans-65" d="M 3597 1894 
L 3597 1613 
L 953 1613 
Q 991 1019 1311 708 
Q 1631 397 2203 397 
Q 2534 397 2845 478 
Q 3156 559 3463 722 
L 3463 178 
Q 3153 47 2828 -22 
Q 2503 -91 2169 -91 
Q 1331 -91 842 396 
Q 353 884 353 1716 
Q 353 2575 817 3079 
Q 1281 3584 2069 3584 
Q 2775 3584 3186 3129 
Q 3597 2675 3597 1894 
z
M 3022 2063 
Q 3016 2534 2758 2815 
Q 2500 3097 2075 3097 
Q 1594 3097 1305 2825 
Q 1016 2553 972 2059 
L 3022 2063 
z
" transform="scale(0.015625)"/>
      <path id="DejaVuSans-2014" d="M 313 1978 
L 6088 1978 
L 6088 1528 
L 313 1528 
L 313 1978 
z
" transform="scale(0.015625)"/>
      <path id="DejaVuSans-73" d="M 2834 3397 
L 2834 2853 
Q 2591 2978 2328 3040 
Q 2066 3103 1784 3103 
Q 1356 3103 1142 2972 
Q 928 2841 928 2578 
Q 928 2378 1081 2264 
Q 1234 2150 1697 2047 
L 1894 2003 
Q 2506 1872 2764 1633 
Q 3022 1394 3022 966 
Q 3022 478 2636 193 
Q 2250 -91 1575 -91 
Q 1294 -91 989 -36 
Q 684 19 347 128 
L 347 722 
Q 666 556 975 473 
Q 1284 391 1588 391 
Q 1994 391 2212 530 
Q 2431 669 2431 922 
Q 2431 1156 2273 1281 
Q 2116 1406 1581 1522 
L 1381 1569 
Q 847 1681 609 1914 
Q 372 2147 372 2553 
Q 372 3047 722 3315 
Q 1072 3584 1716 3584 
Q 2034 3584 2315 3537 
Q 2597 3491 2834 3397 
z
" transform="scale(0.015625)"/>
      <path id="DejaVuSans-36" d="M 2113 2584 
Q 1688 2584 1439 2293 
Q 1191 2003 1191 1497 
Q 1191 994 1439 701 
Q 1688 409 2113 409 
Q 2538 409 2786 701 
Q 3034 994 3034 1497 
Q 3034 2003 2786 2293 
Q 2538 2584 2113 2584 
z
M 3366 4563 
L 3366 3988 
Q 3128 4100 2886 4159 
Q 2644 4219 2406 4219 
Q 1781 4219 1451 3797 
Q 1122 3375 1075 2522 
Q 1259 2794 1537 2939 
Q 1816 3084 2150 3084 
Q 2853 3084 3261 2657 
Q 3669 2231 3669 1497 
Q 3669 778 3244 343 
Q 2819 -91 2113 -91 
Q 1303 -91 875 529 
Q 447 1150 447 2328 
Q 447 3434 972 4092 
Q 1497 4750 2381 4750 
Q 2619 4750 2861 4703 
Q 3103 4656 3366 4563 
z
" transform="scale(0.015625)"/>
     </defs>
     <use xlink:href="#DejaVuSans-74"/>
     <use xlink:href="#DejaVuSans-61" transform="translate(39.208984 0)"/>
     <use xlink:href="#DejaVuSans-6e" transform="translate(100.488281 0)"/>
     <use xlink:href="#DejaVuSans-68" transform="translate(163.867188 0)"/>
     <use xlink:href="#DejaVuSans-20" transform="translate(227.246094 0)"/>
     <use xlink:href="#DejaVuSans-63" transform="translate(259.033203 0)"/>
     <use xlink:href="#DejaVuSans-75" transform="translate(314.013672 0)"/>
     <use xlink:href="#DejaVuSans-72" transform="translate(377.392578 0)"/>
     <use xlink:href="#DejaVuSans-76" transform="translate(418.505859 0)"/>
     <use xlink:href="#DejaVuSans-65" transform="translate(477.685547 0)"/>
     <use xlink:href="#DejaVuSans-20" transform="translate(539.208984 0)"/>
     <use xlink:href="#DejaVuSans-2014" transform="translate(570.996094 0)"/>
     <use xlink:href="#DejaVuSans-20" transform="translate(670.996094 0)"/>
     <use xlink:href="#DejaVuSans-63" transform="translate(702.783203 0)"/>
     <use xlink:href="#DejaVuSans-68" transform="translate(757.763672 0)"/>
     <use xlink:href="#DejaVuSans-61" transform="translate(821.142578 0)"/>
     <use xlink:href="#DejaVuSans-6f" transform="translate(882.421875 0)"/>
     <use xlink:href="#DejaVuSans-73" transform="translate(943.603516 0)"/>
     <use xlink:href="#DejaVuSans-20" transform="translate(995.703125 0)"/>
     <use xlink:href="#DejaVuSans-36" transform="translate(1027.490234 0)"/>
     <use xlink:href="#DejaVuSans-2e" transform="translate(1091.113281 0)"/>
     <use xlink:href="#DejaVuSans-30" transform="translate(1122.900391 0)"/>
    </g>
   </g>
  </g>
 </g>
 <defs>
  <clipPath id="p5c4852be0f">
   <rect x="56.09" y="26.88" width="221.11" height="147.16"/>
  </clipPath>
 </defs>
</svg>
